font.ufo
<glyph name="exclam" format="1">
  <advance width="238"/>
  <unicode hex="0021"/>
  <outline>
    <contour>
      <point x="184" y="144" type="line"/>
      <point x="184" y="157"/>
      <point x="176" y="163"/>
      <point x="164" y="163" type="curve" smooth="yes"/>
      <point x="76" y="163" type="line" smooth="yes"/>
      <point x="62" y="163"/>
      <point x="56" y="157"/>
      <point x="56" y="143" type="curve" smooth="yes"/>
      <point x="56" y="22" type="line" smooth="yes"/>
      <point x="56" y="9"/>
      <point x="62" y="0"/>
      <point x="76" y="0" type="curve" smooth="yes"/>
      <point x="164" y="0" type="line" smooth="yes"/>
      <point x="177" y="0"/>
      <point x="184" y="7"/>
      <point x="184" y="21" type="curve" smooth="yes"/>
    </contour>
    <contour>
      <point x="67" y="249" type="curve" smooth="yes"/>
      <point x="70" y="233"/>
      <point x="76" y="228"/>
      <point x="90" y="228" type="curve" smooth="yes"/>
      <point x="147" y="228" type="line" smooth="yes"/>
      <point x="161" y="228"/>
      <point x="167" y="233"/>
      <point x="170" y="249" type="curve" smooth="yes"/>
      <point x="170" y="253"/>
      <point x="187" y="385"/>
      <point x="187" y="467" type="curve" smooth="yes"/>
      <point x="187" y="622" type="line" smooth="yes"/>
      <point x="187" y="638"/>
      <point x="180" y="643"/>
      <point x="166" y="643" type="curve" smooth="yes"/>
      <point x="71" y="643" type="line" smooth="yes"/>
      <point x="57" y="643"/>
      <point x="50" y="638"/>
      <point x="50" y="622" type="curve" smooth="yes"/>
      <point x="50" y="467" type="line" smooth="yes"/>
      <point x="50" y="385"/>
      <point x="67" y="253"/>
    </contour>
  </outline>
</glyph>
<glyph name="dollar" format="1">
  <advance width="527"/>
  <unicode hex="0024"/>
  <outline>
    <contour>
      <point x="296" y="-98" type="line"/>
      <point x="310" y="-98"/>
      <point x="317" y="-93"/>
      <point x="317" y="-77" type="curve" smooth="yes"/>
      <point x="317" y="0" type="line"/>
      <point x="319" y="0" type="line" smooth="yes"/>
      <point x="419" y="0"/>
      <point x="481" y="60"/>
      <point x="481" y="164" type="curve" smooth="yes"/>
      <point x="481" y="202" type="line" smooth="yes"/>
      <point x="481" y="339"/>
      <point x="396" y="369"/>
      <point x="315" y="376" type="curve" smooth="yes"/>
      <point x="277" y="379" type="line" smooth="yes"/>
      <point x="218" y="384"/>
      <point x="173" y="391"/>
      <point x="173" y="437" type="curve" smooth="yes"/>
      <point x="173" y="457" type="line" smooth="yes"/>
      <point x="173" y="517"/>
      <point x="189" y="533"/>
      <point x="243" y="533" type="curve" smooth="yes"/>
      <point x="275" y="533" type="line" smooth="yes"/>
      <point x="329" y="533"/>
      <point x="345" y="518"/>
      <point x="345" y="467" type="curve" smooth="yes"/>
      <point x="345" y="460" type="line" smooth="yes"/>
      <point x="345" y="445"/>
      <point x="352" y="439"/>
      <point x="366" y="439" type="curve" smooth="yes"/>
      <point x="451" y="439" type="line" smooth="yes"/>
      <point x="465" y="439"/>
      <point x="472" y="445"/>
      <point x="472" y="460" type="curve" smooth="yes"/>
      <point x="472" y="479" type="line" smooth="yes"/>
      <point x="472" y="580"/>
      <point x="414" y="643"/>
      <point x="319" y="643" type="curve" smooth="yes"/>
      <point x="317" y="643" type="line"/>
      <point x="317" y="722" type="line" smooth="yes"/>
      <point x="317" y="738"/>
      <point x="310" y="743"/>
      <point x="296" y="743" type="curve" smooth="yes"/>
      <point x="236" y="743" type="line" smooth="yes"/>
      <point x="222" y="743"/>
      <point x="215" y="738"/>
      <point x="215" y="722" type="curve" smooth="yes"/>
      <point x="215" y="643" type="line"/>
      <point x="208" y="643" type="line" smooth="yes"/>
      <point x="105" y="643"/>
      <point x="46" y="584"/>
      <point x="46" y="479" type="curve" smooth="yes"/>
      <point x="46" y="442" type="line" smooth="yes"/>
      <point x="46" y="296"/>
      <point x="134" y="272"/>
      <point x="218" y="264" type="curve" smooth="yes"/>
      <point x="251" y="261" type="line" smooth="yes"/>
      <point x="309" y="256"/>
      <point x="354" y="248"/>
      <point x="354" y="196" type="curve" smooth="yes"/>
      <point x="354" y="181" type="line" smooth="yes"/>
      <point x="354" y="126"/>
      <point x="336" y="110"/>
      <point x="284" y="110" type="curve" smooth="yes"/>
      <point x="244" y="110" type="line" smooth="yes"/>
      <point x="191" y="110"/>
      <point x="174" y="125"/>
      <point x="174" y="176" type="curve" smooth="yes"/>
      <point x="174" y="183" type="line" smooth="yes"/>
      <point x="174" y="199"/>
      <point x="167" y="204"/>
      <point x="153" y="204" type="curve" smooth="yes"/>
      <point x="68" y="204" type="line" smooth="yes"/>
      <point x="54" y="204"/>
      <point x="47" y="199"/>
      <point x="47" y="183" type="curve" smooth="yes"/>
      <point x="47" y="164" type="line" smooth="yes"/>
      <point x="47" y="61"/>
      <point x="107" y="0"/>
      <point x="208" y="0" type="curve" smooth="yes"/>
      <point x="215" y="0" type="line"/>
      <point x="215" y="-77" type="line" smooth="yes"/>
      <point x="215" y="-93"/>
      <point x="222" y="-98"/>
      <point x="236" y="-98" type="curve" smooth="yes"/>
    </contour>
  </outline>
</glyph>
<glyph name="ampersand" format="1">
  <advance width="618"/>
  <unicode hex="0026"/>
  <outline>
    <contour>
      <point x="222" y="111" type="line"/>
      <point x="179" y="111"/>
      <point x="160" y="127"/>
      <point x="160" y="169" type="curve" smooth="yes"/>
      <point x="160" y="212" type="line" smooth="yes"/>
      <point x="160" y="260"/>
      <point x="171" y="278"/>
      <point x="203" y="279" type="curve"/>
      <point x="312" y="151" type="line"/>
      <point x="308" y="122"/>
      <point x="293" y="111"/>
      <point x="264" y="111" type="curve" smooth="yes"/>
    </contour>
    <contour>
      <point x="429" y="14" type="line"/>
      <point x="437" y="4"/>
      <point x="451" y="0"/>
      <point x="464" y="0" type="curve" smooth="yes"/>
      <point x="571" y="0" type="line" smooth="yes"/>
      <point x="581" y="0"/>
      <point x="583" y="10"/>
      <point x="577" y="18" type="curve" smooth="yes"/>
      <point x="414" y="212" type="line"/>
      <point x="544" y="212" type="line" smooth="yes"/>
      <point x="560" y="212"/>
      <point x="565" y="218"/>
      <point x="565" y="233" type="curve" smooth="yes"/>
      <point x="565" y="301" type="line" smooth="yes"/>
      <point x="565" y="315"/>
      <point x="559" y="323"/>
      <point x="544" y="323" type="curve" smooth="yes"/>
      <point x="483" y="323"/>
      <point x="382" y="323"/>
      <point x="322" y="323" type="curve"/>
      <point x="275" y="377" type="line"/>
      <point x="252" y="403"/>
      <point x="231" y="435"/>
      <point x="231" y="466" type="curve" smooth="yes"/>
      <point x="231" y="479" type="line" smooth="yes"/>
      <point x="231" y="521"/>
      <point x="248" y="537"/>
      <point x="286" y="537" type="curve" smooth="yes"/>
      <point x="294" y="537" type="line" smooth="yes"/>
      <point x="328" y="537"/>
      <point x="344" y="521"/>
      <point x="344" y="479" type="curve" smooth="yes"/>
      <point x="344" y="447" type="line" smooth="yes"/>
      <point x="344" y="432"/>
      <point x="351" y="425"/>
      <point x="365" y="425" type="curve" smooth="yes"/>
      <point x="450" y="425" type="line" smooth="yes"/>
      <point x="464" y="425"/>
      <point x="471" y="432"/>
      <point x="471" y="447" type="curve" smooth="yes"/>
      <point x="471" y="481" type="line" smooth="yes"/>
      <point x="471" y="586"/>
      <point x="410" y="643"/>
      <point x="306" y="643" type="curve" smooth="yes"/>
      <point x="273" y="643" type="line" smooth="yes"/>
      <point x="169" y="643"/>
      <point x="100" y="586"/>
      <point x="100" y="481" type="curve" smooth="yes"/>
      <point x="100" y="470" type="line" smooth="yes"/>
      <point x="100" y="423"/>
      <point x="114" y="386"/>
      <point x="139" y="353" type="curve"/>
      <point x="71" y="345"/>
      <point x="38" y="282"/>
      <point x="38" y="220" type="curve" smooth="yes"/>
      <point x="38" y="162" type="line" smooth="yes"/>
      <point x="38" y="57"/>
      <point x="98" y="0"/>
      <point x="203" y="0" type="curve" smooth="yes"/>
      <point x="264" y="0" type="line" smooth="yes"/>
      <point x="334" y="0"/>
      <point x="370" y="19"/>
      <point x="385" y="66" type="curve"/>
    </contour>
  </outline>
</glyph>
<glyph name="quotesingle" format="1">
  <advance width="188"/>
  <unicode hex="0027"/>
  <outline>
    <contour>
      <point x="148" y="593" type="line"/>
      <point x="151" y="604"/>
      <point x="144" y="609"/>
      <point x="131" y="609" type="curve" smooth="yes"/>
      <point x="57" y="609" type="line" smooth="yes"/>
      <point x="43" y="609"/>
      <point x="37" y="604"/>
      <point x="39" y="593" type="curve" smooth="yes"/>
      <point x="63" y="468" type="line" smooth="yes"/>
      <point x="65" y="456"/>
      <point x="71" y="449"/>
      <point x="85" y="449" type="curve" smooth="yes"/>
      <point x="102" y="449" type="line" smooth="yes"/>
      <point x="116" y="449"/>
      <point x="122" y="455"/>
      <point x="125" y="466" type="curve"/>
    </contour>
  </outline>
</glyph>
<glyph name="parenleft" format="1">
  <advance width="306"/>
  <unicode hex="0028"/>
  <outline>
    <contour>
      <point x="252" y="572" type="line"/>
      <point x="252" y="560"/>
      <point x="249" y="554"/>
      <point x="233" y="554" type="curve" smooth="yes"/>
      <point x="230" y="554" type="line" smooth="yes"/>
      <point x="176" y="554"/>
      <point x="145" y="518"/>
      <point x="145" y="438" type="curve" smooth="yes"/>
      <point x="145" y="103" type="line" smooth="yes"/>
      <point x="145" y="23"/>
      <point x="178" y="-13"/>
      <point x="232" y="-13" type="curve" smooth="yes"/>
      <point x="230" y="-13"/>
      <point x="233" y="-13"/>
      <point x="233" y="-13" type="curve" smooth="yes"/>
      <point x="249" y="-13"/>
      <point x="252" y="-19"/>
      <point x="252" y="-31" type="curve" smooth="yes"/>
      <point x="252" y="-87" type="line" smooth="yes"/>
      <point x="252" y="-99"/>
      <point x="249" y="-102"/>
      <point x="233" y="-102" type="curve" smooth="yes"/>
      <point x="230" y="-102" type="line" smooth="yes"/>
      <point x="119" y="-102"/>
      <point x="43" y="-40"/>
      <point x="43" y="119" type="curve" smooth="yes"/>
      <point x="43" y="422" type="line" smooth="yes"/>
      <point x="43" y="581"/>
      <point x="120" y="643"/>
      <point x="231" y="643" type="curve" smooth="yes"/>
      <point x="232" y="643"/>
      <point x="233" y="643"/>
      <point x="234" y="643" type="curve" smooth="yes"/>
      <point x="249" y="643"/>
      <point x="252" y="640"/>
      <point x="252" y="628" type="curve" smooth="yes"/>
    </contour>
  </outline>
</glyph>
<glyph name="parenright" format="1">
  <advance width="306"/>
  <unicode hex="0029"/>
  <outline>
    <contour>
      <point x="43" y="-87" type="line"/>
      <point x="43" y="-99"/>
      <point x="47" y="-102"/>
      <point x="62" y="-102" type="curve" smooth="yes"/>
      <point x="62" y="-102"/>
      <point x="62" y="-102"/>
      <point x="63" y="-102" type="curve" smooth="yes"/>
      <point x="174" y="-102"/>
      <point x="252" y="-40"/>
      <point x="252" y="119" type="curve" smooth="yes"/>
      <point x="252" y="422" type="line" smooth="yes"/>
      <point x="252" y="581"/>
      <point x="174" y="643"/>
      <point x="63" y="643" type="curve" smooth="yes"/>
      <point x="62" y="643"/>
      <point x="62" y="643"/>
      <point x="62" y="643" type="curve" smooth="yes"/>
      <point x="47" y="643"/>
      <point x="43" y="640"/>
      <point x="43" y="628" type="curve" smooth="yes"/>
      <point x="43" y="572" type="line" smooth="yes"/>
      <point x="43" y="560"/>
      <point x="47" y="554"/>
      <point x="62" y="554" type="curve" smooth="yes"/>
      <point x="62" y="554"/>
      <point x="62" y="554"/>
      <point x="63" y="554" type="curve" smooth="yes"/>
      <point x="116" y="554"/>
      <point x="150" y="518"/>
      <point x="150" y="438" type="curve" smooth="yes"/>
      <point x="150" y="103" type="line" smooth="yes"/>
      <point x="150" y="23"/>
      <point x="116" y="-13"/>
      <point x="63" y="-13" type="curve" smooth="yes"/>
      <point x="62" y="-13"/>
      <point x="62" y="-13"/>
      <point x="62" y="-13" type="curve" smooth="yes"/>
      <point x="47" y="-13"/>
      <point x="43" y="-19"/>
      <point x="43" y="-31" type="curve" smooth="yes"/>
    </contour>
  </outline>
</glyph>
<glyph name="plus" format="1">
  <advance width="565"/>
  <unicode hex="002B"/>
  <outline>
    <contour>
      <point x="336" y="510" type="line"/>
      <point x="336" y="528"/>
      <point x="329" y="534"/>
      <point x="312" y="534" type="curve" smooth="yes"/>
      <point x="253" y="534" type="line" smooth="yes"/>
      <point x="236" y="534"/>
      <point x="229" y="528"/>
      <point x="229" y="510" type="curve" smooth="yes"/>
      <point x="229" y="132" type="line" smooth="yes"/>
      <point x="229" y="114"/>
      <point x="236" y="108"/>
      <point x="253" y="108" type="curve" smooth="yes"/>
      <point x="312" y="108" type="line" smooth="yes"/>
      <point x="329" y="108"/>
      <point x="336" y="114"/>
      <point x="336" y="132" type="curve" smooth="yes"/>
    </contour>
    <contour>
      <point x="93" y="373" type="line"/>
      <point x="75" y="373"/>
      <point x="70" y="366"/>
      <point x="70" y="349" type="curve" smooth="yes"/>
      <point x="70" y="293" type="line" smooth="yes"/>
      <point x="70" y="277"/>
      <point x="75" y="270"/>
      <point x="93" y="270" type="curve" smooth="yes"/>
      <point x="472" y="270" type="line" smooth="yes"/>
      <point x="490" y="270"/>
      <point x="495" y="277"/>
      <point x="495" y="293" type="curve" smooth="yes"/>
      <point x="495" y="349" type="line" smooth="yes"/>
      <point x="495" y="366"/>
      <point x="490" y="373"/>
      <point x="472" y="373" type="curve" smooth="yes"/>
    </contour>
  </outline>
</glyph>
<glyph name="comma" format="1">
  <advance width="204"/>
  <unicode hex="002C"/>
  <outline>
    <contour>
      <point x="166" y="144" type="line"/>
      <point x="166" y="157"/>
      <point x="159" y="163"/>
      <point x="147" y="163" type="curve" smooth="yes"/>
      <point x="58" y="163" type="line" smooth="yes"/>
      <point x="44" y="163"/>
      <point x="38" y="157"/>
      <point x="38" y="143" type="curve" smooth="yes"/>
      <point x="38" y="-87" type="line" smooth="yes"/>
      <point x="38" y="-102"/>
      <point x="46" y="-107"/>
      <point x="55" y="-107" type="curve" smooth="yes"/>
      <point x="63" y="-107"/>
      <point x="70" y="-103"/>
      <point x="74" y="-97" type="curve" smooth="yes"/>
      <point x="143" y="4" type="line" smooth="yes"/>
      <point x="158" y="27"/>
      <point x="166" y="44"/>
      <point x="166" y="66" type="curve" smooth="yes"/>
    </contour>
  </outline>
</glyph>
<glyph name="period" format="1">
  <advance width="204"/>
  <unicode hex="002E"/>
  <outline>
    <contour>
      <point x="166" y="144" type="line"/>
      <point x="166" y="157"/>
      <point x="159" y="163"/>
      <point x="147" y="163" type="curve" smooth="yes"/>
      <point x="58" y="163" type="line" smooth="yes"/>
      <point x="44" y="163"/>
      <point x="38" y="157"/>
      <point x="38" y="143" type="curve" smooth="yes"/>
      <point x="38" y="21" type="line" smooth="yes"/>
      <point x="38" y="7"/>
      <point x="44" y="0"/>
      <point x="58" y="0" type="curve" smooth="yes"/>
      <point x="147" y="0" type="line" smooth="yes"/>
      <point x="160" y="0"/>
      <point x="166" y="7"/>
      <point x="166" y="21" type="curve" smooth="yes"/>
    </contour>
  </outline>
</glyph>
<glyph name="zero" format="1">
  <advance width="536"/>
  <unicode hex="0030"/>
  <outline>
    <contour>
      <point x="318" y="0" type="line"/>
      <point x="422" y="0"/>
      <point x="482" y="58"/>
      <point x="482" y="163" type="curve" smooth="yes"/>
      <point x="482" y="480" type="line" smooth="yes"/>
      <point x="482" y="585"/>
      <point x="422" y="643"/>
      <point x="318" y="643" type="curve" smooth="yes"/>
      <point x="218" y="643" type="line" smooth="yes"/>
      <point x="113" y="643"/>
      <point x="53" y="585"/>
      <point x="53" y="480" type="curve" smooth="yes"/>
      <point x="53" y="163" type="line" smooth="yes"/>
      <point x="53" y="58"/>
      <point x="113" y="0"/>
      <point x="218" y="0" type="curve" smooth="yes"/>
    </contour>
    <contour>
      <point x="239" y="110" type="line"/>
      <point x="196" y="110"/>
      <point x="181" y="127"/>
      <point x="181" y="169" type="curve" smooth="yes"/>
      <point x="181" y="474" type="line" smooth="yes"/>
      <point x="181" y="516"/>
      <point x="196" y="533"/>
      <point x="239" y="533" type="curve" smooth="yes"/>
      <point x="298" y="533" type="line" smooth="yes"/>
      <point x="341" y="533"/>
      <point x="356" y="516"/>
      <point x="356" y="474" type="curve" smooth="yes"/>
      <point x="356" y="169" type="line" smooth="yes"/>
      <point x="356" y="127"/>
      <point x="341" y="110"/>
      <point x="298" y="110" type="curve" smooth="yes"/>
    </contour>
  </outline>
</glyph>
<glyph name="one" format="1">
  <advance width="334"/>
  <unicode hex="0031"/>
  <outline>
    <contour>
      <point x="142" y="508" type="line"/>
      <point x="142" y="21" type="line" smooth="yes"/>
      <point x="142" y="5"/>
      <point x="149" y="0"/>
      <point x="163" y="0" type="curve" smooth="yes"/>
      <point x="249" y="0" type="line" smooth="yes"/>
      <point x="263" y="0"/>
      <point x="269" y="4"/>
      <point x="269" y="21" type="curve" smooth="yes"/>
      <point x="269" y="622" type="line" smooth="yes"/>
      <point x="269" y="638"/>
      <point x="262" y="643"/>
      <point x="248" y="643" type="curve" smooth="yes"/>
      <point x="168" y="643" type="line" smooth="yes"/>
      <point x="154" y="643"/>
      <point x="144" y="638"/>
      <point x="129" y="629" type="curve" smooth="yes"/>
      <point x="38" y="572" type="line" smooth="yes"/>
      <point x="26" y="565"/>
      <point x="23" y="560"/>
      <point x="23" y="546" type="curve" smooth="yes"/>
      <point x="23" y="464" type="line" smooth="yes"/>
      <point x="23" y="451"/>
      <point x="27" y="445"/>
      <point x="44" y="452" type="curve"/>
    </contour>
  </outline>
</glyph>
<glyph name="four" format="1">
  <advance width="541"/>
  <unicode hex="0034"/>
  <outline>
    <contour>
      <point x="417" y="0" type="line"/>
      <point x="431" y="0"/>
      <point x="437" y="4"/>
      <point x="437" y="21" type="curve" smooth="yes"/>
      <point x="437" y="117" type="line"/>
      <point x="509" y="117" type="line" smooth="yes"/>
      <point x="524" y="117"/>
      <point x="529" y="126"/>
      <point x="529" y="140" type="curve" smooth="yes"/>
      <point x="529" y="207" type="line" smooth="yes"/>
      <point x="529" y="221"/>
      <point x="524" y="227"/>
      <point x="509" y="227" type="curve" smooth="yes"/>
      <point x="437" y="227" type="line"/>
      <point x="437" y="606" type="line" smooth="yes"/>
      <point x="437" y="629"/>
      <point x="421" y="643"/>
      <point x="399" y="643" type="curve" smooth="yes"/>
      <point x="286" y="643" type="line" smooth="yes"/>
      <point x="263" y="643"/>
      <point x="255" y="636"/>
      <point x="242" y="612" type="curve" smooth="yes"/>
      <point x="43" y="242" type="line" smooth="yes"/>
      <point x="36" y="229"/>
      <point x="33" y="214"/>
      <point x="33" y="193" type="curve" smooth="yes"/>
      <point x="33" y="154" type="line" smooth="yes"/>
      <point x="33" y="131"/>
      <point x="48" y="117"/>
      <point x="70" y="117" type="curve" smooth="yes"/>
      <point x="318" y="117" type="line"/>
      <point x="318" y="21" type="line" smooth="yes"/>
      <point x="318" y="5"/>
      <point x="325" y="0"/>
      <point x="339" y="0" type="curve" smooth="yes"/>
    </contour>
    <contour>
      <point x="318" y="536" type="line"/>
      <point x="318" y="227" type="line"/>
      <point x="156" y="227" type="line"/>
    </contour>
  </outline>
</glyph>
<glyph name="eight" format="1">
  <advance width="542"/>
  <unicode hex="0038"/>
  <outline>
    <contour>
      <point x="324" y="0" type="line"/>
      <point x="428" y="0"/>
      <point x="488" y="52"/>
      <point x="488" y="156" type="curve" smooth="yes"/>
      <point x="488" y="201" type="line" smooth="yes"/>
      <point x="488" y="264"/>
      <point x="465" y="306"/>
      <point x="423" y="323" type="curve"/>
      <point x="461" y="335"/>
      <point x="488" y="381"/>
      <point x="488" y="445" type="curve" smooth="yes"/>
      <point x="488" y="488" type="line" smooth="yes"/>
      <point x="488" y="592"/>
      <point x="428" y="643"/>
      <point x="324" y="643" type="curve" smooth="yes"/>
      <point x="218" y="643" type="line" smooth="yes"/>
      <point x="113" y="643"/>
      <point x="53" y="592"/>
      <point x="53" y="488" type="curve" smooth="yes"/>
      <point x="53" y="445" type="line" smooth="yes"/>
      <point x="53" y="381"/>
      <point x="77" y="340"/>
      <point x="119" y="323" type="curve"/>
      <point x="76" y="304"/>
      <point x="53" y="265"/>
      <point x="53" y="202" type="curve" smooth="yes"/>
      <point x="53" y="156" type="line" smooth="yes"/>
      <point x="53" y="52"/>
      <point x="113" y="0"/>
      <point x="218" y="0" type="curve" smooth="yes"/>
    </contour>
    <contour>
      <point x="237" y="373" type="line"/>
      <point x="194" y="373"/>
      <point x="179" y="393"/>
      <point x="179" y="435" type="curve" smooth="yes"/>
      <point x="179" y="477" type="line" smooth="yes"/>
      <point x="179" y="518"/>
      <point x="194" y="534"/>
      <point x="237" y="534" type="curve" smooth="yes"/>
      <point x="305" y="534" type="line" smooth="yes"/>
      <point x="348" y="534"/>
      <point x="363" y="518"/>
      <point x="363" y="477" type="curve" smooth="yes"/>
      <point x="363" y="435" type="line" smooth="yes"/>
      <point x="363" y="393"/>
      <point x="348" y="373"/>
      <point x="305" y="373" type="curve" smooth="yes"/>
    </contour>
    <contour>
      <point x="237" y="109" type="line"/>
      <point x="194" y="109"/>
      <point x="179" y="125"/>
      <point x="179" y="166" type="curve" smooth="yes"/>
      <point x="179" y="212" type="line" smooth="yes"/>
      <point x="179" y="254"/>
      <point x="194" y="274"/>
      <point x="237" y="274" type="curve" smooth="yes"/>
      <point x="305" y="274" type="line" smooth="yes"/>
      <point x="348" y="274"/>
      <point x="363" y="254"/>
      <point x="363" y="212" type="curve" smooth="yes"/>
      <point x="363" y="166" type="line" smooth="yes"/>
      <point x="363" y="125"/>
      <point x="348" y="109"/>
      <point x="305" y="109" type="curve" smooth="yes"/>
    </contour>
  </outline>
</glyph>
<glyph name="nine" format="1">
  <advance width="525"/>
  <unicode hex="0039"/>
  <outline>
    <contour>
      <point x="306" y="0" type="line"/>
      <point x="411" y="0"/>
      <point x="471" y="58"/>
      <point x="471" y="163" type="curve" smooth="yes"/>
      <point x="471" y="480" type="line" smooth="yes"/>
      <point x="471" y="585"/>
      <point x="411" y="643"/>
      <point x="306" y="643" type="curve" smooth="yes"/>
      <point x="208" y="643" type="line" smooth="yes"/>
      <point x="103" y="643"/>
      <point x="43" y="585"/>
      <point x="43" y="480" type="curve" smooth="yes"/>
      <point x="43" y="391" type="line" smooth="yes"/>
      <point x="43" y="287"/>
      <point x="103" y="229"/>
      <point x="208" y="229" type="curve" smooth="yes"/>
      <point x="344" y="229" type="line"/>
      <point x="344" y="169" type="line" smooth="yes"/>
      <point x="344" y="127"/>
      <point x="329" y="110"/>
      <point x="286" y="110" type="curve" smooth="yes"/>
      <point x="95" y="110" type="line" smooth="yes"/>
      <point x="80" y="110"/>
      <point x="73" y="103"/>
      <point x="73" y="90" type="curve" smooth="yes"/>
      <point x="73" y="21" type="line" smooth="yes"/>
      <point x="73" y="7"/>
      <point x="80" y="0"/>
      <point x="95" y="0" type="curve" smooth="yes"/>
    </contour>
    <contour>
      <point x="229" y="339" type="line"/>
      <point x="186" y="339"/>
      <point x="171" y="356"/>
      <point x="171" y="397" type="curve" smooth="yes"/>
      <point x="171" y="474" type="line" smooth="yes"/>
      <point x="171" y="516"/>
      <point x="186" y="533"/>
      <point x="229" y="533" type="curve" smooth="yes"/>
      <point x="286" y="533" type="line" smooth="yes"/>
      <point x="329" y="533"/>
      <point x="345" y="516"/>
      <point x="345" y="474" type="curve" smooth="yes"/>
      <point x="345" y="339" type="line"/>
    </contour>
  </outline>
</glyph>
<glyph name="colon" format="1">
  <advance width="204"/>
  <unicode hex="003A"/>
  <outline>
    <contour>
      <point x="166" y="144" type="line"/>
      <point x="166" y="157"/>
      <point x="159" y="163"/>
      <point x="147" y="163" type="curve" smooth="yes"/>
      <point x="58" y="163" type="line" smooth="yes"/>
      <point x="44" y="163"/>
      <point x="38" y="157"/>
      <point x="38" y="143" type="curve" smooth="yes"/>
      <point x="38" y="22" type="line" smooth="yes"/>
      <point x="38" y="9"/>
      <point x="44" y="0"/>
      <point x="58" y="0" type="curve" smooth="yes"/>
      <point x="147" y="0" type="line" smooth="yes"/>
      <point x="160" y="0"/>
      <point x="166" y="7"/>
      <point x="166" y="21" type="curve" smooth="yes"/>
    </contour>
    <contour>
      <point x="166" y="491" type="line"/>
      <point x="166" y="505"/>
      <point x="159" y="510"/>
      <point x="147" y="510" type="curve" smooth="yes"/>
      <point x="58" y="510" type="line" smooth="yes"/>
      <point x="44" y="510"/>
      <point x="38" y="504"/>
      <point x="38" y="490" type="curve" smooth="yes"/>
      <point x="38" y="370" type="line" smooth="yes"/>
      <point x="38" y="356"/>
      <point x="44" y="347"/>
      <point x="58" y="347" type="curve" smooth="yes"/>
      <point x="147" y="347" type="line" smooth="yes"/>
      <point x="160" y="347"/>
      <point x="166" y="354"/>
      <point x="166" y="368" type="curve" smooth="yes"/>
    </contour>
  </outline>
</glyph>
<glyph name="semicolon" format="1">
  <advance width="204"/>
  <unicode hex="003B"/>
  <outline>
    <contour>
      <point x="166" y="491" type="line"/>
      <point x="166" y="505"/>
      <point x="159" y="510"/>
      <point x="147" y="510" type="curve" smooth="yes"/>
      <point x="58" y="510" type="line" smooth="yes"/>
      <point x="44" y="510"/>
      <point x="38" y="504"/>
      <point x="38" y="490" type="curve" smooth="yes"/>
      <point x="38" y="370" type="line" smooth="yes"/>
      <point x="38" y="356"/>
      <point x="44" y="347"/>
      <point x="58" y="347" type="curve" smooth="yes"/>
      <point x="147" y="347" type="line" smooth="yes"/>
      <point x="160" y="347"/>
      <point x="166" y="354"/>
      <point x="166" y="368" type="curve" smooth="yes"/>
    </contour>
    <contour>
      <point x="166" y="144" type="line"/>
      <point x="166" y="157"/>
      <point x="159" y="163"/>
      <point x="147" y="163" type="curve" smooth="yes"/>
      <point x="58" y="163" type="line" smooth="yes"/>
      <point x="44" y="163"/>
      <point x="38" y="157"/>
      <point x="38" y="143" type="curve" smooth="yes"/>
      <point x="38" y="-87" type="line" smooth="yes"/>
      <point x="38" y="-102"/>
      <point x="46" y="-107"/>
      <point x="55" y="-107" type="curve" smooth="yes"/>
      <point x="63" y="-107"/>
      <point x="70" y="-103"/>
      <point x="74" y="-97" type="curve" smooth="yes"/>
      <point x="143" y="4" type="line" smooth="yes"/>
      <point x="158" y="27"/>
      <point x="166" y="44"/>
      <point x="166" y="66" type="curve" smooth="yes"/>
    </contour>
  </outline>
</glyph>
<glyph name="less" format="1">
  <advance width="563"/>
  <unicode hex="003C"/>
  <outline>
    <contour>
      <point x="494" y="501" type="line"/>
      <point x="494" y="516"/>
      <point x="486" y="521"/>
      <point x="470" y="515" type="curve" smooth="yes"/>
      <point x="96" y="394" type="line" smooth="yes"/>
      <point x="77" y="388"/>
      <point x="69" y="376"/>
      <point x="69" y="354" type="curve" smooth="yes"/>
      <point x="69" y="300" type="line" smooth="yes"/>
      <point x="69" y="279"/>
      <point x="77" y="266"/>
      <point x="96" y="260" type="curve" smooth="yes"/>
      <point x="470" y="139" type="line" smooth="yes"/>
      <point x="486" y="134"/>
      <point x="494" y="139"/>
      <point x="494" y="154" type="curve" smooth="yes"/>
      <point x="494" y="219" type="line" smooth="yes"/>
      <point x="494" y="236"/>
      <point x="491" y="245"/>
      <point x="475" y="248" type="curve" smooth="yes"/>
      <point x="174" y="327" type="line"/>
      <point x="475" y="406" type="line" smooth="yes"/>
      <point x="491" y="410"/>
      <point x="494" y="419"/>
      <point x="494" y="435" type="curve" smooth="yes"/>
    </contour>
  </outline>
</glyph>
<glyph name="equal" format="1">
  <advance width="567"/>
  <unicode hex="003D"/>
  <outline>
    <contour>
      <point x="94" y="274" type="line"/>
      <point x="76" y="274"/>
      <point x="71" y="267"/>
      <point x="71" y="250" type="curve" smooth="yes"/>
      <point x="71" y="196" type="line" smooth="yes"/>
      <point x="71" y="179"/>
      <point x="76" y="172"/>
      <point x="94" y="172" type="curve" smooth="yes"/>
      <point x="473" y="172" type="line" smooth="yes"/>
      <point x="491" y="172"/>
      <point x="496" y="179"/>
      <point x="496" y="196" type="curve" smooth="yes"/>
      <point x="496" y="250" type="line" smooth="yes"/>
      <point x="496" y="267"/>
      <point x="491" y="274"/>
      <point x="473" y="274" type="curve" smooth="yes"/>
    </contour>
    <contour>
      <point x="94" y="471" type="line"/>
      <point x="76" y="471"/>
      <point x="71" y="464"/>
      <point x="71" y="447" type="curve" smooth="yes"/>
      <point x="71" y="393" type="line" smooth="yes"/>
      <point x="71" y="376"/>
      <point x="76" y="369"/>
      <point x="94" y="369" type="curve" smooth="yes"/>
      <point x="473" y="369" type="line" smooth="yes"/>
      <point x="491" y="369"/>
      <point x="496" y="376"/>
      <point x="496" y="393" type="curve" smooth="yes"/>
      <point x="496" y="447" type="line" smooth="yes"/>
      <point x="496" y="464"/>
      <point x="491" y="471"/>
      <point x="473" y="471" type="curve" smooth="yes"/>
    </contour>
  </outline>
</glyph>
<glyph name="question" format="1">
  <advance width="466"/>
  <unicode hex="003F"/>
  <outline>
    <contour>
      <point x="288" y="275" type="line"/>
      <point x="288" y="292"/>
      <point x="293" y="304"/>
      <point x="314" y="323" type="curve" smooth="yes"/>
      <point x="382" y="378" type="line" smooth="yes"/>
      <point x="410" y="402"/>
      <point x="427" y="433"/>
      <point x="427" y="466" type="curve" smooth="yes"/>
      <point x="427" y="480" type="line" smooth="yes"/>
      <point x="427" y="585"/>
      <point x="366" y="642"/>
      <point x="262" y="642" type="curve" smooth="yes"/>
      <point x="203" y="642" type="line" smooth="yes"/>
      <point x="98" y="642"/>
      <point x="38" y="585"/>
      <point x="38" y="480" type="curve" smooth="yes"/>
      <point x="38" y="457" type="line" smooth="yes"/>
      <point x="38" y="442"/>
      <point x="45" y="435"/>
      <point x="59" y="435" type="curve" smooth="yes"/>
      <point x="144" y="435" type="line" smooth="yes"/>
      <point x="158" y="435"/>
      <point x="165" y="442"/>
      <point x="165" y="457" type="curve" smooth="yes"/>
      <point x="165" y="478" type="line" smooth="yes"/>
      <point x="165" y="520"/>
      <point x="181" y="536"/>
      <point x="223" y="536" type="curve" smooth="yes"/>
      <point x="241" y="536" type="line" smooth="yes"/>
      <point x="284" y="536"/>
      <point x="303" y="520"/>
      <point x="303" y="478" type="curve" smooth="yes"/>
      <point x="303" y="472" type="line" smooth="yes"/>
      <point x="303" y="450"/>
      <point x="293" y="434"/>
      <point x="271" y="417" type="curve" smooth="yes"/>
      <point x="215" y="371" type="line" smooth="yes"/>
      <point x="181" y="344"/>
      <point x="167" y="321"/>
      <point x="167" y="276" type="curve" smooth="yes"/>
      <point x="167" y="249" type="line" smooth="yes"/>
      <point x="167" y="234"/>
      <point x="174" y="228"/>
      <point x="188" y="228" type="curve" smooth="yes"/>
      <point x="267" y="228" type="line" smooth="yes"/>
      <point x="281" y="228"/>
      <point x="288" y="234"/>
      <point x="288" y="249" type="curve" smooth="yes"/>
    </contour>
    <contour>
      <point x="289" y="144" type="line"/>
      <point x="289" y="157"/>
      <point x="282" y="163"/>
      <point x="270" y="163" type="curve" smooth="yes"/>
      <point x="181" y="163" type="line" smooth="yes"/>
      <point x="167" y="163"/>
      <point x="161" y="157"/>
      <point x="161" y="143" type="curve" smooth="yes"/>
      <point x="161" y="22" type="line" smooth="yes"/>
      <point x="161" y="9"/>
      <point x="167" y="0"/>
      <point x="181" y="0" type="curve" smooth="yes"/>
      <point x="270" y="0" type="line" smooth="yes"/>
      <point x="283" y="0"/>
      <point x="289" y="7"/>
      <point x="289" y="21" type="curve" smooth="yes"/>
    </contour>
  </outline>
</glyph>
<glyph name="at" format="1">
  <advance width="746"/>
  <unicode hex="0040"/>
  <outline>
    <contour>
      <point x="491" y="-58" type="line"/>
      <point x="507" y="-58"/>
      <point x="512" y="-51"/>
      <point x="512" y="-37" type="curve" smooth="yes"/>
      <point x="512" y="-7" type="line" smooth="yes"/>
      <point x="512" y="7"/>
      <point x="507" y="14"/>
      <point x="491" y="14" type="curve" smooth="yes"/>
      <point x="311" y="14" type="line" smooth="yes"/>
      <point x="202" y="14"/>
      <point x="129" y="78"/>
      <point x="129" y="192" type="curve" smooth="yes"/>
      <point x="129" y="353" type="line" smooth="yes"/>
      <point x="129" y="467"/>
      <point x="193" y="531"/>
      <point x="302" y="531" type="curve" smooth="yes"/>
      <point x="491" y="531" type="line" smooth="yes"/>
      <point x="564" y="531"/>
      <point x="625" y="493"/>
      <point x="625" y="414" type="curve" smooth="yes"/>
      <point x="625" y="224" type="line" smooth="yes"/>
      <point x="625" y="176"/>
      <point x="602" y="157"/>
      <point x="558" y="157" type="curve" smooth="yes"/>
      <point x="562" y="157" type="line" smooth="yes"/>
      <point x="554" y="157"/>
      <point x="542" y="160"/>
      <point x="542" y="169" type="curve" smooth="yes"/>
      <point x="542" y="439" type="line" smooth="yes"/>
      <point x="542" y="455"/>
      <point x="535" y="460"/>
      <point x="520" y="460" type="curve" smooth="yes"/>
      <point x="347" y="460" type="line" smooth="yes"/>
      <point x="260" y="460"/>
      <point x="199" y="402"/>
      <point x="199" y="297" type="curve" smooth="yes"/>
      <point x="199" y="238" type="line" smooth="yes"/>
      <point x="199" y="133"/>
      <point x="260" y="83"/>
      <point x="337" y="83" type="curve" smooth="yes"/>
      <point x="374" y="83"/>
      <point x="418" y="96"/>
      <point x="436" y="138" type="curve"/>
      <point x="440" y="138" type="line"/>
      <point x="440" y="136"/>
      <point x="440" y="135"/>
      <point x="440" y="134" type="curve" smooth="yes"/>
      <point x="440" y="98"/>
      <point x="473" y="83"/>
      <point x="506" y="83" type="curve" smooth="yes"/>
      <point x="564" y="83" type="line" smooth="yes"/>
      <point x="641" y="83"/>
      <point x="698" y="137"/>
      <point x="698" y="215" type="curve" smooth="yes"/>
      <point x="698" y="421" type="line" smooth="yes"/>
      <point x="698" y="525"/>
      <point x="616" y="603"/>
      <point x="499" y="603" type="curve" smooth="yes"/>
      <point x="294" y="603" type="line" smooth="yes"/>
      <point x="154" y="603"/>
      <point x="57" y="494"/>
      <point x="57" y="361" type="curve" smooth="yes"/>
      <point x="57" y="178" type="line" smooth="yes"/>
      <point x="57" y="36"/>
      <point x="164" y="-58"/>
      <point x="312" y="-58" type="curve" smooth="yes"/>
    </contour>
    <contour>
      <point x="440" y="253" type="line"/>
      <point x="440" y="209"/>
      <point x="426" y="177"/>
      <point x="371" y="177" type="curve" smooth="yes"/>
      <point x="370" y="177"/>
      <point x="369" y="177"/>
      <point x="368" y="177" type="curve"/>
      <point x="325" y="177"/>
      <point x="310" y="194"/>
      <point x="310" y="235" type="curve" smooth="yes"/>
      <point x="310" y="306" type="line" smooth="yes"/>
      <point x="310" y="348"/>
      <point x="325" y="365"/>
      <point x="368" y="365" type="curve" smooth="yes"/>
      <point x="428" y="365" type="line" smooth="yes"/>
      <point x="436" y="365"/>
      <point x="440" y="362"/>
      <point x="440" y="353" type="curve" smooth="yes"/>
    </contour>
  </outline>
</glyph>
<glyph name="A" format="1">
  <advance width="557"/>
  <unicode hex="0041"/>
  <outline>
    <contour>
      <point x="277" y="522" type="line"/>
      <point x="281" y="522" type="line"/>
      <point x="353" y="233" type="line"/>
      <point x="205" y="233" type="line"/>
    </contour>
    <contour>
      <point x="132" y="0" type="line"/>
      <point x="146" y="0"/>
      <point x="150" y="5"/>
      <point x="153" y="21" type="curve" smooth="yes"/>
      <point x="181" y="131" type="line"/>
      <point x="376" y="131" type="line"/>
      <point x="404" y="21" type="line" smooth="yes"/>
      <point x="406" y="5"/>
      <point x="411" y="0"/>
      <point x="425" y="0" type="curve" smooth="yes"/>
      <point x="521" y="0" type="line" smooth="yes"/>
      <point x="535" y="0"/>
      <point x="537" y="6"/>
      <point x="533" y="21" type="curve" smooth="yes"/>
      <point x="375" y="622" type="line" smooth="yes"/>
      <point x="371" y="638"/>
      <point x="361" y="643"/>
      <point x="345" y="643" type="curve" smooth="yes"/>
      <point x="212" y="643" type="line" smooth="yes"/>
      <point x="196" y="643"/>
      <point x="187" y="638"/>
      <point x="182" y="622" type="curve" smooth="yes"/>
      <point x="24" y="21" type="line" smooth="yes"/>
      <point x="20" y="6"/>
      <point x="22" y="0"/>
      <point x="36" y="0" type="curve" smooth="yes"/>
    </contour>
  </outline>
</glyph>
<glyph name="B" format="1">
  <advance width="555"/>
  <unicode hex="0042"/>
  <outline>
    <contour>
      <point x="65" y="21" type="line"/>
      <point x="65" y="5"/>
      <point x="72" y="0"/>
      <point x="86" y="0" type="curve" smooth="yes"/>
      <point x="336" y="0" type="line" smooth="yes"/>
      <point x="440" y="0"/>
      <point x="500" y="57"/>
      <point x="500" y="162" type="curve" smooth="yes"/>
      <point x="500" y="222" type="line" smooth="yes"/>
      <point x="500" y="290"/>
      <point x="462" y="323"/>
      <point x="412" y="330" type="curve"/>
      <point x="462" y="346"/>
      <point x="491" y="384"/>
      <point x="491" y="440" type="curve" smooth="yes"/>
      <point x="491" y="481" type="line" smooth="yes"/>
      <point x="491" y="586"/>
      <point x="431" y="643"/>
      <point x="326" y="643" type="curve" smooth="yes"/>
      <point x="86" y="643" type="line" smooth="yes"/>
      <point x="72" y="643"/>
      <point x="65" y="638"/>
      <point x="65" y="622" type="curve" smooth="yes"/>
    </contour>
    <contour>
      <point x="203" y="382" type="line"/>
      <point x="196" y="382"/>
      <point x="192" y="385"/>
      <point x="192" y="393" type="curve" smooth="yes"/>
      <point x="192" y="526" type="line" smooth="yes"/>
      <point x="192" y="534"/>
      <point x="196" y="537"/>
      <point x="203" y="537" type="curve" smooth="yes"/>
      <point x="306" y="537" type="line" smooth="yes"/>
      <point x="348" y="537"/>
      <point x="367" y="521"/>
      <point x="367" y="479" type="curve" smooth="yes"/>
      <point x="367" y="440" type="line" smooth="yes"/>
      <point x="367" y="399"/>
      <point x="348" y="382"/>
      <point x="305" y="382" type="curve" smooth="yes"/>
    </contour>
    <contour>
      <point x="203" y="106" type="line"/>
      <point x="196" y="106"/>
      <point x="192" y="109"/>
      <point x="192" y="117" type="curve" smooth="yes"/>
      <point x="192" y="268" type="line" smooth="yes"/>
      <point x="192" y="276"/>
      <point x="196" y="279"/>
      <point x="203" y="279" type="curve" smooth="yes"/>
      <point x="313" y="279" type="line" smooth="yes"/>
      <point x="358" y="279"/>
      <point x="377" y="263"/>
      <point x="377" y="222" type="curve" smooth="yes"/>
      <point x="377" y="164" type="line" smooth="yes"/>
      <point x="377" y="122"/>
      <point x="358" y="106"/>
      <point x="315" y="106" type="curve" smooth="yes"/>
    </contour>
  </outline>
</glyph>
<glyph name="G" format="1">
  <advance width="545"/>
  <unicode hex="0047"/>
  <outline>
    <contour>
      <point x="326" y="0" type="line"/>
      <point x="430" y="0"/>
      <point x="490" y="58"/>
      <point x="490" y="163" type="curve" smooth="yes"/>
      <point x="490" y="330" type="line" smooth="yes"/>
      <point x="490" y="346"/>
      <point x="482" y="353"/>
      <point x="467" y="353" type="curve" smooth="yes"/>
      <point x="292" y="353" type="line" smooth="yes"/>
      <point x="276" y="353"/>
      <point x="271" y="346"/>
      <point x="271" y="332" type="curve" smooth="yes"/>
      <point x="271" y="264" type="line" smooth="yes"/>
      <point x="271" y="250"/>
      <point x="276" y="243"/>
      <point x="292" y="243" type="curve" smooth="yes"/>
      <point x="352" y="243" type="line" smooth="yes"/>
      <point x="360" y="243"/>
      <point x="363" y="240"/>
      <point x="363" y="232" type="curve" smooth="yes"/>
      <point x="363" y="169" type="line" smooth="yes"/>
      <point x="363" y="127"/>
      <point x="348" y="110"/>
      <point x="305" y="110" type="curve" smooth="yes"/>
      <point x="240" y="110" type="line" smooth="yes"/>
      <point x="198" y="110"/>
      <point x="182" y="127"/>
      <point x="182" y="169" type="curve" smooth="yes"/>
      <point x="182" y="474" type="line" smooth="yes"/>
      <point x="182" y="516"/>
      <point x="198" y="533"/>
      <point x="240" y="533" type="curve" smooth="yes"/>
      <point x="305" y="533" type="line" smooth="yes"/>
      <point x="348" y="533"/>
      <point x="363" y="516"/>
      <point x="363" y="474" type="curve" smooth="yes"/>
      <point x="363" y="450" type="line" smooth="yes"/>
      <point x="363" y="434"/>
      <point x="370" y="428"/>
      <point x="384" y="428" type="curve" smooth="yes"/>
      <point x="469" y="428" type="line" smooth="yes"/>
      <point x="483" y="428"/>
      <point x="490" y="434"/>
      <point x="490" y="450" type="curve" smooth="yes"/>
      <point x="490" y="480" type="line" smooth="yes"/>
      <point x="490" y="585"/>
      <point x="430" y="643"/>
      <point x="326" y="643" type="curve" smooth="yes"/>
      <point x="220" y="643" type="line" smooth="yes"/>
      <point x="115" y="643"/>
      <point x="55" y="585"/>
      <point x="55" y="480" type="curve" smooth="yes"/>
      <point x="55" y="163" type="line" smooth="yes"/>
      <point x="55" y="58"/>
      <point x="115" y="0"/>
      <point x="220" y="0" type="curve" smooth="yes"/>
    </contour>
  </outline>
</glyph>
<glyph name="H" format="1">
  <advance width="576"/>
  <unicode hex="0048"/>
  <outline>
    <contour>
      <point x="171" y="0" type="line"/>
      <point x="185" y="0"/>
      <point x="192" y="5"/>
      <point x="192" y="21" type="curve" smooth="yes"/>
      <point x="192" y="255" type="line" smooth="yes"/>
      <point x="192" y="263"/>
      <point x="196" y="266"/>
      <point x="204" y="266" type="curve" smooth="yes"/>
      <point x="373" y="266" type="line" smooth="yes"/>
      <point x="380" y="266"/>
      <point x="384" y="263"/>
      <point x="384" y="255" type="curve" smooth="yes"/>
      <point x="384" y="21" type="line" smooth="yes"/>
      <point x="384" y="5"/>
      <point x="391" y="0"/>
      <point x="405" y="0" type="curve" smooth="yes"/>
      <point x="490" y="0" type="line" smooth="yes"/>
      <point x="504" y="0"/>
      <point x="511" y="5"/>
      <point x="511" y="21" type="curve" smooth="yes"/>
      <point x="511" y="622" type="line" smooth="yes"/>
      <point x="511" y="638"/>
      <point x="504" y="643"/>
      <point x="490" y="643" type="curve" smooth="yes"/>
      <point x="405" y="643" type="line" smooth="yes"/>
      <point x="391" y="643"/>
      <point x="384" y="638"/>
      <point x="384" y="622" type="curve" smooth="yes"/>
      <point x="384" y="387" type="line" smooth="yes"/>
      <point x="384" y="379"/>
      <point x="380" y="376"/>
      <point x="373" y="376" type="curve" smooth="yes"/>
      <point x="204" y="376" type="line" smooth="yes"/>
      <point x="196" y="376"/>
      <point x="192" y="379"/>
      <point x="192" y="387" type="curve" smooth="yes"/>
      <point x="192" y="622" type="line" smooth="yes"/>
      <point x="192" y="638"/>
      <point x="185" y="643"/>
      <point x="171" y="643" type="curve" smooth="yes"/>
      <point x="86" y="643" type="line" smooth="yes"/>
      <point x="72" y="643"/>
      <point x="65" y="638"/>
      <point x="65" y="622" type="curve" smooth="yes"/>
      <point x="65" y="21" type="line" smooth="yes"/>
      <point x="65" y="5"/>
      <point x="72" y="0"/>
      <point x="86" y="0" type="curve" smooth="yes"/>
    </contour>
  </outline>
</glyph>
<glyph name="I" format="1">
  <advance width="267"/>
  <unicode hex="0049"/>
  <outline>
    <contour>
      <point x="197" y="622" type="line"/>
      <point x="197" y="638"/>
      <point x="190" y="643"/>
      <point x="176" y="643" type="curve" smooth="yes"/>
      <point x="91" y="643" type="line" smooth="yes"/>
      <point x="77" y="643"/>
      <point x="70" y="638"/>
      <point x="70" y="622" type="curve" smooth="yes"/>
      <point x="70" y="21" type="line" smooth="yes"/>
      <point x="70" y="5"/>
      <point x="77" y="0"/>
      <point x="91" y="0" type="curve" smooth="yes"/>
      <point x="176" y="0" type="line" smooth="yes"/>
      <point x="190" y="0"/>
      <point x="197" y="5"/>
      <point x="197" y="21" type="curve" smooth="yes"/>
    </contour>
  </outline>
</glyph>
<glyph name="J" format="1">
  <advance width="521"/>
  <unicode hex="004A"/>
  <outline>
    <contour>
      <point x="356" y="643" type="line"/>
      <point x="341" y="643"/>
      <point x="334" y="638"/>
      <point x="334" y="622" type="curve" smooth="yes"/>
      <point x="334" y="169" type="line" smooth="yes"/>
      <point x="334" y="127"/>
      <point x="319" y="110"/>
      <point x="276" y="110" type="curve" smooth="yes"/>
      <point x="217" y="110" type="line" smooth="yes"/>
      <point x="175" y="110"/>
      <point x="159" y="127"/>
      <point x="159" y="169" type="curve" smooth="yes"/>
      <point x="159" y="173"/>
      <point x="159" y="252"/>
      <point x="159" y="257" type="curve" smooth="yes"/>
      <point x="159" y="272"/>
      <point x="152" y="278"/>
      <point x="138" y="278" type="curve" smooth="yes"/>
      <point x="53" y="278" type="line" smooth="yes"/>
      <point x="39" y="278"/>
      <point x="32" y="272"/>
      <point x="32" y="257" type="curve" smooth="yes"/>
      <point x="32" y="252"/>
      <point x="32" y="170"/>
      <point x="32" y="163" type="curve" smooth="yes"/>
      <point x="32" y="58"/>
      <point x="92" y="0"/>
      <point x="197" y="0" type="curve" smooth="yes"/>
      <point x="297" y="0" type="line" smooth="yes"/>
      <point x="401" y="0"/>
      <point x="461" y="58"/>
      <point x="461" y="163" type="curve" smooth="yes"/>
      <point x="461" y="623" type="line" smooth="yes"/>
      <point x="461" y="638"/>
      <point x="454" y="643"/>
      <point x="440" y="643" type="curve" smooth="yes"/>
    </contour>
  </outline>
</glyph>
<glyph name="M" format="1">
  <advance width="726"/>
  <unicode hex="004D"/>
  <outline>
    <contour>
      <point x="366" y="276" type="line"/>
      <point x="360" y="276" type="line"/>
      <point x="254" y="629" type="line" smooth="yes"/>
      <point x="251" y="638"/>
      <point x="246" y="643"/>
      <point x="235" y="643" type="curve" smooth="yes"/>
      <point x="86" y="643" type="line" smooth="yes"/>
      <point x="75" y="643"/>
      <point x="65" y="638"/>
      <point x="65" y="622" type="curve" smooth="yes"/>
      <point x="65" y="21" type="line" smooth="yes"/>
      <point x="65" y="4"/>
      <point x="75" y="0"/>
      <point x="86" y="0" type="curve" smooth="yes"/>
      <point x="168" y="0" type="line" smooth="yes"/>
      <point x="185" y="0"/>
      <point x="189" y="5"/>
      <point x="189" y="21" type="curve" smooth="yes"/>
      <point x="189" y="496" type="line"/>
      <point x="193" y="496" type="line"/>
      <point x="297" y="160" type="line" smooth="yes"/>
      <point x="301" y="146"/>
      <point x="307" y="140"/>
      <point x="322" y="140" type="curve" smooth="yes"/>
      <point x="406" y="140" type="line" smooth="yes"/>
      <point x="420" y="140"/>
      <point x="427" y="147"/>
      <point x="431" y="160" type="curve" smooth="yes"/>
      <point x="533" y="495" type="line"/>
      <point x="537" y="495" type="line"/>
      <point x="537" y="21" type="line" smooth="yes"/>
      <point x="537" y="5"/>
      <point x="544" y="0"/>
      <point x="558" y="0" type="curve" smooth="yes"/>
      <point x="640" y="0" type="line" smooth="yes"/>
      <point x="654" y="0"/>
      <point x="661" y="5"/>
      <point x="661" y="21" type="curve" smooth="yes"/>
      <point x="661" y="622" type="line" smooth="yes"/>
      <point x="661" y="638"/>
      <point x="654" y="643"/>
      <point x="640" y="643" type="curve" smooth="yes"/>
      <point x="492" y="643" type="line" smooth="yes"/>
      <point x="480" y="643"/>
      <point x="475" y="638"/>
      <point x="473" y="629" type="curve" smooth="yes"/>
    </contour>
  </outline>
</glyph>
<glyph name="N" format="1">
  <advance width="585"/>
  <unicode hex="004E"/>
  <outline>
    <contour>
      <point x="169" y="0" type="line"/>
      <point x="183" y="0"/>
      <point x="190" y="5"/>
      <point x="190" y="21" type="curve" smooth="yes"/>
      <point x="190" y="392" type="line"/>
      <point x="194" y="392" type="line"/>
      <point x="394" y="20" type="line" smooth="yes"/>
      <point x="395" y="19"/>
      <point x="404" y="0"/>
      <point x="426" y="0" type="curve" smooth="yes"/>
      <point x="499" y="0" type="line" smooth="yes"/>
      <point x="513" y="0"/>
      <point x="520" y="5"/>
      <point x="520" y="21" type="curve" smooth="yes"/>
      <point x="520" y="622" type="line" smooth="yes"/>
      <point x="520" y="638"/>
      <point x="513" y="643"/>
      <point x="499" y="643" type="curve" smooth="yes"/>
      <point x="416" y="643" type="line" smooth="yes"/>
      <point x="402" y="643"/>
      <point x="395" y="638"/>
      <point x="395" y="622" type="curve" smooth="yes"/>
      <point x="395" y="250" type="line"/>
      <point x="391" y="250" type="line"/>
      <point x="189" y="629" type="line" smooth="yes"/>
      <point x="188" y="631"/>
      <point x="181" y="643"/>
      <point x="161" y="643" type="curve" smooth="yes"/>
      <point x="86" y="643" type="line" smooth="yes"/>
      <point x="72" y="643"/>
      <point x="65" y="638"/>
      <point x="65" y="622" type="curve" smooth="yes"/>
      <point x="65" y="21" type="line" smooth="yes"/>
      <point x="65" y="5"/>
      <point x="72" y="0"/>
      <point x="86" y="0" type="curve" smooth="yes"/>
    </contour>
  </outline>
</glyph>
<glyph name="O" format="1">
  <advance width="552"/>
  <unicode hex="004F"/>
  <outline>
    <contour>
      <point x="332" y="0" type="line"/>
      <point x="437" y="0"/>
      <point x="497" y="58"/>
      <point x="497" y="163" type="curve" smooth="yes"/>
      <point x="497" y="480" type="line" smooth="yes"/>
      <point x="497" y="585"/>
      <point x="437" y="643"/>
      <point x="332" y="643" type="curve" smooth="yes"/>
      <point x="220" y="643" type="line" smooth="yes"/>
      <point x="115" y="643"/>
      <point x="55" y="585"/>
      <point x="55" y="480" type="curve" smooth="yes"/>
      <point x="55" y="163" type="line" smooth="yes"/>
      <point x="55" y="58"/>
      <point x="115" y="0"/>
      <point x="220" y="0" type="curve" smooth="yes"/>
    </contour>
    <contour>
      <point x="240" y="110" type="line"/>
      <point x="197" y="110"/>
      <point x="182" y="127"/>
      <point x="182" y="169" type="curve" smooth="yes"/>
      <point x="182" y="474" type="line" smooth="yes"/>
      <point x="182" y="516"/>
      <point x="197" y="533"/>
      <point x="240" y="533" type="curve" smooth="yes"/>
      <point x="311" y="533" type="line" smooth="yes"/>
      <point x="354" y="533"/>
      <point x="370" y="516"/>
      <point x="370" y="474" type="curve" smooth="yes"/>
      <point x="370" y="169" type="line" smooth="yes"/>
      <point x="370" y="127"/>
      <point x="354" y="110"/>
      <point x="311" y="110" type="curve" smooth="yes"/>
    </contour>
  </outline>
</glyph>
<glyph name="P" format="1">
  <advance width="530"/>
  <unicode hex="0050"/>
  <outline>
    <contour>
      <point x="203" y="332" type="line"/>
      <point x="196" y="332"/>
      <point x="192" y="335"/>
      <point x="192" y="343" type="curve" smooth="yes"/>
      <point x="192" y="522" type="line" smooth="yes"/>
      <point x="192" y="530"/>
      <point x="196" y="533"/>
      <point x="203" y="533" type="curve" smooth="yes"/>
      <point x="309" y="533" type="line" smooth="yes"/>
      <point x="352" y="533"/>
      <point x="367" y="516"/>
      <point x="367" y="474" type="curve" smooth="yes"/>
      <point x="367" y="390" type="line" smooth="yes"/>
      <point x="367" y="349"/>
      <point x="352" y="332"/>
      <point x="309" y="332" type="curve" smooth="yes"/>
    </contour>
    <contour>
      <point x="171" y="0" type="line"/>
      <point x="185" y="0"/>
      <point x="192" y="5"/>
      <point x="192" y="21" type="curve" smooth="yes"/>
      <point x="192" y="210" type="line" smooth="yes"/>
      <point x="192" y="218"/>
      <point x="196" y="221"/>
      <point x="204" y="221" type="curve" smooth="yes"/>
      <point x="330" y="221" type="line" smooth="yes"/>
      <point x="434" y="221"/>
      <point x="494" y="279"/>
      <point x="494" y="384" type="curve" smooth="yes"/>
      <point x="494" y="480" type="line" smooth="yes"/>
      <point x="494" y="585"/>
      <point x="434" y="643"/>
      <point x="330" y="643" type="curve" smooth="yes"/>
      <point x="86" y="643" type="line" smooth="yes"/>
      <point x="72" y="643"/>
      <point x="65" y="638"/>
      <point x="65" y="622" type="curve" smooth="yes"/>
      <point x="65" y="21" type="line" smooth="yes"/>
      <point x="65" y="5"/>
      <point x="72" y="0"/>
      <point x="86" y="0" type="curve" smooth="yes"/>
    </contour>
  </outline>
</glyph>
<glyph name="Q" format="1">
  <advance width="569"/>
  <unicode hex="0051"/>
  <outline>
    <contour>
      <point x="432" y="-133" type="line"/>
      <point x="446" y="-133"/>
      <point x="456" y="-123"/>
      <point x="448" y="-107" type="curve" smooth="yes"/>
      <point x="384" y="4" type="line"/>
      <point x="461" y="18"/>
      <point x="505" y="74"/>
      <point x="505" y="163" type="curve" smooth="yes"/>
      <point x="505" y="480" type="line" smooth="yes"/>
      <point x="505" y="585"/>
      <point x="445" y="643"/>
      <point x="340" y="643" type="curve" smooth="yes"/>
      <point x="228" y="643" type="line" smooth="yes"/>
      <point x="123" y="643"/>
      <point x="63" y="585"/>
      <point x="63" y="480" type="curve" smooth="yes"/>
      <point x="63" y="163" type="line" smooth="yes"/>
      <point x="63" y="58"/>
      <point x="123" y="0"/>
      <point x="228" y="0" type="curve" smooth="yes"/>
      <point x="255" y="0" type="line"/>
      <point x="320" y="-112" type="line" smooth="yes"/>
      <point x="328" y="-126"/>
      <point x="336" y="-133"/>
      <point x="359" y="-133" type="curve" smooth="yes"/>
    </contour>
    <contour>
      <point x="249" y="110" type="line"/>
      <point x="206" y="110"/>
      <point x="191" y="127"/>
      <point x="191" y="169" type="curve" smooth="yes"/>
      <point x="191" y="474" type="line" smooth="yes"/>
      <point x="191" y="516"/>
      <point x="206" y="533"/>
      <point x="249" y="533" type="curve" smooth="yes"/>
      <point x="320" y="533" type="line" smooth="yes"/>
      <point x="363" y="533"/>
      <point x="379" y="516"/>
      <point x="379" y="474" type="curve" smooth="yes"/>
      <point x="379" y="169" type="line" smooth="yes"/>
      <point x="379" y="127"/>
      <point x="363" y="110"/>
      <point x="320" y="110" type="curve" smooth="yes"/>
    </contour>
  </outline>
</glyph>
<glyph name="W" format="1">
  <advance width="807"/>
  <unicode hex="0057"/>
  <outline>
    <contour>
      <point x="287" y="0" type="line"/>
      <point x="299" y="0"/>
      <point x="308" y="6"/>
      <point x="311" y="21" type="curve" smooth="yes"/>
      <point x="402" y="490" type="line"/>
      <point x="406" y="490" type="line"/>
      <point x="496" y="21" type="line" smooth="yes"/>
      <point x="498" y="7"/>
      <point x="506" y="0"/>
      <point x="520" y="0" type="curve" smooth="yes"/>
      <point x="661" y="0" type="line" smooth="yes"/>
      <point x="675" y="0"/>
      <point x="682" y="7"/>
      <point x="684" y="21" type="curve" smooth="yes"/>
      <point x="792" y="621" type="line" smooth="yes"/>
      <point x="794" y="635"/>
      <point x="787" y="643"/>
      <point x="771" y="643" type="curve" smooth="yes"/>
      <point x="667" y="643" type="line" smooth="yes"/>
      <point x="653" y="643"/>
      <point x="644" y="636"/>
      <point x="643" y="621" type="curve" smooth="yes"/>
      <point x="586" y="129" type="line"/>
      <point x="578" y="129" type="line"/>
      <point x="480" y="626" type="line" smooth="yes"/>
      <point x="478" y="639"/>
      <point x="469" y="643"/>
      <point x="458" y="643" type="curve" smooth="yes"/>
      <point x="346" y="643" type="line" smooth="yes"/>
      <point x="337" y="643"/>
      <point x="327" y="639"/>
      <point x="325" y="625" type="curve" smooth="yes"/>
      <point x="229" y="129" type="line"/>
      <point x="222" y="129" type="line"/>
      <point x="164" y="622" type="line" smooth="yes"/>
      <point x="163" y="639"/>
      <point x="154" y="643"/>
      <point x="140" y="643" type="curve" smooth="yes"/>
      <point x="36" y="643" type="line" smooth="yes"/>
      <point x="21" y="643"/>
      <point x="13" y="636"/>
      <point x="15" y="622" type="curve" smooth="yes"/>
      <point x="122" y="21" type="line" smooth="yes"/>
      <point x="124" y="5"/>
      <point x="133" y="0"/>
      <point x="147" y="0" type="curve" smooth="yes"/>
    </contour>
  </outline>
</glyph>
<glyph name="Y" format="1">
  <advance width="517"/>
  <unicode hex="0059"/>
  <outline>
    <contour>
      <point x="301" y="0" type="line"/>
      <point x="315" y="0"/>
      <point x="322" y="5"/>
      <point x="322" y="21" type="curve" smooth="yes"/>
      <point x="322" y="235" type="line"/>
      <point x="505" y="621" type="line" smooth="yes"/>
      <point x="512" y="634"/>
      <point x="504" y="643"/>
      <point x="491" y="643" type="curve" smooth="yes"/>
      <point x="385" y="643" type="line" smooth="yes"/>
      <point x="372" y="643"/>
      <point x="366" y="637"/>
      <point x="361" y="622" type="curve" smooth="yes"/>
      <point x="263" y="379" type="line"/>
      <point x="256" y="379" type="line"/>
      <point x="156" y="622" type="line" smooth="yes"/>
      <point x="150" y="637"/>
      <point x="145" y="643"/>
      <point x="132" y="643" type="curve" smooth="yes"/>
      <point x="26" y="643" type="line" smooth="yes"/>
      <point x="15" y="643"/>
      <point x="6" y="634"/>
      <point x="12" y="621" type="curve" smooth="yes"/>
      <point x="195" y="235" type="line"/>
      <point x="195" y="21" type="line" smooth="yes"/>
      <point x="195" y="5"/>
      <point x="202" y="0"/>
      <point x="216" y="0" type="curve" smooth="yes"/>
    </contour>
  </outline>
</glyph>
<glyph name="asciicircum" format="1">
  <advance width="511"/>
  <unicode hex="005E"/>
  <outline>
    <contour>
      <point x="345" y="382" type="line"/>
      <point x="352" y="368"/>
      <point x="358" y="362"/>
      <point x="372" y="362" type="curve" smooth="yes"/>
      <point x="449" y="362" type="line" smooth="yes"/>
      <point x="463" y="362"/>
      <point x="472" y="368"/>
      <point x="464" y="383" type="curve" smooth="yes"/>
      <point x="344" y="612" type="line" smooth="yes"/>
      <point x="332" y="636"/>
      <point x="323" y="643"/>
      <point x="300" y="643" type="curve" smooth="yes"/>
      <point x="210" y="643" type="line" smooth="yes"/>
      <point x="187" y="643"/>
      <point x="178" y="636"/>
      <point x="166" y="612" type="curve" smooth="yes"/>
      <point x="46" y="383" type="line" smooth="yes"/>
      <point x="38" y="368"/>
      <point x="47" y="362"/>
      <point x="61" y="362" type="curve" smooth="yes"/>
      <point x="138" y="362" type="line" smooth="yes"/>
      <point x="152" y="362"/>
      <point x="158" y="368"/>
      <point x="165" y="382" type="curve"/>
      <point x="255" y="561" type="line"/>
    </contour>
  </outline>
</glyph>
<glyph name="underscore" format="1">
  <advance width="372"/>
  <unicode hex="005F"/>
  <outline>
    <contour>
      <point x="351" y="-112" type="line"/>
      <point x="367" y="-112"/>
      <point x="372" y="-105"/>
      <point x="372" y="-90" type="curve" smooth="yes"/>
      <point x="372" y="-64" type="line" smooth="yes"/>
      <point x="372" y="-50"/>
      <point x="367" y="-43"/>
      <point x="351" y="-43" type="curve" smooth="yes"/>
      <point x="21" y="-43" type="line" smooth="yes"/>
      <point x="5" y="-43"/>
      <point x="0" y="-50"/>
      <point x="0" y="-64" type="curve" smooth="yes"/>
      <point x="0" y="-90" type="line" smooth="yes"/>
      <point x="0" y="-105"/>
      <point x="5" y="-112"/>
      <point x="21" y="-112" type="curve" smooth="yes"/>
    </contour>
  </outline>
</glyph>
<glyph name="grave" format="1">
  <advance width="298"/>
  <unicode hex="0060"/>
  <outline>
    <contour>
      <point x="197" y="684" type="line"/>
      <point x="189" y="698"/>
      <point x="179" y="703"/>
      <point x="167" y="703" type="curve" smooth="yes"/>
      <point x="68" y="703" type="line" smooth="yes"/>
      <point x="54" y="703"/>
      <point x="49" y="694"/>
      <point x="58" y="683" type="curve" smooth="yes"/>
      <point x="139" y="587" type="line" smooth="yes"/>
      <point x="146" y="579"/>
      <point x="156" y="574"/>
      <point x="166" y="574" type="curve" smooth="yes"/>
      <point x="231" y="574" type="line" smooth="yes"/>
      <point x="244" y="574"/>
      <point x="249" y="580"/>
      <point x="241" y="595" type="curve" smooth="yes"/>
    </contour>
  </outline>
</glyph>
<glyph name="b" format="1">
  <advance width="526"/>
  <unicode hex="0062"/>
  <outline>
    <contour>
      <point x="55" y="21" type="line"/>
      <point x="55" y="5"/>
      <point x="62" y="0"/>
      <point x="76" y="0" type="curve" smooth="yes"/>
      <point x="316" y="0" type="line" smooth="yes"/>
      <point x="421" y="0"/>
      <point x="481" y="58"/>
      <point x="481" y="163" type="curve" smooth="yes"/>
      <point x="481" y="349" type="line" smooth="yes"/>
      <point x="481" y="454"/>
      <point x="421" y="512"/>
      <point x="316" y="512" type="curve" smooth="yes"/>
      <point x="284" y="512" type="line" smooth="yes"/>
      <point x="247" y="512"/>
      <point x="202" y="496"/>
      <point x="186" y="457" type="curve"/>
      <point x="182" y="457" type="line"/>
      <point x="182" y="682" type="line" smooth="yes"/>
      <point x="182" y="698"/>
      <point x="175" y="703"/>
      <point x="161" y="703" type="curve" smooth="yes"/>
      <point x="76" y="703" type="line" smooth="yes"/>
      <point x="62" y="703"/>
      <point x="55" y="698"/>
      <point x="55" y="682" type="curve" smooth="yes"/>
    </contour>
    <contour>
      <point x="193" y="110" type="line"/>
      <point x="186" y="110"/>
      <point x="182" y="113"/>
      <point x="182" y="121" type="curve" smooth="yes"/>
      <point x="182" y="326" type="line" smooth="yes"/>
      <point x="182" y="369"/>
      <point x="196" y="402"/>
      <point x="251" y="402" type="curve" smooth="yes"/>
      <point x="295" y="402" type="line" smooth="yes"/>
      <point x="338" y="402"/>
      <point x="354" y="385"/>
      <point x="354" y="343" type="curve" smooth="yes"/>
      <point x="354" y="169" type="line" smooth="yes"/>
      <point x="354" y="127"/>
      <point x="338" y="110"/>
      <point x="295" y="110" type="curve" smooth="yes"/>
    </contour>
  </outline>
</glyph>
<glyph name="e" format="1">
  <advance width="494"/>
  <unicode hex="0065"/>
  <outline>
    <contour>
      <point x="182" y="284" type="line"/>
      <point x="175" y="284"/>
      <point x="171" y="287"/>
      <point x="171" y="295" type="curve" smooth="yes"/>
      <point x="171" y="343" type="line" smooth="yes"/>
      <point x="171" y="385"/>
      <point x="186" y="401"/>
      <point x="229" y="401" type="curve" smooth="yes"/>
      <point x="271" y="401" type="line" smooth="yes"/>
      <point x="314" y="401"/>
      <point x="329" y="385"/>
      <point x="329" y="343" type="curve" smooth="yes"/>
      <point x="329" y="295" type="line" smooth="yes"/>
      <point x="329" y="287"/>
      <point x="326" y="284"/>
      <point x="318" y="284" type="curve" smooth="yes"/>
    </contour>
    <contour>
      <point x="431" y="0" type="line"/>
      <point x="447" y="0"/>
      <point x="452" y="5"/>
      <point x="452" y="20" type="curve" smooth="yes"/>
      <point x="452" y="86" type="line" smooth="yes"/>
      <point x="452" y="101"/>
      <point x="447" y="108"/>
      <point x="431" y="108" type="curve" smooth="yes"/>
      <point x="229" y="108" type="line" smooth="yes"/>
      <point x="186" y="108"/>
      <point x="170" y="125"/>
      <point x="170" y="166" type="curve" smooth="yes"/>
      <point x="170" y="188" type="line" smooth="yes"/>
      <point x="170" y="196"/>
      <point x="174" y="199"/>
      <point x="182" y="199" type="curve" smooth="yes"/>
      <point x="433" y="199" type="line" smooth="yes"/>
      <point x="447" y="199"/>
      <point x="454" y="204"/>
      <point x="454" y="220" type="curve" smooth="yes"/>
      <point x="454" y="347" type="line" smooth="yes"/>
      <point x="454" y="452"/>
      <point x="394" y="510"/>
      <point x="289" y="510" type="curve" smooth="yes"/>
      <point x="210" y="510" type="line" smooth="yes"/>
      <point x="105" y="510"/>
      <point x="45" y="452"/>
      <point x="45" y="347" type="curve" smooth="yes"/>
      <point x="45" y="163" type="line" smooth="yes"/>
      <point x="45" y="58"/>
      <point x="105" y="0"/>
      <point x="210" y="0" type="curve" smooth="yes"/>
    </contour>
  </outline>
</glyph>
<glyph name="f" format="1">
  <advance width="354"/>
  <unicode hex="0066"/>
  <outline>
    <contour>
      <point x="240" y="510" type="line"/>
      <point x="232" y="510"/>
      <point x="229" y="513"/>
      <point x="229" y="521" type="curve" smooth="yes"/>
      <point x="229" y="534" type="line" smooth="yes"/>
      <point x="229" y="576"/>
      <point x="241" y="593"/>
      <point x="284" y="593" type="curve" smooth="yes"/>
      <point x="321" y="593" type="line" smooth="yes"/>
      <point x="336" y="593"/>
      <point x="341" y="600"/>
      <point x="341" y="614" type="curve" smooth="yes"/>
      <point x="341" y="683" type="line" smooth="yes"/>
      <point x="341" y="698"/>
      <point x="337" y="703"/>
      <point x="321" y="703" type="curve" smooth="yes"/>
      <point x="264" y="703" type="line" smooth="yes"/>
      <point x="159" y="703"/>
      <point x="102" y="645"/>
      <point x="102" y="540" type="curve" smooth="yes"/>
      <point x="102" y="521" type="line" smooth="yes"/>
      <point x="102" y="513"/>
      <point x="98" y="510"/>
      <point x="90" y="510" type="curve" smooth="yes"/>
      <point x="44" y="510" type="line" smooth="yes"/>
      <point x="27" y="510"/>
      <point x="23" y="505"/>
      <point x="23" y="490" type="curve" smooth="yes"/>
      <point x="23" y="421" type="line" smooth="yes"/>
      <point x="23" y="407"/>
      <point x="28" y="400"/>
      <point x="44" y="400" type="curve" smooth="yes"/>
      <point x="90" y="400" type="line" smooth="yes"/>
      <point x="98" y="400"/>
      <point x="102" y="397"/>
      <point x="102" y="389" type="curve" smooth="yes"/>
      <point x="102" y="21" type="line" smooth="yes"/>
      <point x="102" y="5"/>
      <point x="109" y="0"/>
      <point x="123" y="0" type="curve" smooth="yes"/>
      <point x="207" y="0" type="line" smooth="yes"/>
      <point x="221" y="0"/>
      <point x="229" y="5"/>
      <point x="229" y="21" type="curve" smooth="yes"/>
      <point x="229" y="389" type="line" smooth="yes"/>
      <point x="229" y="397"/>
      <point x="232" y="400"/>
      <point x="240" y="400" type="curve" smooth="yes"/>
      <point x="320" y="400" type="line" smooth="yes"/>
      <point x="335" y="400"/>
      <point x="341" y="407"/>
      <point x="341" y="421" type="curve" smooth="yes"/>
      <point x="341" y="490" type="line" smooth="yes"/>
      <point x="341" y="505"/>
      <point x="336" y="510"/>
      <point x="320" y="510" type="curve" smooth="yes"/>
    </contour>
  </outline>
</glyph>
<glyph name="g" format="1">
  <advance width="519"/>
  <unicode hex="0067"/>
  <outline>
    <contour>
      <point x="337" y="209" type="line"/>
      <point x="337" y="166"/>
      <point x="323" y="134"/>
      <point x="268" y="134" type="curve" smooth="yes"/>
      <point x="231" y="134" type="line" smooth="yes"/>
      <point x="188" y="134"/>
      <point x="173" y="150"/>
      <point x="173" y="192" type="curve" smooth="yes"/>
      <point x="173" y="341" type="line" smooth="yes"/>
      <point x="173" y="383"/>
      <point x="188" y="400"/>
      <point x="231" y="400" type="curve" smooth="yes"/>
      <point x="325" y="400" type="line" smooth="yes"/>
      <point x="333" y="400"/>
      <point x="337" y="397"/>
      <point x="337" y="389" type="curve" smooth="yes"/>
    </contour>
    <contour>
      <point x="235" y="23" type="line"/>
      <point x="272" y="23"/>
      <point x="317" y="39"/>
      <point x="333" y="78" type="curve"/>
      <point x="337" y="78" type="line"/>
      <point x="337" y="2" type="line" smooth="yes"/>
      <point x="337" y="-39"/>
      <point x="321" y="-56"/>
      <point x="278" y="-56" type="curve" smooth="yes"/>
      <point x="107" y="-56" type="line" smooth="yes"/>
      <point x="91" y="-56"/>
      <point x="86" y="-63"/>
      <point x="86" y="-77" type="curve" smooth="yes"/>
      <point x="86" y="-146" type="line" smooth="yes"/>
      <point x="86" y="-161"/>
      <point x="91" y="-166"/>
      <point x="107" y="-166" type="curve" smooth="yes"/>
      <point x="299" y="-166" type="line" smooth="yes"/>
      <point x="403" y="-166"/>
      <point x="464" y="-108"/>
      <point x="464" y="-4" type="curve" smooth="yes"/>
      <point x="464" y="489" type="line" smooth="yes"/>
      <point x="464" y="505"/>
      <point x="457" y="510"/>
      <point x="442" y="510" type="curve" smooth="yes"/>
      <point x="211" y="510" type="line" smooth="yes"/>
      <point x="106" y="510"/>
      <point x="46" y="452"/>
      <point x="46" y="347" type="curve" smooth="yes"/>
      <point x="46" y="186" type="line" smooth="yes"/>
      <point x="46" y="81"/>
      <point x="98" y="23"/>
      <point x="202" y="23" type="curve" smooth="yes"/>
    </contour>
  </outline>
</glyph>
<glyph name="j" format="1">
  <advance width="247"/>
  <unicode hex="006A"/>
  <outline>
    <contour>
      <point x="21" y="-166" type="line"/>
      <point x="125" y="-166"/>
      <point x="187" y="-107"/>
      <point x="187" y="-2" type="curve" smooth="yes"/>
      <point x="187" y="489" type="line" smooth="yes"/>
      <point x="187" y="505"/>
      <point x="180" y="510"/>
      <point x="166" y="510" type="curve" smooth="yes"/>
      <point x="81" y="510" type="line" smooth="yes"/>
      <point x="67" y="510"/>
      <point x="60" y="505"/>
      <point x="60" y="489" type="curve" smooth="yes"/>
      <point x="60" y="21" type="line" smooth="yes"/>
      <point x="60" y="-39"/>
      <point x="42" y="-56"/>
      <point x="-18" y="-56" type="curve" smooth="yes"/>
      <point x="-46" y="-56" type="line" smooth="yes"/>
      <point x="-61" y="-56"/>
      <point x="-67" y="-63"/>
      <point x="-67" y="-77" type="curve" smooth="yes"/>
      <point x="-67" y="-145" type="line" smooth="yes"/>
      <point x="-67" y="-159"/>
      <point x="-61" y="-166"/>
      <point x="-46" y="-166" type="curve" smooth="yes"/>
    </contour>
    <contour>
      <point x="60" y="596" type="line"/>
      <point x="60" y="583"/>
      <point x="66" y="576"/>
      <point x="80" y="576" type="curve" smooth="yes"/>
      <point x="167" y="576" type="line" smooth="yes"/>
      <point x="181" y="576"/>
      <point x="187" y="583"/>
      <point x="187" y="596" type="curve" smooth="yes"/>
      <point x="187" y="684" type="line" smooth="yes"/>
      <point x="187" y="697"/>
      <point x="180" y="703"/>
      <point x="167" y="703" type="curve" smooth="yes"/>
      <point x="80" y="703" type="line" smooth="yes"/>
      <point x="66" y="703"/>
      <point x="60" y="697"/>
      <point x="60" y="683" type="curve" smooth="yes"/>
    </contour>
  </outline>
</glyph>
<glyph name="l" format="1">
  <advance width="247"/>
  <unicode hex="006C"/>
  <outline>
    <contour>
      <point x="166" y="0" type="line"/>
      <point x="180" y="0"/>
      <point x="187" y="5"/>
      <point x="187" y="21" type="curve" smooth="yes"/>
      <point x="187" y="682" type="line" smooth="yes"/>
      <point x="187" y="698"/>
      <point x="180" y="703"/>
      <point x="166" y="703" type="curve" smooth="yes"/>
      <point x="81" y="703" type="line" smooth="yes"/>
      <point x="67" y="703"/>
      <point x="60" y="698"/>
      <point x="60" y="682" type="curve" smooth="yes"/>
      <point x="60" y="21" type="line" smooth="yes"/>
      <point x="60" y="5"/>
      <point x="67" y="0"/>
      <point x="81" y="0" type="curve" smooth="yes"/>
    </contour>
  </outline>
</glyph>
<glyph name="m" format="1">
  <advance width="798"/>
  <unicode hex="006D"/>
  <outline>
    <contour>
      <point x="161" y="0" type="line"/>
      <point x="175" y="0"/>
      <point x="182" y="5"/>
      <point x="182" y="21" type="curve" smooth="yes"/>
      <point x="182" y="324" type="line" smooth="yes"/>
      <point x="182" y="367"/>
      <point x="196" y="400"/>
      <point x="251" y="400" type="curve" smooth="yes"/>
      <point x="282" y="400" type="line" smooth="yes"/>
      <point x="325" y="400"/>
      <point x="341" y="383"/>
      <point x="341" y="341" type="curve" smooth="yes"/>
      <point x="341" y="21" type="line" smooth="yes"/>
      <point x="341" y="5"/>
      <point x="348" y="0"/>
      <point x="362" y="0" type="curve" smooth="yes"/>
      <point x="446" y="0" type="line" smooth="yes"/>
      <point x="460" y="0"/>
      <point x="468" y="5"/>
      <point x="468" y="21" type="curve" smooth="yes"/>
      <point x="468" y="323" type="line" smooth="yes"/>
      <point x="468" y="366"/>
      <point x="481" y="400"/>
      <point x="537" y="400" type="curve" smooth="yes"/>
      <point x="562" y="400" type="line" smooth="yes"/>
      <point x="605" y="400"/>
      <point x="620" y="383"/>
      <point x="620" y="341" type="curve" smooth="yes"/>
      <point x="620" y="21" type="line" smooth="yes"/>
      <point x="620" y="5"/>
      <point x="627" y="0"/>
      <point x="641" y="0" type="curve" smooth="yes"/>
      <point x="726" y="0" type="line" smooth="yes"/>
      <point x="740" y="0"/>
      <point x="747" y="5"/>
      <point x="747" y="21" type="curve" smooth="yes"/>
      <point x="747" y="347" type="line" smooth="yes"/>
      <point x="747" y="452"/>
      <point x="695" y="510"/>
      <point x="591" y="510" type="curve" smooth="yes"/>
      <point x="562" y="510" type="line" smooth="yes"/>
      <point x="512" y="510"/>
      <point x="467" y="488"/>
      <point x="445" y="446" type="curve"/>
      <point x="420" y="488"/>
      <point x="383" y="510"/>
      <point x="320" y="510" type="curve" smooth="yes"/>
      <point x="292" y="510" type="line" smooth="yes"/>
      <point x="242" y="510"/>
      <point x="202" y="487"/>
      <point x="186" y="456" type="curve"/>
      <point x="182" y="456" type="line"/>
      <point x="182" y="489" type="line" smooth="yes"/>
      <point x="182" y="505"/>
      <point x="175" y="510"/>
      <point x="161" y="510" type="curve" smooth="yes"/>
      <point x="76" y="510" type="line" smooth="yes"/>
      <point x="62" y="510"/>
      <point x="55" y="505"/>
      <point x="55" y="489" type="curve" smooth="yes"/>
      <point x="55" y="21" type="line" smooth="yes"/>
      <point x="55" y="5"/>
      <point x="62" y="0"/>
      <point x="76" y="0" type="curve" smooth="yes"/>
    </contour>
  </outline>
</glyph>
<glyph name="o" format="1">
  <advance width="509"/>
  <unicode hex="006F"/>
  <outline>
    <contour>
      <point x="229" y="109" type="line"/>
      <point x="186" y="109"/>
      <point x="171" y="125"/>
      <point x="171" y="167" type="curve" smooth="yes"/>
      <point x="171" y="343" type="line" smooth="yes"/>
      <point x="171" y="385"/>
      <point x="186" y="401"/>
      <point x="229" y="401" type="curve" smooth="yes"/>
      <point x="280" y="401" type="line" smooth="yes"/>
      <point x="323" y="401"/>
      <point x="339" y="385"/>
      <point x="339" y="343" type="curve" smooth="yes"/>
      <point x="339" y="167" type="line" smooth="yes"/>
      <point x="339" y="125"/>
      <point x="323" y="109"/>
      <point x="280" y="109" type="curve" smooth="yes"/>
    </contour>
    <contour>
      <point x="299" y="0" type="line"/>
      <point x="403" y="0"/>
      <point x="464" y="58"/>
      <point x="464" y="163" type="curve" smooth="yes"/>
      <point x="464" y="347" type="line" smooth="yes"/>
      <point x="464" y="452"/>
      <point x="403" y="510"/>
      <point x="299" y="510" type="curve" smooth="yes"/>
      <point x="210" y="510" type="line" smooth="yes"/>
      <point x="105" y="510"/>
      <point x="45" y="452"/>
      <point x="45" y="347" type="curve" smooth="yes"/>
      <point x="45" y="163" type="line" smooth="yes"/>
      <point x="45" y="58"/>
      <point x="105" y="0"/>
      <point x="210" y="0" type="curve" smooth="yes"/>
    </contour>
  </outline>
</glyph>
<glyph name="p" format="1">
  <advance width="526"/>
  <unicode hex="0070"/>
  <outline>
    <contour>
      <point x="251" y="110" type="line"/>
      <point x="196" y="110"/>
      <point x="182" y="143"/>
      <point x="182" y="186" type="curve" smooth="yes"/>
      <point x="182" y="324" type="line" smooth="yes"/>
      <point x="182" y="367"/>
      <point x="196" y="400"/>
      <point x="251" y="400" type="curve" smooth="yes"/>
      <point x="295" y="400" type="line" smooth="yes"/>
      <point x="338" y="400"/>
      <point x="354" y="383"/>
      <point x="354" y="341" type="curve" smooth="yes"/>
      <point x="354" y="169" type="line" smooth="yes"/>
      <point x="354" y="127"/>
      <point x="338" y="110"/>
      <point x="295" y="110" type="curve" smooth="yes"/>
    </contour>
    <contour>
      <point x="161" y="-136" type="line"/>
      <point x="175" y="-136"/>
      <point x="182" y="-131"/>
      <point x="182" y="-116" type="curve" smooth="yes"/>
      <point x="182" y="54" type="line"/>
      <point x="186" y="54" type="line"/>
      <point x="202" y="15"/>
      <point x="247" y="0"/>
      <point x="284" y="0" type="curve" smooth="yes"/>
      <point x="325" y="0" type="line" smooth="yes"/>
      <point x="429" y="0"/>
      <point x="481" y="58"/>
      <point x="481" y="163" type="curve" smooth="yes"/>
      <point x="481" y="347" type="line" smooth="yes"/>
      <point x="481" y="452"/>
      <point x="429" y="510"/>
      <point x="325" y="510" type="curve" smooth="yes"/>
      <point x="284" y="510" type="line" smooth="yes"/>
      <point x="247" y="510"/>
      <point x="202" y="495"/>
      <point x="186" y="456" type="curve"/>
      <point x="182" y="456" type="line"/>
      <point x="182" y="489" type="line" smooth="yes"/>
      <point x="182" y="505"/>
      <point x="175" y="510"/>
      <point x="161" y="510" type="curve" smooth="yes"/>
      <point x="76" y="510" type="line" smooth="yes"/>
      <point x="62" y="510"/>
      <point x="55" y="505"/>
      <point x="55" y="489" type="curve" smooth="yes"/>
      <point x="55" y="-116" type="line" smooth="yes"/>
      <point x="55" y="-131"/>
      <point x="62" y="-136"/>
      <point x="76" y="-136" type="curve" smooth="yes"/>
    </contour>
  </outline>
</glyph>
<glyph name="q" format="1">
  <advance width="518"/>
  <unicode hex="0071"/>
  <outline>
    <contour>
      <point x="233" y="0" type="line"/>
      <point x="266" y="0"/>
      <point x="313" y="11"/>
      <point x="332" y="55" type="curve"/>
      <point x="336" y="55" type="line"/>
      <point x="336" y="-116" type="line" smooth="yes"/>
      <point x="336" y="-131"/>
      <point x="343" y="-136"/>
      <point x="357" y="-136" type="curve" smooth="yes"/>
      <point x="441" y="-136" type="line" smooth="yes"/>
      <point x="456" y="-136"/>
      <point x="463" y="-131"/>
      <point x="463" y="-116" type="curve" smooth="yes"/>
      <point x="463" y="489" type="line" smooth="yes"/>
      <point x="463" y="505"/>
      <point x="456" y="510"/>
      <point x="441" y="510" type="curve" smooth="yes"/>
      <point x="210" y="510" type="line" smooth="yes"/>
      <point x="105" y="510"/>
      <point x="45" y="452"/>
      <point x="45" y="347" type="curve" smooth="yes"/>
      <point x="45" y="163" type="line" smooth="yes"/>
      <point x="45" y="58"/>
      <point x="105" y="0"/>
      <point x="210" y="0" type="curve" smooth="yes"/>
    </contour>
    <contour>
      <point x="336" y="187" type="line"/>
      <point x="336" y="144"/>
      <point x="322" y="110"/>
      <point x="266" y="110" type="curve" smooth="yes"/>
      <point x="230" y="110" type="line" smooth="yes"/>
      <point x="187" y="110"/>
      <point x="172" y="127"/>
      <point x="172" y="169" type="curve" smooth="yes"/>
      <point x="172" y="341" type="line" smooth="yes"/>
      <point x="172" y="383"/>
      <point x="187" y="400"/>
      <point x="230" y="400" type="curve" smooth="yes"/>
      <point x="324" y="400" type="line" smooth="yes"/>
      <point x="332" y="400"/>
      <point x="336" y="397"/>
      <point x="336" y="389" type="curve" smooth="yes"/>
    </contour>
  </outline>
</glyph>
<glyph name="r" format="1">
  <advance width="349"/>
  <unicode hex="0072"/>
  <outline>
    <contour>
      <point x="161" y="0" type="line"/>
      <point x="175" y="0"/>
      <point x="182" y="5"/>
      <point x="182" y="21" type="curve" smooth="yes"/>
      <point x="182" y="322" type="line" smooth="yes"/>
      <point x="182" y="366"/>
      <point x="196" y="400"/>
      <point x="251" y="400" type="curve" smooth="yes"/>
      <point x="320" y="400" type="line" smooth="yes"/>
      <point x="335" y="398"/>
      <point x="340" y="405"/>
      <point x="340" y="420" type="curve" smooth="yes"/>
      <point x="340" y="489" type="line" smooth="yes"/>
      <point x="340" y="503"/>
      <point x="335" y="510"/>
      <point x="320" y="510" type="curve" smooth="yes"/>
      <point x="284" y="510" type="line" smooth="yes"/>
      <point x="247" y="510"/>
      <point x="201" y="493"/>
      <point x="186" y="455" type="curve"/>
      <point x="182" y="455" type="line"/>
      <point x="182" y="489" type="line" smooth="yes"/>
      <point x="182" y="505"/>
      <point x="175" y="510"/>
      <point x="161" y="510" type="curve" smooth="yes"/>
      <point x="76" y="510" type="line" smooth="yes"/>
      <point x="62" y="510"/>
      <point x="55" y="505"/>
      <point x="55" y="489" type="curve" smooth="yes"/>
      <point x="55" y="21" type="line" smooth="yes"/>
      <point x="55" y="5"/>
      <point x="62" y="0"/>
      <point x="76" y="0" type="curve" smooth="yes"/>
    </contour>
  </outline>
</glyph>
<glyph name="s" format="1">
  <advance width="438"/>
  <unicode hex="0073"/>
  <outline>
    <contour>
      <point x="248" y="0" type="line"/>
      <point x="356" y="0"/>
      <point x="405" y="50"/>
      <point x="405" y="134" type="curve" smooth="yes"/>
      <point x="405" y="199"/>
      <point x="380" y="232"/>
      <point x="311" y="269" type="curve"/>
      <point x="210" y="329" type="line" smooth="yes"/>
      <point x="188" y="341"/>
      <point x="167" y="354"/>
      <point x="167" y="374" type="curve" smooth="yes"/>
      <point x="167" y="379" type="line" smooth="yes"/>
      <point x="167" y="395"/>
      <point x="185" y="404"/>
      <point x="216" y="404" type="curve" smooth="yes"/>
      <point x="355" y="404" type="line" smooth="yes"/>
      <point x="371" y="404"/>
      <point x="375" y="409"/>
      <point x="375" y="424" type="curve" smooth="yes"/>
      <point x="375" y="489" type="line" smooth="yes"/>
      <point x="375" y="503"/>
      <point x="370" y="510"/>
      <point x="355" y="510" type="curve" smooth="yes"/>
      <point x="188" y="510" type="line" smooth="yes"/>
      <point x="83" y="510"/>
      <point x="35" y="468"/>
      <point x="35" y="374" type="curve" smooth="yes"/>
      <point x="35" y="308"/>
      <point x="70" y="274"/>
      <point x="134" y="241" type="curve" smooth="yes"/>
      <point x="233" y="186" type="line" smooth="yes"/>
      <point x="257" y="173"/>
      <point x="274" y="158"/>
      <point x="274" y="140" type="curve" smooth="yes"/>
      <point x="274" y="135" type="line" smooth="yes"/>
      <point x="274" y="114"/>
      <point x="255" y="105"/>
      <point x="225" y="105" type="curve" smooth="yes"/>
      <point x="58" y="105" type="line" smooth="yes"/>
      <point x="42" y="105"/>
      <point x="38" y="100"/>
      <point x="38" y="85" type="curve" smooth="yes"/>
      <point x="38" y="21" type="line" smooth="yes"/>
      <point x="38" y="7"/>
      <point x="43" y="0"/>
      <point x="58" y="0" type="curve" smooth="yes"/>
    </contour>
  </outline>
</glyph>
<glyph name="y" format="1">
  <advance width="471"/>
  <unicode hex="0079"/>
  <outline>
    <contour>
      <point x="138" y="-169" type="line"/>
      <point x="248" y="-169"/>
      <point x="303" y="-106"/>
      <point x="331" y="0" type="curve"/>
      <point x="453" y="488" type="line" smooth="yes"/>
      <point x="456" y="502"/>
      <point x="448" y="510"/>
      <point x="433" y="510" type="curve" smooth="yes"/>
      <point x="349" y="510" type="line" smooth="yes"/>
      <point x="336" y="510"/>
      <point x="327" y="504"/>
      <point x="324" y="489" type="curve" smooth="yes"/>
      <point x="239" y="120" type="line"/>
      <point x="235" y="120" type="line"/>
      <point x="149" y="489" type="line" smooth="yes"/>
      <point x="145" y="505"/>
      <point x="137" y="510"/>
      <point x="124" y="510" type="curve" smooth="yes"/>
      <point x="35" y="510" type="line" smooth="yes"/>
      <point x="21" y="510"/>
      <point x="16" y="503"/>
      <point x="20" y="489" type="curve" smooth="yes"/>
      <point x="137" y="48" type="line" smooth="yes"/>
      <point x="141" y="34"/>
      <point x="147" y="27"/>
      <point x="162" y="27" type="curve" smooth="yes"/>
      <point x="215" y="27" type="line"/>
      <point x="200" y="-36"/>
      <point x="183" y="-58"/>
      <point x="95" y="-58" type="curve" smooth="yes"/>
      <point x="74" y="-58" type="line" smooth="yes"/>
      <point x="59" y="-58"/>
      <point x="54" y="-66"/>
      <point x="54" y="-80" type="curve" smooth="yes"/>
      <point x="54" y="-147" type="line" smooth="yes"/>
      <point x="54" y="-161"/>
      <point x="59" y="-169"/>
      <point x="74" y="-169" type="curve" smooth="yes"/>
    </contour>
  </outline>
</glyph>
<glyph name="z" format="1">
  <advance width="449"/>
  <unicode hex="007A"/>
  <outline>
    <contour>
      <point x="31" y="21" type="line"/>
      <point x="31" y="7"/>
      <point x="36" y="0"/>
      <point x="52" y="0" type="curve" smooth="yes"/>
      <point x="398" y="0" type="line" smooth="yes"/>
      <point x="413" y="0"/>
      <point x="419" y="7"/>
      <point x="419" y="21" type="curve" smooth="yes"/>
      <point x="419" y="87" type="line" smooth="yes"/>
      <point x="419" y="101"/>
      <point x="413" y="109"/>
      <point x="398" y="109" type="curve" smooth="yes"/>
      <point x="196" y="109" type="line"/>
      <point x="196" y="113" type="line"/>
      <point x="392" y="377" type="line" smooth="yes"/>
      <point x="401" y="388"/>
      <point x="408" y="396"/>
      <point x="408" y="429" type="curve" smooth="yes"/>
      <point x="408" y="489" type="line" smooth="yes"/>
      <point x="408" y="503"/>
      <point x="402" y="510"/>
      <point x="387" y="510" type="curve" smooth="yes"/>
      <point x="61" y="510" type="line" smooth="yes"/>
      <point x="46" y="510"/>
      <point x="40" y="503"/>
      <point x="40" y="489" type="curve" smooth="yes"/>
      <point x="40" y="423" type="line" smooth="yes"/>
      <point x="40" y="409"/>
      <point x="46" y="401"/>
      <point x="61" y="401" type="curve" smooth="yes"/>
      <point x="262" y="401" type="line"/>
      <point x="262" y="397" type="line"/>
      <point x="50" y="112" type="line" smooth="yes"/>
      <point x="39" y="98"/>
      <point x="31" y="87"/>
      <point x="31" y="54" type="curve" smooth="yes"/>
    </contour>
  </outline>
</glyph>
<glyph name="braceleft" format="1">
  <advance width="315"/>
  <unicode hex="007B"/>
  <outline>
    <contour>
      <point x="235" y="643" type="line"/>
      <point x="133" y="643"/>
      <point x="86" y="585"/>
      <point x="86" y="480" type="curve" smooth="yes"/>
      <point x="86" y="379" type="line" smooth="yes"/>
      <point x="86" y="339"/>
      <point x="71" y="326"/>
      <point x="44" y="326" type="curve" smooth="yes"/>
      <point x="28" y="326"/>
      <point x="23" y="318"/>
      <point x="23" y="304" type="curve" smooth="yes"/>
      <point x="23" y="237" type="line" smooth="yes"/>
      <point x="23" y="222"/>
      <point x="28" y="215"/>
      <point x="44" y="215" type="curve" smooth="yes"/>
      <point x="71" y="215"/>
      <point x="86" y="202"/>
      <point x="86" y="162" type="curve" smooth="yes"/>
      <point x="86" y="61" type="line" smooth="yes"/>
      <point x="86" y="-44"/>
      <point x="133" y="-102"/>
      <point x="235" y="-102" type="curve" smooth="yes"/>
      <point x="243" y="-102" type="line" smooth="yes"/>
      <point x="258" y="-102"/>
      <point x="263" y="-95"/>
      <point x="263" y="-81" type="curve" smooth="yes"/>
      <point x="263" y="-34" type="line" smooth="yes"/>
      <point x="263" y="-20"/>
      <point x="258" y="-13"/>
      <point x="243" y="-13" type="curve" smooth="yes"/>
      <point x="240" y="-13" type="line" smooth="yes"/>
      <point x="198" y="-13"/>
      <point x="186" y="4"/>
      <point x="186" y="46" type="curve" smooth="yes"/>
      <point x="186" y="172" type="line" smooth="yes"/>
      <point x="186" y="225"/>
      <point x="168" y="258"/>
      <point x="124" y="270" type="curve"/>
      <point x="171" y="285"/>
      <point x="186" y="316"/>
      <point x="186" y="369" type="curve" smooth="yes"/>
      <point x="186" y="495" type="line" smooth="yes"/>
      <point x="186" y="537"/>
      <point x="198" y="554"/>
      <point x="240" y="554" type="curve" smooth="yes"/>
      <point x="243" y="554" type="line" smooth="yes"/>
      <point x="258" y="554"/>
      <point x="263" y="561"/>
      <point x="263" y="575" type="curve" smooth="yes"/>
      <point x="263" y="622" type="line" smooth="yes"/>
      <point x="263" y="636"/>
      <point x="258" y="643"/>
      <point x="243" y="643" type="curve" smooth="yes"/>
    </contour>
  </outline>
</glyph>
<glyph name="bar" format="1">
  <advance width="231"/>
  <unicode hex="007C"/>
  <outline>
    <contour>
      <point x="159" y="622" type="line"/>
      <point x="159" y="638"/>
      <point x="151" y="643"/>
      <point x="137" y="643" type="curve" smooth="yes"/>
      <point x="94" y="643" type="line" smooth="yes"/>
      <point x="80" y="643"/>
      <point x="73" y="638"/>
      <point x="73" y="622" type="curve" smooth="yes"/>
      <point x="73" y="21" type="line" smooth="yes"/>
      <point x="73" y="5"/>
      <point x="80" y="0"/>
      <point x="94" y="0" type="curve" smooth="yes"/>
      <point x="137" y="0" type="line" smooth="yes"/>
      <point x="151" y="0"/>
      <point x="159" y="5"/>
      <point x="159" y="21" type="curve" smooth="yes"/>
    </contour>
  </outline>
</glyph>
<glyph name="asciitilde" format="1">
  <advance width="565"/>
  <unicode hex="007E"/>
  <outline>
    <contour>
      <point x="178" y="289" type="curve" smooth="yes"/>
      <point x="243" y="289"/>
      <point x="311" y="258"/>
      <point x="384" y="258" type="curve" smooth="yes"/>
      <point x="419" y="258"/>
      <point x="447" y="264"/>
      <point x="467" y="273" type="curve" smooth="yes"/>
      <point x="487" y="281"/>
      <point x="495" y="290"/>
      <point x="495" y="310" type="curve" smooth="yes"/>
      <point x="495" y="369" type="line" smooth="yes"/>
      <point x="495" y="377"/>
      <point x="489" y="382"/>
      <point x="481" y="382" type="curve" smooth="yes"/>
      <point x="463" y="382"/>
      <point x="435" y="352"/>
      <point x="387" y="352" type="curve" smooth="yes"/>
      <point x="308" y="352"/>
      <point x="248" y="384"/>
      <point x="181" y="384" type="curve" smooth="yes"/>
      <point x="146" y="384"/>
      <point x="118" y="377"/>
      <point x="98" y="369" type="curve" smooth="yes"/>
      <point x="78" y="360"/>
      <point x="70" y="352"/>
      <point x="70" y="331" type="curve" smooth="yes"/>
      <point x="70" y="273" type="line" smooth="yes"/>
      <point x="70" y="265"/>
      <point x="76" y="259"/>
      <point x="84" y="259" type="curve" smooth="yes"/>
      <point x="102" y="259"/>
      <point x="130" y="289"/>
    </contour>
  </outline>
</glyph>
<glyph name="exclamdown" format="1">
  <advance width="238"/>
  <unicode hex="00A1"/>
  <outline>
    <contour>
      <point x="90" y="415" type="line"/>
      <point x="76" y="415"/>
      <point x="70" y="410"/>
      <point x="67" y="394" type="curve" smooth="yes"/>
      <point x="67" y="390"/>
      <point x="50" y="258"/>
      <point x="50" y="176" type="curve" smooth="yes"/>
      <point x="50" y="21" type="line" smooth="yes"/>
      <point x="50" y="5"/>
      <point x="57" y="0"/>
      <point x="71" y="0" type="curve" smooth="yes"/>
      <point x="166" y="0" type="line" smooth="yes"/>
      <point x="180" y="0"/>
      <point x="187" y="5"/>
      <point x="187" y="21" type="curve" smooth="yes"/>
      <point x="187" y="176" type="line" smooth="yes"/>
      <point x="187" y="258"/>
      <point x="170" y="390"/>
      <point x="170" y="394" type="curve" smooth="yes"/>
      <point x="167" y="410"/>
      <point x="161" y="415"/>
      <point x="147" y="415" type="curve" smooth="yes"/>
    </contour>
    <contour>
      <point x="164" y="480" type="line"/>
      <point x="176" y="480"/>
      <point x="184" y="486"/>
      <point x="184" y="499" type="curve" smooth="yes"/>
      <point x="184" y="622" type="line" smooth="yes"/>
      <point x="184" y="636"/>
      <point x="177" y="643"/>
      <point x="164" y="643" type="curve" smooth="yes"/>
      <point x="76" y="643" type="line" smooth="yes"/>
      <point x="62" y="643"/>
      <point x="56" y="634"/>
      <point x="56" y="621" type="curve" smooth="yes"/>
      <point x="56" y="500" type="line" smooth="yes"/>
      <point x="56" y="486"/>
      <point x="62" y="480"/>
      <point x="76" y="480" type="curve" smooth="yes"/>
    </contour>
  </outline>
</glyph>
<glyph name="sterling" format="1">
  <advance width="557"/>
  <unicode hex="00A3"/>
  <outline>
    <contour>
      <point x="170" y="103" type="line"/>
      <point x="170" y="104"/>
      <point x="170" y="106"/>
      <point x="170" y="107" type="curve"/>
      <point x="195" y="107"/>
      <point x="215" y="140"/>
      <point x="215" y="184" type="curve" smooth="yes"/>
      <point x="215" y="249" type="line"/>
      <point x="325" y="249" type="line" smooth="yes"/>
      <point x="341" y="249"/>
      <point x="346" y="256"/>
      <point x="346" y="271" type="curve" smooth="yes"/>
      <point x="346" y="331" type="line" smooth="yes"/>
      <point x="346" y="345"/>
      <point x="341" y="352"/>
      <point x="325" y="352" type="curve" smooth="yes"/>
      <point x="215" y="352" type="line"/>
      <point x="215" y="479" type="line" smooth="yes"/>
      <point x="215" y="521"/>
      <point x="234" y="537"/>
      <point x="277" y="537" type="curve" smooth="yes"/>
      <point x="300" y="537" type="line" smooth="yes"/>
      <point x="343" y="537"/>
      <point x="359" y="521"/>
      <point x="359" y="479" type="curve" smooth="yes"/>
      <point x="359" y="456" type="line" smooth="yes"/>
      <point x="359" y="441"/>
      <point x="366" y="435"/>
      <point x="380" y="435" type="curve" smooth="yes"/>
      <point x="464" y="435" type="line" smooth="yes"/>
      <point x="478" y="435"/>
      <point x="486" y="441"/>
      <point x="486" y="456" type="curve" smooth="yes"/>
      <point x="486" y="481" type="line" smooth="yes"/>
      <point x="486" y="586"/>
      <point x="425" y="643"/>
      <point x="321" y="643" type="curve" smooth="yes"/>
      <point x="256" y="643" type="line" smooth="yes"/>
      <point x="152" y="643"/>
      <point x="91" y="586"/>
      <point x="91" y="481" type="curve" smooth="yes"/>
      <point x="91" y="352" type="line"/>
      <point x="44" y="352" type="line" smooth="yes"/>
      <point x="28" y="352"/>
      <point x="23" y="345"/>
      <point x="23" y="331" type="curve" smooth="yes"/>
      <point x="23" y="271" type="line" smooth="yes"/>
      <point x="23" y="256"/>
      <point x="28" y="249"/>
      <point x="44" y="249" type="curve" smooth="yes"/>
      <point x="91" y="249" type="line"/>
      <point x="91" y="167" type="line" smooth="yes"/>
      <point x="91" y="126"/>
      <point x="76" y="103"/>
      <point x="51" y="103" type="curve" smooth="yes"/>
      <point x="44" y="103" type="line" smooth="yes"/>
      <point x="28" y="103"/>
      <point x="23" y="96"/>
      <point x="23" y="81" type="curve" smooth="yes"/>
      <point x="23" y="21" type="line" smooth="yes"/>
      <point x="23" y="7"/>
      <point x="28" y="0"/>
      <point x="44" y="0" type="curve" smooth="yes"/>
      <point x="474" y="0" type="line" smooth="yes"/>
      <point x="489" y="0"/>
      <point x="494" y="7"/>
      <point x="494" y="21" type="curve" smooth="yes"/>
      <point x="494" y="81" type="line" smooth="yes"/>
      <point x="494" y="96"/>
      <point x="489" y="103"/>
      <point x="474" y="103" type="curve" smooth="yes"/>
    </contour>
  </outline>
</glyph>
<glyph name="currency" format="1">
  <advance width="539"/>
  <unicode hex="00A4"/>
  <outline>
    <contour>
      <point x="254" y="209" type="line"/>
      <point x="211" y="209"/>
      <point x="196" y="225"/>
      <point x="196" y="267" type="curve" smooth="yes"/>
      <point x="196" y="323" type="line" smooth="yes"/>
      <point x="196" y="365"/>
      <point x="211" y="381"/>
      <point x="254" y="381" type="curve" smooth="yes"/>
      <point x="285" y="381" type="line" smooth="yes"/>
      <point x="328" y="381"/>
      <point x="344" y="365"/>
      <point x="344" y="323" type="curve" smooth="yes"/>
      <point x="344" y="267" type="line" smooth="yes"/>
      <point x="344" y="225"/>
      <point x="328" y="209"/>
      <point x="285" y="209" type="curve" smooth="yes"/>
    </contour>
    <contour>
      <point x="304" y="100" type="line"/>
      <point x="408" y="100"/>
      <point x="469" y="158"/>
      <point x="469" y="263" type="curve" smooth="yes"/>
      <point x="469" y="337" type="line" smooth="yes"/>
      <point x="469" y="442"/>
      <point x="408" y="490"/>
      <point x="304" y="490" type="curve" smooth="yes"/>
      <point x="235" y="490" type="line" smooth="yes"/>
      <point x="130" y="490"/>
      <point x="70" y="442"/>
      <point x="70" y="337" type="curve" smooth="yes"/>
      <point x="70" y="263" type="line" smooth="yes"/>
      <point x="70" y="158"/>
      <point x="130" y="100"/>
      <point x="235" y="100" type="curve" smooth="yes"/>
    </contour>
    <contour>
      <point x="316" y="165" type="line"/>
      <point x="440" y="48" type="line" smooth="yes"/>
      <point x="453" y="36"/>
      <point x="462" y="37"/>
      <point x="473" y="49" type="curve" smooth="yes"/>
      <point x="515" y="91" type="line" smooth="yes"/>
      <point x="527" y="103"/>
      <point x="528" y="112"/>
      <point x="515" y="124" type="curve" smooth="yes"/>
      <point x="393" y="240" type="line"/>
    </contour>
    <contour>
      <point x="224" y="433" type="line"/>
      <point x="101" y="549" type="line" smooth="yes"/>
      <point x="89" y="562"/>
      <point x="80" y="561"/>
      <point x="68" y="549" type="curve" smooth="yes"/>
      <point x="26" y="506" type="line" smooth="yes"/>
      <point x="14" y="495"/>
      <point x="13" y="486"/>
      <point x="25" y="473" type="curve" smooth="yes"/>
      <point x="158" y="348" type="line"/>
    </contour>
    <contour>
      <point x="383" y="348" type="line"/>
      <point x="516" y="473" type="line" smooth="yes"/>
      <point x="528" y="486"/>
      <point x="527" y="495"/>
      <point x="515" y="506" type="curve" smooth="yes"/>
      <point x="473" y="549" type="line" smooth="yes"/>
      <point x="461" y="561"/>
      <point x="452" y="562"/>
      <point x="440" y="549" type="curve" smooth="yes"/>
      <point x="317" y="433" type="line"/>
    </contour>
    <contour>
      <point x="148" y="240" type="line"/>
      <point x="26" y="124" type="line" smooth="yes"/>
      <point x="13" y="112"/>
      <point x="14" y="103"/>
      <point x="26" y="91" type="curve" smooth="yes"/>
      <point x="68" y="49" type="line" smooth="yes"/>
      <point x="79" y="37"/>
      <point x="88" y="36"/>
      <point x="101" y="48" type="curve" smooth="yes"/>
      <point x="225" y="165" type="line"/>
    </contour>
  </outline>
</glyph>
<glyph name="yen" format="1">
  <advance width="543"/>
  <unicode hex="00A5"/>
  <outline>
    <contour>
      <point x="314" y="0" type="line"/>
      <point x="328" y="0"/>
      <point x="335" y="5"/>
      <point x="335" y="21" type="curve" smooth="yes"/>
      <point x="335" y="153" type="line"/>
      <point x="473" y="153" type="line" smooth="yes"/>
      <point x="491" y="153"/>
      <point x="496" y="160"/>
      <point x="496" y="176" type="curve" smooth="yes"/>
      <point x="496" y="214" type="line" smooth="yes"/>
      <point x="496" y="231"/>
      <point x="491" y="238"/>
      <point x="473" y="238" type="curve" smooth="yes"/>
      <point x="340" y="238" type="line"/>
      <point x="340" y="245" type="line"/>
      <point x="367" y="303" type="line"/>
      <point x="473" y="303" type="line" smooth="yes"/>
      <point x="491" y="303"/>
      <point x="496" y="310"/>
      <point x="496" y="326" type="curve" smooth="yes"/>
      <point x="496" y="364" type="line" smooth="yes"/>
      <point x="496" y="381"/>
      <point x="491" y="388"/>
      <point x="473" y="388" type="curve" smooth="yes"/>
      <point x="408" y="388" type="line"/>
      <point x="519" y="622" type="line" smooth="yes"/>
      <point x="525" y="636"/>
      <point x="521" y="643"/>
      <point x="506" y="643" type="curve" smooth="yes"/>
      <point x="399" y="643" type="line" smooth="yes"/>
      <point x="385" y="643"/>
      <point x="383" y="637"/>
      <point x="377" y="622" type="curve" smooth="yes"/>
      <point x="273" y="366" type="line"/>
      <point x="269" y="366" type="line"/>
      <point x="166" y="622" type="line" smooth="yes"/>
      <point x="160" y="637"/>
      <point x="158" y="643"/>
      <point x="145" y="643" type="curve" smooth="yes"/>
      <point x="37" y="643" type="line" smooth="yes"/>
      <point x="23" y="643"/>
      <point x="18" y="636"/>
      <point x="24" y="622" type="curve" smooth="yes"/>
      <point x="136" y="388" type="line"/>
      <point x="69" y="388" type="line" smooth="yes"/>
      <point x="52" y="388"/>
      <point x="46" y="381"/>
      <point x="46" y="364" type="curve" smooth="yes"/>
      <point x="46" y="326" type="line" smooth="yes"/>
      <point x="46" y="310"/>
      <point x="52" y="303"/>
      <point x="69" y="303" type="curve" smooth="yes"/>
      <point x="176" y="303" type="line"/>
      <point x="203" y="245" type="line"/>
      <point x="203" y="238" type="line"/>
      <point x="69" y="238" type="line" smooth="yes"/>
      <point x="52" y="238"/>
      <point x="46" y="231"/>
      <point x="46" y="214" type="curve" smooth="yes"/>
      <point x="46" y="176" type="line" smooth="yes"/>
      <point x="46" y="160"/>
      <point x="52" y="153"/>
      <point x="69" y="153" type="curve" smooth="yes"/>
      <point x="208" y="153" type="line"/>
      <point x="208" y="21" type="line" smooth="yes"/>
      <point x="208" y="5"/>
      <point x="215" y="0"/>
      <point x="229" y="0" type="curve" smooth="yes"/>
    </contour>
  </outline>
</glyph>
<glyph name="brokenbar" format="1">
  <advance width="230"/>
  <unicode hex="00A6"/>
  <outline>
    <contour>
      <point x="158" y="251" type="line"/>
      <point x="158" y="267"/>
      <point x="151" y="272"/>
      <point x="137" y="272" type="curve" smooth="yes"/>
      <point x="93" y="272" type="line" smooth="yes"/>
      <point x="79" y="272"/>
      <point x="72" y="267"/>
      <point x="72" y="251" type="curve" smooth="yes"/>
      <point x="72" y="21" type="line" smooth="yes"/>
      <point x="72" y="5"/>
      <point x="79" y="0"/>
      <point x="93" y="0" type="curve" smooth="yes"/>
      <point x="137" y="0" type="line" smooth="yes"/>
      <point x="151" y="0"/>
      <point x="158" y="5"/>
      <point x="158" y="21" type="curve" smooth="yes"/>
    </contour>
    <contour>
      <point x="158" y="622" type="line"/>
      <point x="158" y="638"/>
      <point x="151" y="643"/>
      <point x="137" y="643" type="curve" smooth="yes"/>
      <point x="93" y="643" type="line" smooth="yes"/>
      <point x="79" y="643"/>
      <point x="72" y="638"/>
      <point x="72" y="622" type="curve" smooth="yes"/>
      <point x="72" y="392" type="line" smooth="yes"/>
      <point x="72" y="376"/>
      <point x="79" y="371"/>
      <point x="93" y="371" type="curve" smooth="yes"/>
      <point x="137" y="371" type="line" smooth="yes"/>
      <point x="151" y="371"/>
      <point x="158" y="376"/>
      <point x="158" y="392" type="curve" smooth="yes"/>
    </contour>
  </outline>
</glyph>
<glyph name="section" format="1">
  <advance width="490"/>
  <unicode hex="00A7"/>
  <outline>
    <contour>
      <point x="312" y="301" type="line"/>
      <point x="312" y="323"/>
      <point x="299" y="340"/>
      <point x="268" y="349" type="curve" smooth="yes"/>
      <point x="226" y="360" type="line"/>
      <point x="209" y="365"/>
      <point x="193" y="370"/>
      <point x="177" y="376" type="curve"/>
      <point x="177" y="344" type="line" smooth="yes"/>
      <point x="177" y="322"/>
      <point x="190" y="302"/>
      <point x="223" y="293" type="curve" smooth="yes"/>
      <point x="263" y="283" type="line" smooth="yes"/>
      <point x="281" y="279"/>
      <point x="297" y="274"/>
      <point x="312" y="268" type="curve"/>
    </contour>
    <contour>
      <point x="98" y="0" type="line"/>
      <point x="83" y="0"/>
      <point x="77" y="7"/>
      <point x="77" y="21" type="curve" smooth="yes"/>
      <point x="77" y="90" type="line" smooth="yes"/>
      <point x="77" y="105"/>
      <point x="83" y="110"/>
      <point x="98" y="110" type="curve" smooth="yes"/>
      <point x="255" y="110" type="line" smooth="yes"/>
      <point x="292" y="110"/>
      <point x="302" y="123"/>
      <point x="302" y="143" type="curve" smooth="yes"/>
      <point x="302" y="165"/>
      <point x="287" y="174"/>
      <point x="241" y="185" type="curve" smooth="yes"/>
      <point x="155" y="204" type="line"/>
      <point x="88" y="219"/>
      <point x="60" y="268"/>
      <point x="60" y="335" type="curve" smooth="yes"/>
      <point x="60" y="508" type="line" smooth="yes"/>
      <point x="60" y="592"/>
      <point x="115" y="643"/>
      <point x="223" y="643" type="curve" smooth="yes"/>
      <point x="387" y="643" type="line" smooth="yes"/>
      <point x="402" y="643"/>
      <point x="407" y="636"/>
      <point x="407" y="622" type="curve" smooth="yes"/>
      <point x="407" y="553" type="line" smooth="yes"/>
      <point x="407" y="538"/>
      <point x="402" y="533"/>
      <point x="387" y="533" type="curve" smooth="yes"/>
      <point x="227" y="533" type="line" smooth="yes"/>
      <point x="202" y="533"/>
      <point x="187" y="525"/>
      <point x="187" y="502" type="curve" smooth="yes"/>
      <point x="187" y="483"/>
      <point x="199" y="470"/>
      <point x="249" y="459" type="curve" smooth="yes"/>
      <point x="335" y="440" type="line" smooth="yes"/>
      <point x="402" y="424"/>
      <point x="430" y="377"/>
      <point x="430" y="310" type="curve" smooth="yes"/>
      <point x="430" y="137" type="line" smooth="yes"/>
      <point x="430" y="51"/>
      <point x="374" y="0"/>
      <point x="265" y="0" type="curve" smooth="yes"/>
    </contour>
  </outline>
</glyph>
<glyph name="dieresis" format="1">
  <advance width="416"/>
  <unicode hex="00A8"/>
  <outline>
    <contour>
      <point x="243" y="595" type="line"/>
      <point x="243" y="581"/>
      <point x="249" y="574"/>
      <point x="263" y="574" type="curve" smooth="yes"/>
      <point x="342" y="574" type="line" smooth="yes"/>
      <point x="355" y="574"/>
      <point x="362" y="581"/>
      <point x="362" y="595" type="curve" smooth="yes"/>
      <point x="362" y="684" type="line" smooth="yes"/>
      <point x="362" y="698"/>
      <point x="355" y="703"/>
      <point x="342" y="703" type="curve" smooth="yes"/>
      <point x="263" y="703" type="line" smooth="yes"/>
      <point x="249" y="703"/>
      <point x="243" y="697"/>
      <point x="243" y="683" type="curve" smooth="yes"/>
    </contour>
    <contour>
      <point x="53" y="595" type="line"/>
      <point x="53" y="581"/>
      <point x="59" y="574"/>
      <point x="73" y="574" type="curve" smooth="yes"/>
      <point x="152" y="574" type="line" smooth="yes"/>
      <point x="165" y="574"/>
      <point x="172" y="581"/>
      <point x="172" y="595" type="curve" smooth="yes"/>
      <point x="172" y="684" type="line" smooth="yes"/>
      <point x="172" y="698"/>
      <point x="165" y="703"/>
      <point x="152" y="703" type="curve" smooth="yes"/>
      <point x="73" y="703" type="line" smooth="yes"/>
      <point x="59" y="703"/>
      <point x="53" y="697"/>
      <point x="53" y="683" type="curve" smooth="yes"/>
    </contour>
  </outline>
</glyph>
<glyph name="softhyphen" format="1">
  <advance width="312"/>
  <unicode hex="00AD"/>
  <outline>
    <contour>
      <point x="251" y="268" type="line"/>
      <point x="267" y="268"/>
      <point x="272" y="275"/>
      <point x="272" y="289" type="curve" smooth="yes"/>
      <point x="272" y="348" type="line" smooth="yes"/>
      <point x="272" y="363"/>
      <point x="267" y="370"/>
      <point x="251" y="370" type="curve" smooth="yes"/>
      <point x="61" y="370" type="line" smooth="yes"/>
      <point x="45" y="370"/>
      <point x="40" y="363"/>
      <point x="40" y="348" type="curve" smooth="yes"/>
      <point x="40" y="289" type="line" smooth="yes"/>
      <point x="40" y="275"/>
      <point x="45" y="268"/>
      <point x="61" y="268" type="curve" smooth="yes"/>
    </contour>
  </outline>
</glyph>
<glyph name="registered" format="1">
  <advance width="475"/>
  <unicode hex="00AE"/>
  <outline>
    <contour>
      <point x="315" y="368" type="line"/>
      <point x="376" y="368"/>
      <point x="413" y="404"/>
      <point x="413" y="462" type="curve" smooth="yes"/>
      <point x="413" y="631" type="line" smooth="yes"/>
      <point x="413" y="689"/>
      <point x="376" y="725"/>
      <point x="315" y="725" type="curve" smooth="yes"/>
      <point x="160" y="725" type="line" smooth="yes"/>
      <point x="100" y="725"/>
      <point x="62" y="689"/>
      <point x="62" y="631" type="curve" smooth="yes"/>
      <point x="62" y="462" type="line" smooth="yes"/>
      <point x="62" y="404"/>
      <point x="100" y="368"/>
      <point x="160" y="368" type="curve" smooth="yes"/>
    </contour>
    <contour>
      <point x="172" y="416" type="line"/>
      <point x="130" y="416"/>
      <point x="114" y="432"/>
      <point x="114" y="474" type="curve" smooth="yes"/>
      <point x="114" y="619" type="line" smooth="yes"/>
      <point x="114" y="661"/>
      <point x="130" y="677"/>
      <point x="172" y="677" type="curve" smooth="yes"/>
      <point x="303" y="677" type="line" smooth="yes"/>
      <point x="345" y="677"/>
      <point x="361" y="661"/>
      <point x="361" y="619" type="curve" smooth="yes"/>
      <point x="361" y="474" type="line" smooth="yes"/>
      <point x="361" y="432"/>
      <point x="345" y="416"/>
      <point x="303" y="416" type="curve" smooth="yes"/>
    </contour>
    <contour>
      <point x="174" y="467" type="line"/>
      <point x="174" y="453"/>
      <point x="178" y="449"/>
      <point x="194" y="449" type="curve" smooth="yes"/>
      <point x="201" y="449" type="line" smooth="yes"/>
      <point x="215" y="449"/>
      <point x="219" y="452"/>
      <point x="219" y="467" type="curve" smooth="yes"/>
      <point x="219" y="518" type="line"/>
      <point x="240" y="518" type="line"/>
      <point x="265" y="462" type="line" smooth="yes"/>
      <point x="269" y="452"/>
      <point x="273" y="449"/>
      <point x="283" y="449" type="curve" smooth="yes"/>
      <point x="293" y="449" type="line" smooth="yes"/>
      <point x="313" y="449"/>
      <point x="315" y="457"/>
      <point x="307" y="474" type="curve" smooth="yes"/>
      <point x="285" y="520" type="line"/>
      <point x="298" y="526"/>
      <point x="306" y="540"/>
      <point x="306" y="560" type="curve" smooth="yes"/>
      <point x="306" y="598" type="line" smooth="yes"/>
      <point x="306" y="631"/>
      <point x="286" y="644"/>
      <point x="253" y="644" type="curve" smooth="yes"/>
      <point x="194" y="644" type="line" smooth="yes"/>
      <point x="178" y="644"/>
      <point x="174" y="640"/>
      <point x="174" y="625" type="curve" smooth="yes"/>
    </contour>
    <contour>
      <point x="249" y="603" type="line"/>
      <point x="257" y="603"/>
      <point x="260" y="600"/>
      <point x="260" y="593" type="curve" smooth="yes"/>
      <point x="260" y="565" type="line" smooth="yes"/>
      <point x="260" y="557"/>
      <point x="257" y="554"/>
      <point x="249" y="554" type="curve" smooth="yes"/>
      <point x="219" y="554" type="line"/>
      <point x="219" y="603" type="line"/>
    </contour>
  </outline>
</glyph>
<glyph name="twosuperior" format="1">
  <advance width="349"/>
  <unicode hex="00B2"/>
  <outline>
    <contour>
      <point x="61" y="312" type="line"/>
      <point x="61" y="303"/>
      <point x="64" y="300"/>
      <point x="73" y="300" type="curve" smooth="yes"/>
      <point x="283" y="300" type="line" smooth="yes"/>
      <point x="292" y="300"/>
      <point x="297" y="303"/>
      <point x="297" y="312" type="curve" smooth="yes"/>
      <point x="297" y="357" type="line" smooth="yes"/>
      <point x="297" y="366"/>
      <point x="292" y="369"/>
      <point x="283" y="369" type="curve" smooth="yes"/>
      <point x="155" y="369" type="line"/>
      <point x="155" y="373" type="line" smooth="yes"/>
      <point x="155" y="378"/>
      <point x="160" y="380"/>
      <point x="175" y="390" type="curve"/>
      <point x="248" y="439" type="line" smooth="yes"/>
      <point x="286" y="465"/>
      <point x="296" y="496"/>
      <point x="296" y="535" type="curve" smooth="yes"/>
      <point x="296" y="556" type="line" smooth="yes"/>
      <point x="296" y="613"/>
      <point x="261" y="643"/>
      <point x="193" y="643" type="curve" smooth="yes"/>
      <point x="158" y="643" type="line" smooth="yes"/>
      <point x="89" y="643"/>
      <point x="55" y="613"/>
      <point x="55" y="556" type="curve" smooth="yes"/>
      <point x="55" y="528" type="line" smooth="yes"/>
      <point x="55" y="520"/>
      <point x="59" y="517"/>
      <point x="68" y="517" type="curve" smooth="yes"/>
      <point x="134" y="517" type="line" smooth="yes"/>
      <point x="143" y="517"/>
      <point x="147" y="520"/>
      <point x="147" y="528" type="curve" smooth="yes"/>
      <point x="147" y="545" type="line" smooth="yes"/>
      <point x="147" y="562"/>
      <point x="151" y="572"/>
      <point x="178" y="572" type="curve" smooth="yes"/>
      <point x="184" y="572" type="line" smooth="yes"/>
      <point x="212" y="572"/>
      <point x="215" y="561"/>
      <point x="215" y="545" type="curve" smooth="yes"/>
      <point x="215" y="539" type="line" smooth="yes"/>
      <point x="215" y="517"/>
      <point x="206" y="505"/>
      <point x="184" y="490" type="curve" smooth="yes"/>
      <point x="99" y="433" type="line"/>
      <point x="73" y="415"/>
      <point x="61" y="397"/>
      <point x="61" y="356" type="curve" smooth="yes"/>
    </contour>
  </outline>
</glyph>
<glyph name="threesuperior" format="1">
  <advance width="306"/>
  <unicode hex="00B3"/>
  <outline>
    <contour>
      <point x="134" y="503" type="line"/>
      <point x="126" y="503"/>
      <point x="123" y="499"/>
      <point x="123" y="491" type="curve" smooth="yes"/>
      <point x="123" y="445" type="line" smooth="yes"/>
      <point x="123" y="438"/>
      <point x="126" y="434"/>
      <point x="134" y="434" type="curve" smooth="yes"/>
      <point x="156" y="434" type="line" smooth="yes"/>
      <point x="179" y="434"/>
      <point x="189" y="426"/>
      <point x="189" y="403" type="curve" smooth="yes"/>
      <point x="189" y="397" type="line" smooth="yes"/>
      <point x="189" y="374"/>
      <point x="179" y="366"/>
      <point x="156" y="366" type="curve" smooth="yes"/>
      <point x="146" y="366" type="line" smooth="yes"/>
      <point x="123" y="366"/>
      <point x="115" y="374"/>
      <point x="115" y="397" type="curve" smooth="yes"/>
      <point x="115" y="401" type="line" smooth="yes"/>
      <point x="115" y="409"/>
      <point x="111" y="413"/>
      <point x="104" y="413" type="curve" smooth="yes"/>
      <point x="48" y="413" type="line" smooth="yes"/>
      <point x="41" y="413"/>
      <point x="37" y="409"/>
      <point x="37" y="401" type="curve" smooth="yes"/>
      <point x="37" y="386" type="line" smooth="yes"/>
      <point x="37" y="330"/>
      <point x="69" y="299"/>
      <point x="125" y="299" type="curve" smooth="yes"/>
      <point x="173" y="299" type="line" smooth="yes"/>
      <point x="228" y="299"/>
      <point x="266" y="330"/>
      <point x="266" y="386" type="curve" smooth="yes"/>
      <point x="266" y="413" type="line" smooth="yes"/>
      <point x="266" y="450"/>
      <point x="246" y="467"/>
      <point x="224" y="471" type="curve"/>
      <point x="250" y="480"/>
      <point x="266" y="500"/>
      <point x="266" y="530" type="curve" smooth="yes"/>
      <point x="266" y="556" type="line" smooth="yes"/>
      <point x="266" y="613"/>
      <point x="228" y="643"/>
      <point x="173" y="643" type="curve" smooth="yes"/>
      <point x="125" y="643" type="line" smooth="yes"/>
      <point x="69" y="643"/>
      <point x="37" y="613"/>
      <point x="37" y="556" type="curve" smooth="yes"/>
      <point x="37" y="539" type="line" smooth="yes"/>
      <point x="37" y="531"/>
      <point x="41" y="528"/>
      <point x="48" y="528" type="curve" smooth="yes"/>
      <point x="104" y="528" type="line" smooth="yes"/>
      <point x="111" y="528"/>
      <point x="115" y="531"/>
      <point x="115" y="539" type="curve" smooth="yes"/>
      <point x="115" y="545" type="line" smooth="yes"/>
      <point x="115" y="568"/>
      <point x="123" y="576"/>
      <point x="146" y="576" type="curve" smooth="yes"/>
      <point x="156" y="576" type="line" smooth="yes"/>
      <point x="179" y="576"/>
      <point x="189" y="568"/>
      <point x="189" y="545" type="curve" smooth="yes"/>
      <point x="189" y="534" type="line" smooth="yes"/>
      <point x="189" y="512"/>
      <point x="179" y="503"/>
      <point x="156" y="503" type="curve" smooth="yes"/>
    </contour>
  </outline>
</glyph>
<glyph name="acute" format="1">
  <advance width="298"/>
  <unicode hex="00B4"/>
  <outline>
    <contour>
      <point x="132" y="703" type="line"/>
      <point x="119" y="703"/>
      <point x="109" y="698"/>
      <point x="102" y="684" type="curve" smooth="yes"/>
      <point x="57" y="595" type="line" smooth="yes"/>
      <point x="50" y="580"/>
      <point x="54" y="574"/>
      <point x="68" y="574" type="curve" smooth="yes"/>
      <point x="131" y="574" type="line" smooth="yes"/>
      <point x="143" y="574"/>
      <point x="152" y="579"/>
      <point x="159" y="587" type="curve" smooth="yes"/>
      <point x="241" y="683" type="line" smooth="yes"/>
      <point x="250" y="694"/>
      <point x="244" y="703"/>
      <point x="231" y="703" type="curve" smooth="yes"/>
    </contour>
  </outline>
</glyph>
<glyph name="mu.math" format="1">
  <advance width="563"/>
  <unicode hex="00B5"/>
  <outline>
    <contour>
      <point x="200" y="7" type="line"/>
      <point x="208" y="-2"/>
      <point x="250" y="0"/>
      <point x="262" y="0" type="curve" smooth="yes"/>
      <point x="299" y="0"/>
      <point x="344" y="15"/>
      <point x="360" y="54" type="curve"/>
      <point x="364" y="54" type="line"/>
      <point x="364" y="21" type="line" smooth="yes"/>
      <point x="364" y="5"/>
      <point x="371" y="0"/>
      <point x="385" y="0" type="curve" smooth="yes"/>
      <point x="469" y="0" type="line" smooth="yes"/>
      <point x="484" y="0"/>
      <point x="491" y="5"/>
      <point x="491" y="21" type="curve" smooth="yes"/>
      <point x="491" y="489" type="line" smooth="yes"/>
      <point x="491" y="505"/>
      <point x="484" y="510"/>
      <point x="469" y="510" type="curve" smooth="yes"/>
      <point x="385" y="510" type="line" smooth="yes"/>
      <point x="371" y="510"/>
      <point x="364" y="505"/>
      <point x="364" y="489" type="curve" smooth="yes"/>
      <point x="364" y="186" type="line" smooth="yes"/>
      <point x="364" y="143"/>
      <point x="350" y="110"/>
      <point x="295" y="110" type="curve" smooth="yes"/>
      <point x="258" y="110" type="line" smooth="yes"/>
      <point x="216" y="110"/>
      <point x="200" y="127"/>
      <point x="200" y="169" type="curve" smooth="yes"/>
      <point x="200" y="489" type="line" smooth="yes"/>
      <point x="200" y="505"/>
      <point x="193" y="510"/>
      <point x="179" y="510" type="curve" smooth="yes"/>
      <point x="94" y="510" type="line" smooth="yes"/>
      <point x="80" y="510"/>
      <point x="73" y="505"/>
      <point x="73" y="489" type="curve" smooth="yes"/>
      <point x="73" y="-112" type="line" smooth="yes"/>
      <point x="73" y="-128"/>
      <point x="80" y="-133"/>
      <point x="94" y="-133" type="curve" smooth="yes"/>
      <point x="179" y="-133" type="line" smooth="yes"/>
      <point x="193" y="-133"/>
      <point x="200" y="-128"/>
      <point x="200" y="-112" type="curve" smooth="yes"/>
    </contour>
  </outline>
</glyph>
<glyph name="periodcentered" format="1">
  <advance width="207"/>
  <unicode hex="00B7"/>
  <outline>
    <contour>
      <point x="167" y="380" type="line"/>
      <point x="167" y="393"/>
      <point x="160" y="399"/>
      <point x="148" y="399" type="curve" smooth="yes"/>
      <point x="59" y="399" type="line" smooth="yes"/>
      <point x="45" y="399"/>
      <point x="39" y="392"/>
      <point x="39" y="379" type="curve" smooth="yes"/>
      <point x="39" y="257" type="line" smooth="yes"/>
      <point x="39" y="243"/>
      <point x="45" y="236"/>
      <point x="59" y="236" type="curve" smooth="yes"/>
      <point x="148" y="236" type="line" smooth="yes"/>
      <point x="161" y="236"/>
      <point x="167" y="243"/>
      <point x="167" y="257" type="curve" smooth="yes"/>
    </contour>
  </outline>
</glyph>
<glyph name="ordmasculine" format="1">
  <advance width="341"/>
  <unicode hex="00BA"/>
  <outline>
    <contour>
      <point x="159" y="416" type="line"/>
      <point x="132" y="416"/>
      <point x="122" y="426"/>
      <point x="122" y="453" type="curve" smooth="yes"/>
      <point x="122" y="525" type="line" smooth="yes"/>
      <point x="122" y="553"/>
      <point x="132" y="563"/>
      <point x="159" y="563" type="curve" smooth="yes"/>
      <point x="179" y="563" type="line" smooth="yes"/>
      <point x="208" y="563"/>
      <point x="218" y="553"/>
      <point x="218" y="525" type="curve" smooth="yes"/>
      <point x="218" y="453" type="line" smooth="yes"/>
      <point x="218" y="426"/>
      <point x="208" y="416"/>
      <point x="179" y="416" type="curve" smooth="yes"/>
    </contour>
    <contour>
      <point x="199" y="335" type="line"/>
      <point x="267" y="335"/>
      <point x="306" y="373"/>
      <point x="306" y="441" type="curve" smooth="yes"/>
      <point x="306" y="538" type="line" smooth="yes"/>
      <point x="306" y="606"/>
      <point x="267" y="644"/>
      <point x="199" y="644" type="curve" smooth="yes"/>
      <point x="141" y="644" type="line" smooth="yes"/>
      <point x="73" y="644"/>
      <point x="34" y="606"/>
      <point x="34" y="538" type="curve" smooth="yes"/>
      <point x="34" y="441" type="line" smooth="yes"/>
      <point x="34" y="373"/>
      <point x="73" y="335"/>
      <point x="141" y="335" type="curve" smooth="yes"/>
    </contour>
  </outline>
</glyph>
<glyph name="guillemotright" format="1">
  <advance width="454"/>
  <unicode hex="00BB"/>
  <outline>
    <contour>
      <point x="167" y="257" type="line"/>
      <point x="64" y="180" type="line" smooth="yes"/>
      <point x="48" y="169"/>
      <point x="45" y="164"/>
      <point x="45" y="150" type="curve" smooth="yes"/>
      <point x="45" y="95" type="line" smooth="yes"/>
      <point x="45" y="80"/>
      <point x="53" y="75"/>
      <point x="65" y="85" type="curve" smooth="yes"/>
      <point x="215" y="200" type="line" smooth="yes"/>
      <point x="230" y="211"/>
      <point x="235" y="216"/>
      <point x="235" y="237" type="curve" smooth="yes"/>
      <point x="235" y="278" type="line" smooth="yes"/>
      <point x="235" y="298"/>
      <point x="229" y="303"/>
      <point x="215" y="313" type="curve" smooth="yes"/>
      <point x="65" y="428" type="line" smooth="yes"/>
      <point x="53" y="438"/>
      <point x="45" y="433"/>
      <point x="45" y="418" type="curve" smooth="yes"/>
      <point x="45" y="363" type="line" smooth="yes"/>
      <point x="45" y="350"/>
      <point x="48" y="344"/>
      <point x="64" y="334" type="curve" smooth="yes"/>
    </contour>
    <contour>
      <point x="341" y="257" type="line"/>
      <point x="238" y="180" type="line" smooth="yes"/>
      <point x="222" y="169"/>
      <point x="219" y="164"/>
      <point x="219" y="150" type="curve" smooth="yes"/>
      <point x="219" y="95" type="line" smooth="yes"/>
      <point x="219" y="80"/>
      <point x="227" y="75"/>
      <point x="239" y="85" type="curve" smooth="yes"/>
      <point x="389" y="200" type="line" smooth="yes"/>
      <point x="404" y="211"/>
      <point x="409" y="216"/>
      <point x="409" y="237" type="curve" smooth="yes"/>
      <point x="409" y="278" type="line" smooth="yes"/>
      <point x="409" y="298"/>
      <point x="403" y="303"/>
      <point x="389" y="313" type="curve" smooth="yes"/>
      <point x="239" y="428" type="line" smooth="yes"/>
      <point x="227" y="438"/>
      <point x="219" y="433"/>
      <point x="219" y="418" type="curve" smooth="yes"/>
      <point x="219" y="363" type="line" smooth="yes"/>
      <point x="219" y="350"/>
      <point x="222" y="344"/>
      <point x="238" y="334" type="curve" smooth="yes"/>
    </contour>
  </outline>
</glyph>
<glyph name="onequarter" format="1">
  <advance width="714"/>
  <unicode hex="00BC"/>
  <outline>
    <contour>
      <point x="587" y="622" type="line"/>
      <point x="597" y="635"/>
      <point x="590" y="643"/>
      <point x="576" y="643" type="curve" smooth="yes"/>
      <point x="534" y="643" type="line" smooth="yes"/>
      <point x="520" y="643"/>
      <point x="511" y="637"/>
      <point x="500" y="622" type="curve"/>
      <point x="378" y="457"/>
      <point x="179" y="186"/>
      <point x="57" y="21" type="curve"/>
      <point x="47" y="8"/>
      <point x="54" y="0"/>
      <point x="69" y="0" type="curve" smooth="yes"/>
      <point x="108" y="0" type="line" smooth="yes"/>
      <point x="123" y="0"/>
      <point x="132" y="4"/>
      <point x="144" y="21" type="curve" smooth="yes"/>
    </contour>
    <contour>
      <point x="601" y="0" type="line"/>
      <point x="609" y="0"/>
      <point x="612" y="2"/>
      <point x="612" y="11" type="curve" smooth="yes"/>
      <point x="612" y="63" type="line"/>
      <point x="650" y="63" type="line" smooth="yes"/>
      <point x="658" y="63"/>
      <point x="661" y="67"/>
      <point x="661" y="75" type="curve" smooth="yes"/>
      <point x="661" y="121" type="line" smooth="yes"/>
      <point x="661" y="128"/>
      <point x="658" y="131"/>
      <point x="650" y="131" type="curve" smooth="yes"/>
      <point x="612" y="131" type="line"/>
      <point x="612" y="323" type="line" smooth="yes"/>
      <point x="612" y="336"/>
      <point x="603" y="343"/>
      <point x="592" y="343" type="curve" smooth="yes"/>
      <point x="521" y="343" type="line" smooth="yes"/>
      <point x="509" y="343"/>
      <point x="505" y="339"/>
      <point x="498" y="326" type="curve" smooth="yes"/>
      <point x="392" y="129" type="line" smooth="yes"/>
      <point x="388" y="122"/>
      <point x="387" y="114"/>
      <point x="387" y="103" type="curve" smooth="yes"/>
      <point x="387" y="82" type="line" smooth="yes"/>
      <point x="387" y="70"/>
      <point x="395" y="63"/>
      <point x="406" y="63" type="curve" smooth="yes"/>
      <point x="538" y="63" type="line"/>
      <point x="538" y="11" type="line" smooth="yes"/>
      <point x="538" y="3"/>
      <point x="542" y="0"/>
      <point x="550" y="0" type="curve" smooth="yes"/>
    </contour>
    <contour>
      <point x="538" y="279" type="line"/>
      <point x="538" y="131" type="line"/>
      <point x="460" y="131" type="line"/>
    </contour>
    <component base="onesuperior"/>
  </outline>
</glyph>
<glyph name="onehalf" format="1">
  <advance width="724"/>
  <unicode hex="00BD"/>
  <outline>
    <contour>
      <point x="587" y="622" type="line"/>
      <point x="597" y="635"/>
      <point x="590" y="643"/>
      <point x="576" y="643" type="curve" smooth="yes"/>
      <point x="534" y="643" type="line" smooth="yes"/>
      <point x="520" y="643"/>
      <point x="511" y="637"/>
      <point x="500" y="622" type="curve"/>
      <point x="378" y="457"/>
      <point x="179" y="186"/>
      <point x="57" y="21" type="curve"/>
      <point x="47" y="8"/>
      <point x="54" y="0"/>
      <point x="69" y="0" type="curve" smooth="yes"/>
      <point x="108" y="0" type="line" smooth="yes"/>
      <point x="123" y="0"/>
      <point x="132" y="4"/>
      <point x="144" y="21" type="curve" smooth="yes"/>
    </contour>
    <component base="twosuperior" xOffset="377" yOffset="-300"/>
    <component base="onesuperior"/>
  </outline>
</glyph>
<glyph name="threequarters" format="1">
  <advance width="766"/>
  <unicode hex="00BE"/>
  <outline>
    <contour>
      <point x="647" y="622" type="line"/>
      <point x="657" y="635"/>
      <point x="650" y="643"/>
      <point x="636" y="643" type="curve" smooth="yes"/>
      <point x="594" y="643" type="line" smooth="yes"/>
      <point x="580" y="643"/>
      <point x="571" y="637"/>
      <point x="560" y="622" type="curve"/>
      <point x="438" y="457"/>
      <point x="239" y="186"/>
      <point x="117" y="21" type="curve"/>
      <point x="107" y="8"/>
      <point x="114" y="0"/>
      <point x="129" y="0" type="curve" smooth="yes"/>
      <point x="168" y="0" type="line" smooth="yes"/>
      <point x="183" y="0"/>
      <point x="192" y="4"/>
      <point x="204" y="21" type="curve" smooth="yes"/>
    </contour>
    <contour>
      <point x="645" y="0" type="line"/>
      <point x="653" y="0"/>
      <point x="656" y="2"/>
      <point x="656" y="11" type="curve" smooth="yes"/>
      <point x="656" y="63" type="line"/>
      <point x="694" y="63" type="line" smooth="yes"/>
      <point x="702" y="63"/>
      <point x="705" y="67"/>
      <point x="705" y="75" type="curve" smooth="yes"/>
      <point x="705" y="121" type="line" smooth="yes"/>
      <point x="705" y="128"/>
      <point x="702" y="131"/>
      <point x="694" y="131" type="curve" smooth="yes"/>
      <point x="656" y="131" type="line"/>
      <point x="656" y="323" type="line" smooth="yes"/>
      <point x="656" y="336"/>
      <point x="647" y="343"/>
      <point x="636" y="343" type="curve" smooth="yes"/>
      <point x="565" y="343" type="line" smooth="yes"/>
      <point x="553" y="343"/>
      <point x="549" y="339"/>
      <point x="542" y="326" type="curve" smooth="yes"/>
      <point x="436" y="129" type="line" smooth="yes"/>
      <point x="432" y="122"/>
      <point x="431" y="114"/>
      <point x="431" y="103" type="curve" smooth="yes"/>
      <point x="431" y="82" type="line" smooth="yes"/>
      <point x="431" y="70"/>
      <point x="439" y="63"/>
      <point x="450" y="63" type="curve" smooth="yes"/>
      <point x="582" y="63" type="line"/>
      <point x="582" y="11" type="line" smooth="yes"/>
      <point x="582" y="3"/>
      <point x="586" y="0"/>
      <point x="594" y="0" type="curve" smooth="yes"/>
    </contour>
    <contour>
      <point x="582" y="279" type="line"/>
      <point x="582" y="131" type="line"/>
      <point x="504" y="131" type="line"/>
    </contour>
    <component base="threesuperior"/>
  </outline>
</glyph>
<glyph name="questiondown" format="1">
  <advance width="466"/>
  <unicode hex="00BF"/>
  <outline>
    <contour>
      <point x="177" y="367" type="line"/>
      <point x="177" y="350"/>
      <point x="171" y="338"/>
      <point x="151" y="319" type="curve" smooth="yes"/>
      <point x="83" y="264" type="line" smooth="yes"/>
      <point x="55" y="240"/>
      <point x="38" y="209"/>
      <point x="38" y="176" type="curve" smooth="yes"/>
      <point x="38" y="162" type="line" smooth="yes"/>
      <point x="38" y="57"/>
      <point x="98" y="0"/>
      <point x="203" y="0" type="curve" smooth="yes"/>
      <point x="262" y="0" type="line" smooth="yes"/>
      <point x="366" y="0"/>
      <point x="427" y="57"/>
      <point x="427" y="162" type="curve" smooth="yes"/>
      <point x="427" y="185" type="line" smooth="yes"/>
      <point x="427" y="200"/>
      <point x="420" y="207"/>
      <point x="406" y="207" type="curve" smooth="yes"/>
      <point x="321" y="207" type="line" smooth="yes"/>
      <point x="307" y="207"/>
      <point x="300" y="200"/>
      <point x="300" y="185" type="curve" smooth="yes"/>
      <point x="300" y="164" type="line" smooth="yes"/>
      <point x="300" y="122"/>
      <point x="284" y="106"/>
      <point x="241" y="106" type="curve" smooth="yes"/>
      <point x="223" y="106" type="line" smooth="yes"/>
      <point x="181" y="106"/>
      <point x="162" y="122"/>
      <point x="162" y="164" type="curve" smooth="yes"/>
      <point x="162" y="170" type="line" smooth="yes"/>
      <point x="162" y="192"/>
      <point x="171" y="208"/>
      <point x="194" y="225" type="curve" smooth="yes"/>
      <point x="250" y="271" type="line" smooth="yes"/>
      <point x="283" y="298"/>
      <point x="298" y="321"/>
      <point x="298" y="366" type="curve" smooth="yes"/>
      <point x="298" y="393" type="line" smooth="yes"/>
      <point x="298" y="408"/>
      <point x="291" y="414"/>
      <point x="277" y="414" type="curve" smooth="yes"/>
      <point x="198" y="414" type="line" smooth="yes"/>
      <point x="184" y="414"/>
      <point x="177" y="408"/>
      <point x="177" y="393" type="curve" smooth="yes"/>
    </contour>
    <contour>
      <point x="177" y="498" type="line"/>
      <point x="177" y="485"/>
      <point x="184" y="479"/>
      <point x="197" y="479" type="curve" smooth="yes"/>
      <point x="286" y="479" type="line" smooth="yes"/>
      <point x="299" y="479"/>
      <point x="305" y="485"/>
      <point x="305" y="499" type="curve" smooth="yes"/>
      <point x="305" y="620" type="line" smooth="yes"/>
      <point x="305" y="633"/>
      <point x="299" y="642"/>
      <point x="286" y="642" type="curve" smooth="yes"/>
      <point x="197" y="642" type="line" smooth="yes"/>
      <point x="183" y="642"/>
      <point x="177" y="635"/>
      <point x="177" y="621" type="curve" smooth="yes"/>
    </contour>
  </outline>
</glyph>
<glyph name="Agrave" format="1">
  <advance width="556"/>
  <unicode hex="00C0"/>
  <outline>
    <contour>
      <point x="277" y="522" type="line"/>
      <point x="281" y="522" type="line"/>
      <point x="353" y="233" type="line"/>
      <point x="205" y="233" type="line"/>
    </contour>
    <contour>
      <point x="132" y="0" type="line"/>
      <point x="146" y="0"/>
      <point x="150" y="5"/>
      <point x="153" y="21" type="curve" smooth="yes"/>
      <point x="181" y="131" type="line"/>
      <point x="376" y="131" type="line"/>
      <point x="404" y="21" type="line" smooth="yes"/>
      <point x="406" y="5"/>
      <point x="411" y="0"/>
      <point x="425" y="0" type="curve" smooth="yes"/>
      <point x="521" y="0" type="line" smooth="yes"/>
      <point x="535" y="0"/>
      <point x="537" y="6"/>
      <point x="533" y="21" type="curve" smooth="yes"/>
      <point x="375" y="622" type="line" smooth="yes"/>
      <point x="371" y="638"/>
      <point x="361" y="643"/>
      <point x="345" y="643" type="curve" smooth="yes"/>
      <point x="212" y="643" type="line" smooth="yes"/>
      <point x="196" y="643"/>
      <point x="187" y="638"/>
      <point x="182" y="622" type="curve" smooth="yes"/>
      <point x="24" y="21" type="line" smooth="yes"/>
      <point x="20" y="6"/>
      <point x="22" y="0"/>
      <point x="36" y="0" type="curve" smooth="yes"/>
    </contour>
    <contour>
      <point x="274" y="817" type="line"/>
      <point x="267" y="831"/>
      <point x="257" y="836"/>
      <point x="244" y="836" type="curve" smooth="yes"/>
      <point x="146" y="836" type="line" smooth="yes"/>
      <point x="132" y="836"/>
      <point x="127" y="827"/>
      <point x="136" y="816" type="curve" smooth="yes"/>
      <point x="217" y="720" type="line" smooth="yes"/>
      <point x="223" y="712"/>
      <point x="233" y="707"/>
      <point x="243" y="707" type="curve" smooth="yes"/>
      <point x="309" y="707" type="line" smooth="yes"/>
      <point x="322" y="707"/>
      <point x="326" y="713"/>
      <point x="319" y="728" type="curve" smooth="yes"/>
    </contour>
  </outline>
</glyph>
<glyph name="Aacute" format="1">
  <advance width="556"/>
  <unicode hex="00C1"/>
  <outline>
    <contour>
      <point x="277" y="522" type="line"/>
      <point x="281" y="522" type="line"/>
      <point x="353" y="233" type="line"/>
      <point x="205" y="233" type="line"/>
    </contour>
    <contour>
      <point x="132" y="0" type="line"/>
      <point x="146" y="0"/>
      <point x="150" y="5"/>
      <point x="153" y="21" type="curve" smooth="yes"/>
      <point x="181" y="131" type="line"/>
      <point x="376" y="131" type="line"/>
      <point x="404" y="21" type="line" smooth="yes"/>
      <point x="406" y="5"/>
      <point x="411" y="0"/>
      <point x="425" y="0" type="curve" smooth="yes"/>
      <point x="521" y="0" type="line" smooth="yes"/>
      <point x="535" y="0"/>
      <point x="537" y="6"/>
      <point x="533" y="21" type="curve" smooth="yes"/>
      <point x="375" y="622" type="line" smooth="yes"/>
      <point x="371" y="638"/>
      <point x="361" y="643"/>
      <point x="345" y="643" type="curve" smooth="yes"/>
      <point x="212" y="643" type="line" smooth="yes"/>
      <point x="196" y="643"/>
      <point x="187" y="638"/>
      <point x="182" y="622" type="curve" smooth="yes"/>
      <point x="24" y="21" type="line" smooth="yes"/>
      <point x="20" y="6"/>
      <point x="22" y="0"/>
      <point x="36" y="0" type="curve" smooth="yes"/>
    </contour>
    <contour>
      <point x="307" y="836" type="line"/>
      <point x="295" y="836"/>
      <point x="285" y="831"/>
      <point x="278" y="817" type="curve" smooth="yes"/>
      <point x="233" y="728" type="line" smooth="yes"/>
      <point x="226" y="713"/>
      <point x="230" y="707"/>
      <point x="243" y="707" type="curve" smooth="yes"/>
      <point x="309" y="707" type="line" smooth="yes"/>
      <point x="319" y="707"/>
      <point x="328" y="712"/>
      <point x="335" y="720" type="curve" smooth="yes"/>
      <point x="416" y="816" type="line" smooth="yes"/>
      <point x="425" y="827"/>
      <point x="420" y="836"/>
      <point x="406" y="836" type="curve" smooth="yes"/>
    </contour>
  </outline>
</glyph>
<glyph name="Aring" format="1">
  <advance width="556"/>
  <unicode hex="00C5"/>
  <outline>
    <contour>
      <point x="277" y="522" type="line"/>
      <point x="281" y="522" type="line"/>
      <point x="353" y="233" type="line"/>
      <point x="205" y="233" type="line"/>
    </contour>
    <contour>
      <point x="132" y="0" type="line"/>
      <point x="146" y="0"/>
      <point x="150" y="5"/>
      <point x="153" y="21" type="curve" smooth="yes"/>
      <point x="181" y="131" type="line"/>
      <point x="376" y="131" type="line"/>
      <point x="404" y="21" type="line" smooth="yes"/>
      <point x="406" y="5"/>
      <point x="411" y="0"/>
      <point x="425" y="0" type="curve" smooth="yes"/>
      <point x="521" y="0" type="line" smooth="yes"/>
      <point x="535" y="0"/>
      <point x="537" y="6"/>
      <point x="533" y="21" type="curve" smooth="yes"/>
      <point x="375" y="622" type="line" smooth="yes"/>
      <point x="371" y="638"/>
      <point x="361" y="643"/>
      <point x="345" y="643" type="curve" smooth="yes"/>
      <point x="212" y="643" type="line" smooth="yes"/>
      <point x="196" y="643"/>
      <point x="187" y="638"/>
      <point x="182" y="622" type="curve" smooth="yes"/>
      <point x="24" y="21" type="line" smooth="yes"/>
      <point x="20" y="6"/>
      <point x="22" y="0"/>
      <point x="36" y="0" type="curve" smooth="yes"/>
    </contour>
    <contour>
      <point x="269" y="750" type="line"/>
      <point x="252" y="750"/>
      <point x="246" y="756"/>
      <point x="246" y="775" type="curve" smooth="yes"/>
      <point x="246" y="801" type="line" smooth="yes"/>
      <point x="246" y="821"/>
      <point x="253" y="827"/>
      <point x="270" y="827" type="curve" smooth="yes"/>
      <point x="286" y="827" type="line" smooth="yes"/>
      <point x="303" y="827"/>
      <point x="308" y="821"/>
      <point x="308" y="801" type="curve" smooth="yes"/>
      <point x="308" y="775" type="line" smooth="yes"/>
      <point x="308" y="756"/>
      <point x="303" y="750"/>
      <point x="285" y="750" type="curve" smooth="yes"/>
    </contour>
    <contour>
      <point x="306" y="704" type="line"/>
      <point x="339" y="704"/>
      <point x="361" y="723"/>
      <point x="361" y="758" type="curve" smooth="yes"/>
      <point x="361" y="822" type="line" smooth="yes"/>
      <point x="361" y="855"/>
      <point x="339" y="874"/>
      <point x="306" y="874" type="curve" smooth="yes"/>
      <point x="249" y="874" type="line" smooth="yes"/>
      <point x="214" y="874"/>
      <point x="195" y="855"/>
      <point x="195" y="822" type="curve" smooth="yes"/>
      <point x="195" y="758" type="line" smooth="yes"/>
      <point x="195" y="723"/>
      <point x="214" y="704"/>
      <point x="249" y="704" type="curve" smooth="yes"/>
    </contour>
  </outline>
</glyph>
<glyph name="Eacute" format="1">
  <advance width="479"/>
  <unicode hex="00C9"/>
  <outline>
    <contour>
      <point x="413" y="0" type="line"/>
      <point x="428" y="0"/>
      <point x="433" y="7"/>
      <point x="433" y="21" type="curve" smooth="yes"/>
      <point x="433" y="89" type="line" smooth="yes"/>
      <point x="433" y="103"/>
      <point x="428" y="110"/>
      <point x="413" y="110" type="curve" smooth="yes"/>
      <point x="204" y="110" type="line" smooth="yes"/>
      <point x="196" y="110"/>
      <point x="192" y="113"/>
      <point x="192" y="121" type="curve" smooth="yes"/>
      <point x="192" y="260" type="line" smooth="yes"/>
      <point x="192" y="268"/>
      <point x="196" y="271"/>
      <point x="204" y="271" type="curve" smooth="yes"/>
      <point x="375" y="271" type="line" smooth="yes"/>
      <point x="390" y="271"/>
      <point x="396" y="278"/>
      <point x="396" y="292" type="curve" smooth="yes"/>
      <point x="396" y="360" type="line" smooth="yes"/>
      <point x="396" y="374"/>
      <point x="390" y="381"/>
      <point x="375" y="381" type="curve" smooth="yes"/>
      <point x="204" y="381" type="line" smooth="yes"/>
      <point x="196" y="381"/>
      <point x="192" y="384"/>
      <point x="192" y="392" type="curve" smooth="yes"/>
      <point x="192" y="522" type="line" smooth="yes"/>
      <point x="192" y="530"/>
      <point x="196" y="533"/>
      <point x="204" y="533" type="curve" smooth="yes"/>
      <point x="413" y="533" type="line" smooth="yes"/>
      <point x="428" y="533"/>
      <point x="433" y="540"/>
      <point x="433" y="554" type="curve" smooth="yes"/>
      <point x="433" y="622" type="line" smooth="yes"/>
      <point x="433" y="636"/>
      <point x="428" y="643"/>
      <point x="413" y="643" type="curve" smooth="yes"/>
      <point x="86" y="643" type="line" smooth="yes"/>
      <point x="72" y="643"/>
      <point x="65" y="638"/>
      <point x="65" y="622" type="curve" smooth="yes"/>
      <point x="65" y="21" type="line" smooth="yes"/>
      <point x="65" y="5"/>
      <point x="72" y="0"/>
      <point x="86" y="0" type="curve" smooth="yes"/>
    </contour>
    <contour>
      <point x="268" y="836" type="line"/>
      <point x="256" y="836"/>
      <point x="246" y="831"/>
      <point x="238" y="817" type="curve" smooth="yes"/>
      <point x="194" y="728" type="line" smooth="yes"/>
      <point x="187" y="713"/>
      <point x="191" y="707"/>
      <point x="204" y="707" type="curve" smooth="yes"/>
      <point x="269" y="707" type="line" smooth="yes"/>
      <point x="279" y="707"/>
      <point x="289" y="712"/>
      <point x="296" y="720" type="curve" smooth="yes"/>
      <point x="377" y="816" type="line" smooth="yes"/>
      <point x="386" y="827"/>
      <point x="381" y="836"/>
      <point x="367" y="836" type="curve" smooth="yes"/>
    </contour>
  </outline>
</glyph>
<glyph name="Eth" format="1">
  <advance width="566"/>
  <unicode hex="00D0"/>
  <outline>
    <contour>
      <point x="347" y="0" type="line"/>
      <point x="452" y="0"/>
      <point x="512" y="58"/>
      <point x="512" y="163" type="curve" smooth="yes"/>
      <point x="512" y="480" type="line" smooth="yes"/>
      <point x="512" y="585"/>
      <point x="452" y="643"/>
      <point x="347" y="643" type="curve" smooth="yes"/>
      <point x="100" y="643" type="line" smooth="yes"/>
      <point x="86" y="643"/>
      <point x="79" y="638"/>
      <point x="79" y="622" type="curve" smooth="yes"/>
      <point x="79" y="380" type="line" smooth="yes"/>
      <point x="79" y="372"/>
      <point x="76" y="369"/>
      <point x="68" y="369" type="curve" smooth="yes"/>
      <point x="42" y="369" type="line" smooth="yes"/>
      <point x="26" y="369"/>
      <point x="21" y="362"/>
      <point x="21" y="348" type="curve" smooth="yes"/>
      <point x="21" y="296" type="line" smooth="yes"/>
      <point x="21" y="281"/>
      <point x="25" y="275"/>
      <point x="42" y="275" type="curve" smooth="yes"/>
      <point x="68" y="275" type="line" smooth="yes"/>
      <point x="76" y="275"/>
      <point x="79" y="272"/>
      <point x="79" y="264" type="curve" smooth="yes"/>
      <point x="79" y="21" type="line" smooth="yes"/>
      <point x="79" y="5"/>
      <point x="86" y="0"/>
      <point x="100" y="0" type="curve" smooth="yes"/>
    </contour>
    <contour>
      <point x="217" y="110" type="line"/>
      <point x="210" y="110"/>
      <point x="206" y="113"/>
      <point x="206" y="121" type="curve" smooth="yes"/>
      <point x="206" y="264" type="line" smooth="yes"/>
      <point x="206" y="272"/>
      <point x="210" y="275"/>
      <point x="217" y="275" type="curve" smooth="yes"/>
      <point x="293" y="275" type="line" smooth="yes"/>
      <point x="309" y="275"/>
      <point x="314" y="281"/>
      <point x="314" y="296" type="curve" smooth="yes"/>
      <point x="314" y="348" type="line" smooth="yes"/>
      <point x="314" y="362"/>
      <point x="308" y="369"/>
      <point x="293" y="369" type="curve" smooth="yes"/>
      <point x="217" y="369" type="line" smooth="yes"/>
      <point x="210" y="369"/>
      <point x="206" y="372"/>
      <point x="206" y="380" type="curve" smooth="yes"/>
      <point x="206" y="522" type="line" smooth="yes"/>
      <point x="206" y="530"/>
      <point x="210" y="533"/>
      <point x="217" y="533" type="curve" smooth="yes"/>
      <point x="326" y="533" type="line" smooth="yes"/>
      <point x="369" y="533"/>
      <point x="385" y="516"/>
      <point x="385" y="474" type="curve" smooth="yes"/>
      <point x="385" y="169" type="line" smooth="yes"/>
      <point x="385" y="127"/>
      <point x="369" y="110"/>
      <point x="326" y="110" type="curve" smooth="yes"/>
    </contour>
  </outline>
</glyph>
<glyph name="Ograve" format="1">
  <advance width="552"/>
  <unicode hex="00D2"/>
  <outline>
    <contour>
      <point x="332" y="0" type="line"/>
      <point x="437" y="0"/>
      <point x="497" y="58"/>
      <point x="497" y="163" type="curve" smooth="yes"/>
      <point x="497" y="480" type="line" smooth="yes"/>
      <point x="497" y="585"/>
      <point x="437" y="643"/>
      <point x="332" y="643" type="curve" smooth="yes"/>
      <point x="220" y="643" type="line" smooth="yes"/>
      <point x="115" y="643"/>
      <point x="55" y="585"/>
      <point x="55" y="480" type="curve" smooth="yes"/>
      <point x="55" y="163" type="line" smooth="yes"/>
      <point x="55" y="58"/>
      <point x="115" y="0"/>
      <point x="220" y="0" type="curve" smooth="yes"/>
    </contour>
    <contour>
      <point x="240" y="110" type="line"/>
      <point x="197" y="110"/>
      <point x="182" y="127"/>
      <point x="182" y="169" type="curve" smooth="yes"/>
      <point x="182" y="474" type="line" smooth="yes"/>
      <point x="182" y="516"/>
      <point x="197" y="533"/>
      <point x="240" y="533" type="curve" smooth="yes"/>
      <point x="311" y="533" type="line" smooth="yes"/>
      <point x="354" y="533"/>
      <point x="370" y="516"/>
      <point x="370" y="474" type="curve" smooth="yes"/>
      <point x="370" y="169" type="line" smooth="yes"/>
      <point x="370" y="127"/>
      <point x="354" y="110"/>
      <point x="311" y="110" type="curve" smooth="yes"/>
    </contour>
    <contour>
      <point x="273" y="817" type="line"/>
      <point x="266" y="831"/>
      <point x="256" y="836"/>
      <point x="243" y="836" type="curve" smooth="yes"/>
      <point x="144" y="836" type="line" smooth="yes"/>
      <point x="131" y="836"/>
      <point x="126" y="827"/>
      <point x="135" y="816" type="curve" smooth="yes"/>
      <point x="216" y="720" type="line" smooth="yes"/>
      <point x="222" y="712"/>
      <point x="232" y="707"/>
      <point x="242" y="707" type="curve" smooth="yes"/>
      <point x="308" y="707" type="line" smooth="yes"/>
      <point x="321" y="707"/>
      <point x="325" y="713"/>
      <point x="318" y="728" type="curve" smooth="yes"/>
    </contour>
  </outline>
</glyph>
<glyph name="Oacute" format="1">
  <advance width="552"/>
  <unicode hex="00D3"/>
  <outline>
    <contour>
      <point x="332" y="0" type="line"/>
      <point x="437" y="0"/>
      <point x="497" y="58"/>
      <point x="497" y="163" type="curve" smooth="yes"/>
      <point x="497" y="480" type="line" smooth="yes"/>
      <point x="497" y="585"/>
      <point x="437" y="643"/>
      <point x="332" y="643" type="curve" smooth="yes"/>
      <point x="220" y="643" type="line" smooth="yes"/>
      <point x="115" y="643"/>
      <point x="55" y="585"/>
      <point x="55" y="480" type="curve" smooth="yes"/>
      <point x="55" y="163" type="line" smooth="yes"/>
      <point x="55" y="58"/>
      <point x="115" y="0"/>
      <point x="220" y="0" type="curve" smooth="yes"/>
    </contour>
    <contour>
      <point x="240" y="110" type="line"/>
      <point x="197" y="110"/>
      <point x="182" y="127"/>
      <point x="182" y="169" type="curve" smooth="yes"/>
      <point x="182" y="474" type="line" smooth="yes"/>
      <point x="182" y="516"/>
      <point x="197" y="533"/>
      <point x="240" y="533" type="curve" smooth="yes"/>
      <point x="311" y="533" type="line" smooth="yes"/>
      <point x="354" y="533"/>
      <point x="370" y="516"/>
      <point x="370" y="474" type="curve" smooth="yes"/>
      <point x="370" y="169" type="line" smooth="yes"/>
      <point x="370" y="127"/>
      <point x="354" y="110"/>
      <point x="311" y="110" type="curve" smooth="yes"/>
    </contour>
    <contour>
      <point x="298" y="836" type="line"/>
      <point x="285" y="836"/>
      <point x="275" y="831"/>
      <point x="268" y="817" type="curve" smooth="yes"/>
      <point x="223" y="728" type="line" smooth="yes"/>
      <point x="216" y="713"/>
      <point x="220" y="707"/>
      <point x="233" y="707" type="curve" smooth="yes"/>
      <point x="299" y="707" type="line" smooth="yes"/>
      <point x="309" y="707"/>
      <point x="319" y="712"/>
      <point x="325" y="720" type="curve" smooth="yes"/>
      <point x="406" y="816" type="line" smooth="yes"/>
      <point x="415" y="827"/>
      <point x="410" y="836"/>
      <point x="397" y="836" type="curve" smooth="yes"/>
    </contour>
  </outline>
</glyph>
<glyph name="Ocircumflex" format="1">
  <advance width="552"/>
  <unicode hex="00D4"/>
  <outline>
    <contour>
      <point x="332" y="0" type="line"/>
      <point x="437" y="0"/>
      <point x="497" y="58"/>
      <point x="497" y="163" type="curve" smooth="yes"/>
      <point x="497" y="480" type="line" smooth="yes"/>
      <point x="497" y="585"/>
      <point x="437" y="643"/>
      <point x="332" y="643" type="curve" smooth="yes"/>
      <point x="220" y="643" type="line" smooth="yes"/>
      <point x="115" y="643"/>
      <point x="55" y="585"/>
      <point x="55" y="480" type="curve" smooth="yes"/>
      <point x="55" y="163" type="line" smooth="yes"/>
      <point x="55" y="58"/>
      <point x="115" y="0"/>
      <point x="220" y="0" type="curve" smooth="yes"/>
    </contour>
    <contour>
      <point x="240" y="110" type="line"/>
      <point x="197" y="110"/>
      <point x="182" y="127"/>
      <point x="182" y="169" type="curve" smooth="yes"/>
      <point x="182" y="474" type="line" smooth="yes"/>
      <point x="182" y="516"/>
      <point x="197" y="533"/>
      <point x="240" y="533" type="curve" smooth="yes"/>
      <point x="311" y="533" type="line" smooth="yes"/>
      <point x="354" y="533"/>
      <point x="370" y="516"/>
      <point x="370" y="474" type="curve" smooth="yes"/>
      <point x="370" y="169" type="line" smooth="yes"/>
      <point x="370" y="127"/>
      <point x="354" y="110"/>
      <point x="311" y="110" type="curve" smooth="yes"/>
    </contour>
    <contour>
      <point x="334" y="825" type="line"/>
      <point x="329" y="832"/>
      <point x="322" y="836"/>
      <point x="312" y="836" type="curve" smooth="yes"/>
      <point x="247" y="836" type="line"/>
      <point x="236" y="836"/>
      <point x="230" y="832"/>
      <point x="225" y="825" type="curve"/>
      <point x="162" y="720" type="line" smooth="yes"/>
      <point x="158" y="713"/>
      <point x="161" y="707"/>
      <point x="170" y="707" type="curve" smooth="yes"/>
      <point x="229" y="707" type="line" smooth="yes"/>
      <point x="238" y="707"/>
      <point x="243" y="710"/>
      <point x="247" y="719" type="curve" smooth="yes"/>
      <point x="279" y="785" type="line"/>
      <point x="312" y="719" type="line" smooth="yes"/>
      <point x="315" y="710"/>
      <point x="321" y="707"/>
      <point x="329" y="707" type="curve" smooth="yes"/>
      <point x="389" y="707" type="line" smooth="yes"/>
      <point x="399" y="707"/>
      <point x="400" y="713"/>
      <point x="396" y="720" type="curve" smooth="yes"/>
    </contour>
  </outline>
</glyph>
<glyph name="Ucircumflex" format="1">
  <advance width="560"/>
  <unicode hex="00DB"/>
  <outline>
    <contour>
      <point x="394" y="643" type="line"/>
      <point x="380" y="643"/>
      <point x="373" y="638"/>
      <point x="373" y="622" type="curve" smooth="yes"/>
      <point x="373" y="169" type="line" smooth="yes"/>
      <point x="373" y="127"/>
      <point x="357" y="110"/>
      <point x="314" y="110" type="curve" smooth="yes"/>
      <point x="245" y="110" type="line" smooth="yes"/>
      <point x="203" y="110"/>
      <point x="187" y="127"/>
      <point x="187" y="169" type="curve" smooth="yes"/>
      <point x="187" y="622" type="line" smooth="yes"/>
      <point x="187" y="638"/>
      <point x="180" y="643"/>
      <point x="166" y="643" type="curve" smooth="yes"/>
      <point x="81" y="643" type="line" smooth="yes"/>
      <point x="67" y="643"/>
      <point x="60" y="638"/>
      <point x="60" y="622" type="curve" smooth="yes"/>
      <point x="60" y="163" type="line" smooth="yes"/>
      <point x="60" y="58"/>
      <point x="120" y="0"/>
      <point x="225" y="0" type="curve" smooth="yes"/>
      <point x="335" y="0" type="line" smooth="yes"/>
      <point x="439" y="0"/>
      <point x="500" y="58"/>
      <point x="500" y="163" type="curve" smooth="yes"/>
      <point x="500" y="623" type="line" smooth="yes"/>
      <point x="500" y="638"/>
      <point x="493" y="643"/>
      <point x="478" y="643" type="curve" smooth="yes"/>
    </contour>
    <contour>
      <point x="337" y="825" type="line"/>
      <point x="332" y="832"/>
      <point x="326" y="836"/>
      <point x="315" y="836" type="curve" smooth="yes"/>
      <point x="250" y="836" type="line"/>
      <point x="239" y="836"/>
      <point x="233" y="832"/>
      <point x="228" y="825" type="curve"/>
      <point x="165" y="720" type="line" smooth="yes"/>
      <point x="161" y="713"/>
      <point x="164" y="707"/>
      <point x="174" y="707" type="curve" smooth="yes"/>
      <point x="232" y="707" type="line" smooth="yes"/>
      <point x="241" y="707"/>
      <point x="246" y="710"/>
      <point x="250" y="719" type="curve" smooth="yes"/>
      <point x="282" y="785" type="line"/>
      <point x="315" y="719" type="line" smooth="yes"/>
      <point x="319" y="710"/>
      <point x="324" y="707"/>
      <point x="333" y="707" type="curve" smooth="yes"/>
      <point x="392" y="707" type="line" smooth="yes"/>
      <point x="402" y="707"/>
      <point x="404" y="713"/>
      <point x="400" y="720" type="curve" smooth="yes"/>
    </contour>
  </outline>
</glyph>
<glyph name="germandbls" format="1">
  <advance width="543"/>
  <unicode hex="00DF"/>
  <outline>
    <contour>
      <point x="281" y="372" type="line"/>
      <point x="266" y="372"/>
      <point x="261" y="365"/>
      <point x="261" y="351" type="curve" smooth="yes"/>
      <point x="261" y="285" type="line" smooth="yes"/>
      <point x="261" y="270"/>
      <point x="265" y="265"/>
      <point x="281" y="265" type="curve" smooth="yes"/>
      <point x="305" y="265" type="line" smooth="yes"/>
      <point x="348" y="265"/>
      <point x="369" y="248"/>
      <point x="369" y="206" type="curve" smooth="yes"/>
      <point x="369" y="164" type="line" smooth="yes"/>
      <point x="369" y="123"/>
      <point x="351" y="106"/>
      <point x="308" y="106" type="curve" smooth="yes"/>
      <point x="302" y="106"/>
      <point x="274" y="106"/>
      <point x="268" y="106" type="curve" smooth="yes"/>
      <point x="252" y="106"/>
      <point x="247" y="99"/>
      <point x="247" y="85" type="curve" smooth="yes"/>
      <point x="247" y="20" type="line" smooth="yes"/>
      <point x="247" y="5"/>
      <point x="252" y="0"/>
      <point x="268" y="0" type="curve" smooth="yes"/>
      <point x="274" y="0"/>
      <point x="323" y="0"/>
      <point x="328" y="0" type="curve" smooth="yes"/>
      <point x="433" y="0"/>
      <point x="493" y="50"/>
      <point x="493" y="154" type="curve" smooth="yes"/>
      <point x="493" y="203" type="line" smooth="yes"/>
      <point x="493" y="261"/>
      <point x="469" y="311"/>
      <point x="412" y="320" type="curve"/>
      <point x="458" y="335"/>
      <point x="483" y="368"/>
      <point x="483" y="425" type="curve" smooth="yes"/>
      <point x="483" y="478" type="line" smooth="yes"/>
      <point x="483" y="583"/>
      <point x="423" y="643"/>
      <point x="318" y="643" type="curve" smooth="yes"/>
      <point x="313" y="643"/>
      <point x="226" y="643"/>
      <point x="221" y="643" type="curve" smooth="yes"/>
      <point x="116" y="643"/>
      <point x="56" y="585"/>
      <point x="56" y="480" type="curve" smooth="yes"/>
      <point x="56" y="21" type="line" smooth="yes"/>
      <point x="56" y="5"/>
      <point x="63" y="0"/>
      <point x="77" y="0" type="curve" smooth="yes"/>
      <point x="162" y="0" type="line" smooth="yes"/>
      <point x="176" y="0"/>
      <point x="183" y="5"/>
      <point x="183" y="21" type="curve" smooth="yes"/>
      <point x="183" y="479" type="line" smooth="yes"/>
      <point x="183" y="520"/>
      <point x="199" y="536"/>
      <point x="241" y="536" type="curve" smooth="yes"/>
      <point x="247" y="536"/>
      <point x="292" y="536"/>
      <point x="298" y="536" type="curve" smooth="yes"/>
      <point x="341" y="536"/>
      <point x="359" y="520"/>
      <point x="359" y="479" type="curve" smooth="yes"/>
      <point x="359" y="431" type="line" smooth="yes"/>
      <point x="359" y="389"/>
      <point x="339" y="372"/>
      <point x="296" y="372" type="curve" smooth="yes"/>
    </contour>
  </outline>
</glyph>
<glyph name="acircumflex" format="1">
  <advance width="518"/>
  <unicode hex="00E2"/>
  <outline>
    <contour>
      <point x="336" y="186" type="line"/>
      <point x="336" y="143"/>
      <point x="322" y="110"/>
      <point x="267" y="110" type="curve" smooth="yes"/>
      <point x="230" y="110" type="line" smooth="yes"/>
      <point x="187" y="110"/>
      <point x="172" y="127"/>
      <point x="172" y="169" type="curve" smooth="yes"/>
      <point x="172" y="341" type="line" smooth="yes"/>
      <point x="172" y="383"/>
      <point x="187" y="400"/>
      <point x="230" y="400" type="curve" smooth="yes"/>
      <point x="324" y="400" type="line" smooth="yes"/>
      <point x="332" y="400"/>
      <point x="336" y="397"/>
      <point x="336" y="389" type="curve" smooth="yes"/>
    </contour>
    <contour>
      <point x="234" y="0" type="line"/>
      <point x="271" y="0"/>
      <point x="316" y="15"/>
      <point x="332" y="54" type="curve"/>
      <point x="336" y="54" type="line"/>
      <point x="336" y="21" type="line" smooth="yes"/>
      <point x="336" y="5"/>
      <point x="343" y="0"/>
      <point x="357" y="0" type="curve" smooth="yes"/>
      <point x="441" y="0" type="line" smooth="yes"/>
      <point x="456" y="0"/>
      <point x="463" y="5"/>
      <point x="463" y="21" type="curve" smooth="yes"/>
      <point x="463" y="489" type="line" smooth="yes"/>
      <point x="463" y="505"/>
      <point x="456" y="510"/>
      <point x="441" y="510" type="curve" smooth="yes"/>
      <point x="210" y="510" type="line" smooth="yes"/>
      <point x="105" y="510"/>
      <point x="45" y="452"/>
      <point x="45" y="347" type="curve" smooth="yes"/>
      <point x="45" y="163" type="line" smooth="yes"/>
      <point x="45" y="58"/>
      <point x="105" y="0"/>
      <point x="210" y="0" type="curve" smooth="yes"/>
    </contour>
    <contour>
      <point x="324" y="692" type="line"/>
      <point x="319" y="699"/>
      <point x="312" y="703"/>
      <point x="302" y="703" type="curve" smooth="yes"/>
      <point x="237" y="703" type="line"/>
      <point x="226" y="703"/>
      <point x="220" y="699"/>
      <point x="215" y="692" type="curve"/>
      <point x="152" y="587" type="line" smooth="yes"/>
      <point x="148" y="580"/>
      <point x="151" y="574"/>
      <point x="160" y="574" type="curve" smooth="yes"/>
      <point x="219" y="574" type="line" smooth="yes"/>
      <point x="228" y="574"/>
      <point x="233" y="577"/>
      <point x="237" y="586" type="curve" smooth="yes"/>
      <point x="269" y="652" type="line"/>
      <point x="302" y="586" type="line" smooth="yes"/>
      <point x="305" y="577"/>
      <point x="311" y="574"/>
      <point x="319" y="574" type="curve" smooth="yes"/>
      <point x="379" y="574" type="line" smooth="yes"/>
      <point x="389" y="574"/>
      <point x="390" y="580"/>
      <point x="386" y="587" type="curve" smooth="yes"/>
    </contour>
  </outline>
</glyph>
<glyph name="atilde" format="1">
  <advance width="518"/>
  <unicode hex="00E3"/>
  <outline>
    <contour>
      <point x="336" y="186" type="line"/>
      <point x="336" y="143"/>
      <point x="322" y="110"/>
      <point x="267" y="110" type="curve" smooth="yes"/>
      <point x="230" y="110" type="line" smooth="yes"/>
      <point x="187" y="110"/>
      <point x="172" y="127"/>
      <point x="172" y="169" type="curve" smooth="yes"/>
      <point x="172" y="341" type="line" smooth="yes"/>
      <point x="172" y="383"/>
      <point x="187" y="400"/>
      <point x="230" y="400" type="curve" smooth="yes"/>
      <point x="324" y="400" type="line" smooth="yes"/>
      <point x="332" y="400"/>
      <point x="336" y="397"/>
      <point x="336" y="389" type="curve" smooth="yes"/>
    </contour>
    <contour>
      <point x="234" y="0" type="line"/>
      <point x="271" y="0"/>
      <point x="316" y="15"/>
      <point x="332" y="54" type="curve"/>
      <point x="336" y="54" type="line"/>
      <point x="336" y="21" type="line" smooth="yes"/>
      <point x="336" y="5"/>
      <point x="343" y="0"/>
      <point x="357" y="0" type="curve" smooth="yes"/>
      <point x="441" y="0" type="line" smooth="yes"/>
      <point x="456" y="0"/>
      <point x="463" y="5"/>
      <point x="463" y="21" type="curve" smooth="yes"/>
      <point x="463" y="489" type="line" smooth="yes"/>
      <point x="463" y="505"/>
      <point x="456" y="510"/>
      <point x="441" y="510" type="curve" smooth="yes"/>
      <point x="210" y="510" type="line" smooth="yes"/>
      <point x="105" y="510"/>
      <point x="45" y="452"/>
      <point x="45" y="347" type="curve" smooth="yes"/>
      <point x="45" y="163" type="line" smooth="yes"/>
      <point x="45" y="58"/>
      <point x="105" y="0"/>
      <point x="210" y="0" type="curve" smooth="yes"/>
    </contour>
    <contour>
      <point x="153" y="650" type="line"/>
      <point x="153" y="610"/>
      <point x="169" y="574"/>
      <point x="225" y="574" type="curve" smooth="yes"/>
      <point x="248" y="574"/>
      <point x="266" y="579"/>
      <point x="288" y="609" type="curve"/>
      <point x="306" y="632"/>
      <point x="309" y="637"/>
      <point x="317" y="637" type="curve" smooth="yes"/>
      <point x="328" y="637"/>
      <point x="333" y="632"/>
      <point x="333" y="600" type="curve" smooth="yes"/>
      <point x="333" y="591" type="line" smooth="yes"/>
      <point x="333" y="581"/>
      <point x="335" y="578"/>
      <point x="343" y="578" type="curve" smooth="yes"/>
      <point x="383" y="578" type="line" smooth="yes"/>
      <point x="391" y="578"/>
      <point x="393" y="581"/>
      <point x="393" y="591" type="curve" smooth="yes"/>
      <point x="393" y="628" type="line" smooth="yes"/>
      <point x="393" y="668"/>
      <point x="377" y="704"/>
      <point x="321" y="704" type="curve" smooth="yes"/>
      <point x="298" y="704"/>
      <point x="281" y="698"/>
      <point x="261" y="673" type="curve" smooth="yes"/>
      <point x="241" y="647"/>
      <point x="236" y="641"/>
      <point x="229" y="641" type="curve" smooth="yes"/>
      <point x="218" y="641"/>
      <point x="213" y="647"/>
      <point x="213" y="677" type="curve" smooth="yes"/>
      <point x="213" y="688" type="line" smooth="yes"/>
      <point x="213" y="698"/>
      <point x="211" y="700"/>
      <point x="203" y="700" type="curve" smooth="yes"/>
      <point x="164" y="700" type="line" smooth="yes"/>
      <point x="155" y="700"/>
      <point x="153" y="698"/>
      <point x="153" y="688" type="curve" smooth="yes"/>
    </contour>
  </outline>
</glyph>
<glyph name="aring" format="1">
  <advance width="518"/>
  <unicode hex="00E5"/>
  <outline>
    <contour>
      <point x="336" y="186" type="line"/>
      <point x="336" y="143"/>
      <point x="322" y="110"/>
      <point x="267" y="110" type="curve" smooth="yes"/>
      <point x="230" y="110" type="line" smooth="yes"/>
      <point x="187" y="110"/>
      <point x="172" y="127"/>
      <point x="172" y="169" type="curve" smooth="yes"/>
      <point x="172" y="341" type="line" smooth="yes"/>
      <point x="172" y="383"/>
      <point x="187" y="400"/>
      <point x="230" y="400" type="curve" smooth="yes"/>
      <point x="324" y="400" type="line" smooth="yes"/>
      <point x="332" y="400"/>
      <point x="336" y="397"/>
      <point x="336" y="389" type="curve" smooth="yes"/>
    </contour>
    <contour>
      <point x="234" y="0" type="line"/>
      <point x="271" y="0"/>
      <point x="316" y="15"/>
      <point x="332" y="54" type="curve"/>
      <point x="336" y="54" type="line"/>
      <point x="336" y="21" type="line" smooth="yes"/>
      <point x="336" y="5"/>
      <point x="343" y="0"/>
      <point x="357" y="0" type="curve" smooth="yes"/>
      <point x="441" y="0" type="line" smooth="yes"/>
      <point x="456" y="0"/>
      <point x="463" y="5"/>
      <point x="463" y="21" type="curve" smooth="yes"/>
      <point x="463" y="489" type="line" smooth="yes"/>
      <point x="463" y="505"/>
      <point x="456" y="510"/>
      <point x="441" y="510" type="curve" smooth="yes"/>
      <point x="210" y="510" type="line" smooth="yes"/>
      <point x="105" y="510"/>
      <point x="45" y="452"/>
      <point x="45" y="347" type="curve" smooth="yes"/>
      <point x="45" y="163" type="line" smooth="yes"/>
      <point x="45" y="58"/>
      <point x="105" y="0"/>
      <point x="210" y="0" type="curve" smooth="yes"/>
    </contour>
    <contour>
      <point x="234" y="624" type="line"/>
      <point x="234" y="603"/>
      <point x="241" y="597"/>
      <point x="261" y="597" type="curve" smooth="yes"/>
      <point x="262" y="597"/>
      <point x="276" y="597"/>
      <point x="277" y="597" type="curve" smooth="yes"/>
      <point x="297" y="597"/>
      <point x="304" y="603"/>
      <point x="304" y="624" type="curve" smooth="yes"/>
      <point x="304" y="654" type="line" smooth="yes"/>
      <point x="304" y="677"/>
      <point x="297" y="682"/>
      <point x="278" y="682" type="curve" smooth="yes"/>
      <point x="277" y="682"/>
      <point x="262" y="682"/>
      <point x="261" y="682" type="curve" smooth="yes"/>
      <point x="241" y="682"/>
      <point x="234" y="677"/>
      <point x="234" y="654" type="curve"/>
    </contour>
    <contour>
      <point x="191" y="675" type="line"/>
      <point x="191" y="706"/>
      <point x="208" y="721"/>
      <point x="240" y="721" type="curve" smooth="yes"/>
      <point x="258" y="721"/>
      <point x="279" y="721"/>
      <point x="298" y="721" type="curve" smooth="yes"/>
      <point x="329" y="721"/>
      <point x="348" y="706"/>
      <point x="348" y="675" type="curve" smooth="yes"/>
      <point x="348" y="607" type="line" smooth="yes"/>
      <point x="348" y="575"/>
      <point x="329" y="559"/>
      <point x="298" y="559" type="curve" smooth="yes"/>
      <point x="279" y="559"/>
      <point x="258" y="559"/>
      <point x="240" y="559" type="curve" smooth="yes"/>
      <point x="208" y="559"/>
      <point x="191" y="575"/>
      <point x="191" y="607" type="curve" smooth="yes"/>
    </contour>
  </outline>
</glyph>
<glyph name="ae" format="1">
  <advance width="755"/>
  <unicode hex="00E6"/>
  <outline>
    <contour>
      <point x="324" y="178" type="line"/>
      <point x="324" y="126"/>
      <point x="306" y="102"/>
      <point x="255" y="102" type="curve" smooth="yes"/>
      <point x="227" y="102" type="line" smooth="yes"/>
      <point x="177" y="102"/>
      <point x="160" y="119"/>
      <point x="160" y="164" type="curve" smooth="yes"/>
      <point x="160" y="173" type="line" smooth="yes"/>
      <point x="160" y="215"/>
      <point x="175" y="232"/>
      <point x="227" y="232" type="curve" smooth="yes"/>
      <point x="312" y="232" type="line" smooth="yes"/>
      <point x="320" y="232"/>
      <point x="324" y="229"/>
      <point x="324" y="221" type="curve" smooth="yes"/>
    </contour>
    <contour>
      <point x="604" y="291" type="line"/>
      <point x="604" y="283"/>
      <point x="600" y="280"/>
      <point x="592" y="280" type="curve" smooth="yes"/>
      <point x="461" y="280" type="line" smooth="yes"/>
      <point x="454" y="280"/>
      <point x="450" y="283"/>
      <point x="450" y="291" type="curve" smooth="yes"/>
      <point x="450" y="342" type="line" smooth="yes"/>
      <point x="450" y="384"/>
      <point x="467" y="400"/>
      <point x="510" y="400" type="curve" smooth="yes"/>
      <point x="545" y="400" type="line" smooth="yes"/>
      <point x="588" y="400"/>
      <point x="604" y="383"/>
      <point x="604" y="341" type="curve" smooth="yes"/>
    </contour>
    <contour>
      <point x="450" y="183" type="line"/>
      <point x="450" y="190"/>
      <point x="454" y="194"/>
      <point x="462" y="194" type="curve" smooth="yes"/>
      <point x="693" y="194" type="line" smooth="yes"/>
      <point x="707" y="194"/>
      <point x="714" y="200"/>
      <point x="714" y="215" type="curve" smooth="yes"/>
      <point x="714" y="347" type="line" smooth="yes"/>
      <point x="714" y="452"/>
      <point x="654" y="510"/>
      <point x="550" y="510" type="curve" smooth="yes"/>
      <point x="506" y="510" type="line" smooth="yes"/>
      <point x="464" y="510"/>
      <point x="413" y="501"/>
      <point x="387" y="455" type="curve"/>
      <point x="361" y="501"/>
      <point x="303" y="510"/>
      <point x="261" y="510" type="curve" smooth="yes"/>
      <point x="102" y="510" type="line" smooth="yes"/>
      <point x="87" y="510"/>
      <point x="82" y="503"/>
      <point x="82" y="489" type="curve" smooth="yes"/>
      <point x="82" y="421" type="line" smooth="yes"/>
      <point x="82" y="407"/>
      <point x="87" y="400"/>
      <point x="102" y="400" type="curve" smooth="yes"/>
      <point x="265" y="400" type="line" smooth="yes"/>
      <point x="304" y="400"/>
      <point x="323" y="386"/>
      <point x="323" y="343" type="curve" smooth="yes"/>
      <point x="323" y="330" type="line" smooth="yes"/>
      <point x="323" y="325"/>
      <point x="321" y="322"/>
      <point x="316" y="322" type="curve" smooth="yes"/>
      <point x="206" y="322" type="line" smooth="yes"/>
      <point x="101" y="322"/>
      <point x="41" y="272"/>
      <point x="41" y="167" type="curve" smooth="yes"/>
      <point x="41" y="156" type="line" smooth="yes"/>
      <point x="41" y="55"/>
      <point x="104" y="0"/>
      <point x="206" y="0" type="curve" smooth="yes"/>
      <point x="222" y="0" type="line" smooth="yes"/>
      <point x="282" y="0"/>
      <point x="338" y="14"/>
      <point x="363" y="57" type="curve"/>
      <point x="391" y="18"/>
      <point x="428" y="0"/>
      <point x="488" y="0" type="curve" smooth="yes"/>
      <point x="693" y="0" type="line" smooth="yes"/>
      <point x="709" y="0"/>
      <point x="714" y="5"/>
      <point x="714" y="20" type="curve" smooth="yes"/>
      <point x="714" y="89" type="line" smooth="yes"/>
      <point x="714" y="103"/>
      <point x="708" y="110"/>
      <point x="693" y="110" type="curve" smooth="yes"/>
      <point x="509" y="110" type="line" smooth="yes"/>
      <point x="466" y="110"/>
      <point x="450" y="127"/>
      <point x="450" y="169" type="curve" smooth="yes"/>
    </contour>
  </outline>
</glyph>
<glyph name="ccedilla" format="1">
  <advance width="411"/>
  <unicode hex="00E7"/>
  <outline>
    <contour>
      <point x="380" y="89" type="line"/>
      <point x="380" y="103"/>
      <point x="374" y="110"/>
      <point x="359" y="110" type="curve" smooth="yes"/>
      <point x="230" y="110" type="line" smooth="yes"/>
      <point x="188" y="110"/>
      <point x="172" y="127"/>
      <point x="172" y="169" type="curve" smooth="yes"/>
      <point x="172" y="341" type="line" smooth="yes"/>
      <point x="172" y="383"/>
      <point x="188" y="400"/>
      <point x="230" y="400" type="curve" smooth="yes"/>
      <point x="359" y="400" type="line" smooth="yes"/>
      <point x="375" y="400"/>
      <point x="380" y="405"/>
      <point x="380" y="420" type="curve" smooth="yes"/>
      <point x="380" y="489" type="line" smooth="yes"/>
      <point x="380" y="503"/>
      <point x="374" y="510"/>
      <point x="359" y="510" type="curve" smooth="yes"/>
      <point x="210" y="510" type="line" smooth="yes"/>
      <point x="105" y="510"/>
      <point x="45" y="452"/>
      <point x="45" y="347" type="curve" smooth="yes"/>
      <point x="45" y="163" type="line" smooth="yes"/>
      <point x="45" y="58"/>
      <point x="105" y="0"/>
      <point x="210" y="0" type="curve" smooth="yes"/>
      <point x="359" y="0" type="line" smooth="yes"/>
      <point x="375" y="0"/>
      <point x="380" y="5"/>
      <point x="380" y="20" type="curve" smooth="yes"/>
    </contour>
    <contour>
      <point x="191" y="-39" type="line"/>
      <point x="173" y="-60"/>
      <point x="185" y="-94"/>
      <point x="209" y="-94" type="curve" smooth="yes"/>
      <point x="218" y="-94"/>
      <point x="226" y="-94"/>
      <point x="235" y="-94" type="curve" smooth="yes"/>
      <point x="271" y="-94"/>
      <point x="280" y="-98"/>
      <point x="280" y="-118" type="curve" smooth="yes"/>
      <point x="280" y="-120" type="line" smooth="yes"/>
      <point x="280" y="-138"/>
      <point x="272" y="-143"/>
      <point x="235" y="-143" type="curve" smooth="yes"/>
      <point x="202" y="-143" type="line"/>
      <point x="187" y="-143"/>
      <point x="183" y="-147"/>
      <point x="183" y="-162" type="curve" smooth="yes"/>
      <point x="183" y="-182" type="line" smooth="yes"/>
      <point x="183" y="-196"/>
      <point x="186" y="-200"/>
      <point x="202" y="-200" type="curve" smooth="yes"/>
      <point x="247" y="-200" type="line"/>
      <point x="302" y="-200"/>
      <point x="341" y="-179"/>
      <point x="341" y="-130" type="curve" smooth="yes"/>
      <point x="341" y="-124"/>
      <point x="341" y="-118"/>
      <point x="341" y="-112" type="curve"/>
      <point x="341" y="-57"/>
      <point x="312" y="-37"/>
      <point x="267" y="-37" type="curve" smooth="yes"/>
      <point x="267" y="-36"/>
      <point x="267" y="-33"/>
      <point x="267" y="-33" type="curve"/>
      <point x="320" y="20" type="line"/>
      <point x="241" y="20" type="line"/>
    </contour>
  </outline>
</glyph>
<glyph name="ecircumflex" format="1">
  <advance width="494"/>
  <unicode hex="00EA"/>
  <outline>
    <contour>
      <point x="182" y="284" type="line"/>
      <point x="175" y="284"/>
      <point x="171" y="287"/>
      <point x="171" y="295" type="curve" smooth="yes"/>
      <point x="171" y="343" type="line" smooth="yes"/>
      <point x="171" y="385"/>
      <point x="186" y="401"/>
      <point x="229" y="401" type="curve" smooth="yes"/>
      <point x="271" y="401" type="line" smooth="yes"/>
      <point x="314" y="401"/>
      <point x="329" y="385"/>
      <point x="329" y="343" type="curve" smooth="yes"/>
      <point x="329" y="295" type="line" smooth="yes"/>
      <point x="329" y="287"/>
      <point x="326" y="284"/>
      <point x="318" y="284" type="curve" smooth="yes"/>
    </contour>
    <contour>
      <point x="431" y="0" type="line"/>
      <point x="447" y="0"/>
      <point x="452" y="5"/>
      <point x="452" y="20" type="curve" smooth="yes"/>
      <point x="452" y="86" type="line" smooth="yes"/>
      <point x="452" y="101"/>
      <point x="447" y="108"/>
      <point x="431" y="108" type="curve" smooth="yes"/>
      <point x="229" y="108" type="line" smooth="yes"/>
      <point x="186" y="108"/>
      <point x="170" y="125"/>
      <point x="170" y="166" type="curve" smooth="yes"/>
      <point x="170" y="188" type="line" smooth="yes"/>
      <point x="170" y="196"/>
      <point x="174" y="199"/>
      <point x="182" y="199" type="curve" smooth="yes"/>
      <point x="433" y="199" type="line" smooth="yes"/>
      <point x="447" y="199"/>
      <point x="454" y="204"/>
      <point x="454" y="220" type="curve" smooth="yes"/>
      <point x="454" y="347" type="line" smooth="yes"/>
      <point x="454" y="452"/>
      <point x="394" y="510"/>
      <point x="289" y="510" type="curve" smooth="yes"/>
      <point x="210" y="510" type="line" smooth="yes"/>
      <point x="105" y="510"/>
      <point x="45" y="452"/>
      <point x="45" y="347" type="curve" smooth="yes"/>
      <point x="45" y="163" type="line" smooth="yes"/>
      <point x="45" y="58"/>
      <point x="105" y="0"/>
      <point x="210" y="0" type="curve" smooth="yes"/>
    </contour>
    <contour>
      <point x="309" y="692" type="line"/>
      <point x="304" y="699"/>
      <point x="298" y="703"/>
      <point x="287" y="703" type="curve" smooth="yes"/>
      <point x="222" y="703" type="line"/>
      <point x="212" y="703"/>
      <point x="205" y="699"/>
      <point x="200" y="692" type="curve"/>
      <point x="138" y="587" type="line" smooth="yes"/>
      <point x="134" y="580"/>
      <point x="136" y="574"/>
      <point x="146" y="574" type="curve" smooth="yes"/>
      <point x="205" y="574" type="line" smooth="yes"/>
      <point x="213" y="574"/>
      <point x="219" y="577"/>
      <point x="222" y="586" type="curve" smooth="yes"/>
      <point x="255" y="652" type="line"/>
      <point x="287" y="586" type="line" smooth="yes"/>
      <point x="291" y="577"/>
      <point x="296" y="574"/>
      <point x="305" y="574" type="curve" smooth="yes"/>
      <point x="364" y="574" type="line" smooth="yes"/>
      <point x="374" y="574"/>
      <point x="376" y="580"/>
      <point x="372" y="587" type="curve" smooth="yes"/>
    </contour>
  </outline>
</glyph>
<glyph name="iacute" format="1">
  <advance width="247"/>
  <unicode hex="00ED"/>
  <outline>
    <contour>
      <point x="60" y="21" type="line"/>
      <point x="60" y="5"/>
      <point x="67" y="0"/>
      <point x="81" y="0" type="curve" smooth="yes"/>
      <point x="167" y="0" type="line" smooth="yes"/>
      <point x="182" y="0"/>
      <point x="187" y="4"/>
      <point x="187" y="21" type="curve" smooth="yes"/>
      <point x="187" y="489" type="line" smooth="yes"/>
      <point x="187" y="505"/>
      <point x="180" y="510"/>
      <point x="166" y="510" type="curve" smooth="yes"/>
      <point x="80" y="510" type="line" smooth="yes"/>
      <point x="66" y="510"/>
      <point x="60" y="505"/>
      <point x="60" y="489" type="curve" smooth="yes"/>
    </contour>
    <contour>
      <point x="157" y="703" type="line"/>
      <point x="144" y="703"/>
      <point x="134" y="698"/>
      <point x="127" y="684" type="curve" smooth="yes"/>
      <point x="82" y="595" type="line" smooth="yes"/>
      <point x="75" y="580"/>
      <point x="79" y="574"/>
      <point x="92" y="574" type="curve" smooth="yes"/>
      <point x="156" y="574" type="line" smooth="yes"/>
      <point x="168" y="574"/>
      <point x="177" y="579"/>
      <point x="184" y="587" type="curve" smooth="yes"/>
      <point x="265" y="683" type="line" smooth="yes"/>
      <point x="274" y="694"/>
      <point x="269" y="703"/>
      <point x="255" y="703" type="curve" smooth="yes"/>
    </contour>
  </outline>
</glyph>
<glyph name="eth" format="1">
  <advance width="507"/>
  <unicode hex="00F0"/>
  <outline>
    <contour>
      <point x="267" y="300" type="line"/>
      <point x="322" y="300"/>
      <point x="327" y="267"/>
      <point x="327" y="224" type="curve" smooth="yes"/>
      <point x="327" y="213"/>
      <point x="327" y="179"/>
      <point x="327" y="169" type="curve"/>
      <point x="327" y="127"/>
      <point x="312" y="110"/>
      <point x="269" y="110" type="curve" smooth="yes"/>
      <point x="261" y="110"/>
      <point x="239" y="110"/>
      <point x="230" y="110" type="curve"/>
      <point x="187" y="110"/>
      <point x="172" y="127"/>
      <point x="172" y="169" type="curve" smooth="yes"/>
      <point x="172" y="241" type="line" smooth="yes"/>
      <point x="172" y="283"/>
      <point x="196" y="300"/>
      <point x="239" y="300" type="curve" smooth="yes"/>
    </contour>
    <contour>
      <point x="341" y="356" type="line"/>
      <point x="325" y="395"/>
      <point x="271" y="410"/>
      <point x="234" y="410" type="curve" smooth="yes"/>
      <point x="210" y="410" type="line" smooth="yes"/>
      <point x="105" y="410"/>
      <point x="45" y="352"/>
      <point x="45" y="247" type="curve" smooth="yes"/>
      <point x="45" y="163" type="line" smooth="yes"/>
      <point x="45" y="58"/>
      <point x="105" y="0"/>
      <point x="210" y="0" type="curve" smooth="yes"/>
      <point x="232" y="0"/>
      <point x="267" y="0"/>
      <point x="290" y="0" type="curve"/>
      <point x="394" y="0"/>
      <point x="454" y="58"/>
      <point x="454" y="163" type="curve" smooth="yes"/>
      <point x="454" y="309" type="line" smooth="yes"/>
      <point x="454" y="385"/>
      <point x="442" y="429"/>
      <point x="403" y="474" type="curve" smooth="yes"/>
      <point x="194" y="705" type="line" smooth="yes"/>
      <point x="182" y="717"/>
      <point x="169" y="718"/>
      <point x="157" y="709" type="curve" smooth="yes"/>
      <point x="115" y="678" type="line" smooth="yes"/>
      <point x="101" y="667"/>
      <point x="99" y="653"/>
      <point x="111" y="640" type="curve" smooth="yes"/>
      <point x="311" y="417" type="line"/>
      <point x="315" y="413"/>
      <point x="337" y="387"/>
      <point x="345" y="356" type="curve"/>
    </contour>
    <contour>
      <point x="358" y="714" type="line"/>
      <point x="352" y="722"/>
      <point x="340" y="722"/>
      <point x="330" y="714" type="curve"/>
      <point x="90" y="512" type="line" smooth="yes"/>
      <point x="83" y="506"/>
      <point x="82" y="493"/>
      <point x="87" y="486" type="curve" smooth="yes"/>
      <point x="117" y="450" type="line" smooth="yes"/>
      <point x="126" y="440"/>
      <point x="137" y="438"/>
      <point x="146" y="445" type="curve"/>
      <point x="387" y="645" type="line" smooth="yes"/>
      <point x="397" y="653"/>
      <point x="396" y="666"/>
      <point x="389" y="676" type="curve" smooth="yes"/>
    </contour>
  </outline>
</glyph>
<glyph name="otilde" format="1">
  <advance width="509"/>
  <unicode hex="00F5"/>
  <outline>
    <contour>
      <point x="229" y="109" type="line"/>
      <point x="186" y="109"/>
      <point x="171" y="125"/>
      <point x="171" y="167" type="curve" smooth="yes"/>
      <point x="171" y="343" type="line" smooth="yes"/>
      <point x="171" y="385"/>
      <point x="186" y="401"/>
      <point x="229" y="401" type="curve" smooth="yes"/>
      <point x="280" y="401" type="line" smooth="yes"/>
      <point x="323" y="401"/>
      <point x="339" y="385"/>
      <point x="339" y="343" type="curve" smooth="yes"/>
      <point x="339" y="167" type="line" smooth="yes"/>
      <point x="339" y="125"/>
      <point x="323" y="109"/>
      <point x="280" y="109" type="curve" smooth="yes"/>
    </contour>
    <contour>
      <point x="299" y="0" type="line"/>
      <point x="403" y="0"/>
      <point x="464" y="58"/>
      <point x="464" y="163" type="curve" smooth="yes"/>
      <point x="464" y="347" type="line" smooth="yes"/>
      <point x="464" y="452"/>
      <point x="403" y="510"/>
      <point x="299" y="510" type="curve" smooth="yes"/>
      <point x="210" y="510" type="line" smooth="yes"/>
      <point x="105" y="510"/>
      <point x="45" y="452"/>
      <point x="45" y="347" type="curve" smooth="yes"/>
      <point x="45" y="163" type="line" smooth="yes"/>
      <point x="45" y="58"/>
      <point x="105" y="0"/>
      <point x="210" y="0" type="curve" smooth="yes"/>
    </contour>
    <contour>
      <point x="126" y="650" type="line"/>
      <point x="126" y="610"/>
      <point x="142" y="574"/>
      <point x="198" y="574" type="curve" smooth="yes"/>
      <point x="221" y="574"/>
      <point x="240" y="579"/>
      <point x="261" y="609" type="curve"/>
      <point x="279" y="632"/>
      <point x="283" y="637"/>
      <point x="291" y="637" type="curve" smooth="yes"/>
      <point x="302" y="637"/>
      <point x="306" y="632"/>
      <point x="306" y="600" type="curve" smooth="yes"/>
      <point x="306" y="591" type="line" smooth="yes"/>
      <point x="306" y="581"/>
      <point x="308" y="578"/>
      <point x="317" y="578" type="curve" smooth="yes"/>
      <point x="356" y="578" type="line" smooth="yes"/>
      <point x="364" y="578"/>
      <point x="366" y="581"/>
      <point x="366" y="591" type="curve" smooth="yes"/>
      <point x="366" y="628" type="line" smooth="yes"/>
      <point x="366" y="668"/>
      <point x="350" y="704"/>
      <point x="295" y="704" type="curve" smooth="yes"/>
      <point x="271" y="704"/>
      <point x="254" y="698"/>
      <point x="235" y="673" type="curve" smooth="yes"/>
      <point x="214" y="647"/>
      <point x="209" y="641"/>
      <point x="202" y="641" type="curve" smooth="yes"/>
      <point x="191" y="641"/>
      <point x="187" y="647"/>
      <point x="187" y="677" type="curve" smooth="yes"/>
      <point x="187" y="688" type="line" smooth="yes"/>
      <point x="187" y="698"/>
      <point x="185" y="700"/>
      <point x="176" y="700" type="curve" smooth="yes"/>
      <point x="137" y="700" type="line" smooth="yes"/>
      <point x="129" y="700"/>
      <point x="126" y="698"/>
      <point x="126" y="688" type="curve" smooth="yes"/>
    </contour>
  </outline>
</glyph>
<glyph name="odieresis" format="1">
  <advance width="509"/>
  <unicode hex="00F6"/>
  <outline>
    <contour>
      <point x="229" y="109" type="line"/>
      <point x="186" y="109"/>
      <point x="171" y="125"/>
      <point x="171" y="167" type="curve" smooth="yes"/>
      <point x="171" y="343" type="line" smooth="yes"/>
      <point x="171" y="385"/>
      <point x="186" y="401"/>
      <point x="229" y="401" type="curve" smooth="yes"/>
      <point x="280" y="401" type="line" smooth="yes"/>
      <point x="323" y="401"/>
      <point x="339" y="385"/>
      <point x="339" y="343" type="curve" smooth="yes"/>
      <point x="339" y="167" type="line" smooth="yes"/>
      <point x="339" y="125"/>
      <point x="323" y="109"/>
      <point x="280" y="109" type="curve" smooth="yes"/>
    </contour>
    <contour>
      <point x="299" y="0" type="line"/>
      <point x="403" y="0"/>
      <point x="464" y="58"/>
      <point x="464" y="163" type="curve" smooth="yes"/>
      <point x="464" y="347" type="line" smooth="yes"/>
      <point x="464" y="452"/>
      <point x="403" y="510"/>
      <point x="299" y="510" type="curve" smooth="yes"/>
      <point x="210" y="510" type="line" smooth="yes"/>
      <point x="105" y="510"/>
      <point x="45" y="452"/>
      <point x="45" y="347" type="curve" smooth="yes"/>
      <point x="45" y="163" type="line" smooth="yes"/>
      <point x="45" y="58"/>
      <point x="105" y="0"/>
      <point x="210" y="0" type="curve" smooth="yes"/>
    </contour>
    <contour>
      <point x="290" y="595" type="line"/>
      <point x="290" y="581"/>
      <point x="296" y="574"/>
      <point x="310" y="574" type="curve" smooth="yes"/>
      <point x="389" y="574" type="line" smooth="yes"/>
      <point x="402" y="574"/>
      <point x="409" y="581"/>
      <point x="409" y="595" type="curve" smooth="yes"/>
      <point x="409" y="684" type="line" smooth="yes"/>
      <point x="409" y="698"/>
      <point x="402" y="703"/>
      <point x="389" y="703" type="curve" smooth="yes"/>
      <point x="310" y="703" type="line" smooth="yes"/>
      <point x="296" y="703"/>
      <point x="290" y="697"/>
      <point x="290" y="683" type="curve" smooth="yes"/>
    </contour>
    <contour>
      <point x="100" y="595" type="line"/>
      <point x="100" y="581"/>
      <point x="106" y="574"/>
      <point x="120" y="574" type="curve" smooth="yes"/>
      <point x="199" y="574" type="line" smooth="yes"/>
      <point x="212" y="574"/>
      <point x="219" y="581"/>
      <point x="219" y="595" type="curve" smooth="yes"/>
      <point x="219" y="684" type="line" smooth="yes"/>
      <point x="219" y="698"/>
      <point x="212" y="703"/>
      <point x="199" y="703" type="curve" smooth="yes"/>
      <point x="120" y="703" type="line" smooth="yes"/>
      <point x="106" y="703"/>
      <point x="100" y="697"/>
      <point x="100" y="683" type="curve" smooth="yes"/>
    </contour>
  </outline>
</glyph>
<glyph name="oslash" format="1">
  <advance width="520"/>
  <unicode hex="00F8"/>
  <outline>
    <contour>
      <point x="500" y="449" type="line"/>
      <point x="511" y="459"/>
      <point x="510" y="470"/>
      <point x="500" y="480" type="curve" smooth="yes"/>
      <point x="484" y="495" type="line" smooth="yes"/>
      <point x="474" y="505"/>
      <point x="463" y="504"/>
      <point x="454" y="494" type="curve" smooth="yes"/>
      <point x="21" y="61" type="line" smooth="yes"/>
      <point x="12" y="51"/>
      <point x="11" y="40"/>
      <point x="22" y="30" type="curve" smooth="yes"/>
      <point x="37" y="15" type="line"/>
      <point x="46" y="4"/>
      <point x="54" y="4"/>
      <point x="67" y="15" type="curve" smooth="yes"/>
    </contour>
    <contour>
      <point x="236" y="110" type="line"/>
      <point x="193" y="110"/>
      <point x="178" y="127"/>
      <point x="178" y="169" type="curve" smooth="yes"/>
      <point x="178" y="341" type="line" smooth="yes"/>
      <point x="178" y="383"/>
      <point x="193" y="400"/>
      <point x="236" y="400" type="curve" smooth="yes"/>
      <point x="284" y="400" type="line" smooth="yes"/>
      <point x="327" y="400"/>
      <point x="342" y="383"/>
      <point x="342" y="341" type="curve" smooth="yes"/>
      <point x="342" y="169" type="line" smooth="yes"/>
      <point x="342" y="127"/>
      <point x="327" y="110"/>
      <point x="284" y="110" type="curve" smooth="yes"/>
    </contour>
    <contour>
      <point x="305" y="0" type="line"/>
      <point x="409" y="0"/>
      <point x="470" y="58"/>
      <point x="470" y="163" type="curve" smooth="yes"/>
      <point x="470" y="347" type="line" smooth="yes"/>
      <point x="470" y="452"/>
      <point x="409" y="510"/>
      <point x="305" y="510" type="curve" smooth="yes"/>
      <point x="216" y="510" type="line" smooth="yes"/>
      <point x="111" y="510"/>
      <point x="51" y="452"/>
      <point x="51" y="347" type="curve" smooth="yes"/>
      <point x="51" y="163" type="line" smooth="yes"/>
      <point x="51" y="58"/>
      <point x="111" y="0"/>
      <point x="216" y="0" type="curve" smooth="yes"/>
    </contour>
  </outline>
</glyph>
